<?xml version="1.0" encoding="UTF-8" standalone="no"?><!-- Generator: Gravit.io --><svg xmlns="http://www.w3.org/2000/svg" xmlns:xlink="http://www.w3.org/1999/xlink" style="isolation:isolate" viewBox="0 0 26 26" width="26pt" height="26pt"><defs><clipPath id="_clipPath_9PlFiaYRX3uEXVRmngeYmcU0QQHCwlZ8"><rect width="26" height="26"/></clipPath></defs><g clip-path="url(#_clipPath_9PlFiaYRX3uEXVRmngeYmcU0QQHCwlZ8)"><rect x="0" y="0" width="27" height="27" transform="matrix(1,0,0,1,0,0)" fill="rgb(235,235,235)"/><path d=" M 19.167 4.43 C 18.914 4.478 18.689 4.624 18.542 4.836 L 10.729 16.368 L 7.104 12.774 C 6.927 12.594 6.685 12.492 6.432 12.492 C 6.179 12.492 5.937 12.594 5.76 12.774 L 4.385 14.149 C 4.006 14.529 4.006 15.144 4.385 15.524 L 9.917 21.055 C 10.229 21.364 10.729 21.586 11.167 21.586 C 11.604 21.586 12.037 21.313 12.323 20.899 L 21.729 7.024 C 21.874 6.812 21.93 6.552 21.883 6.3 C 21.836 6.048 21.691 5.825 21.479 5.68 L 19.885 4.586 C 19.676 4.44 19.418 4.384 19.167 4.43 Z " fill="rgb(0,0,0)"/></g></svg>