<?xml version="1.0" encoding="UTF-8" standalone="no"?>
<!-- Created with Inkscape (http://www.inkscape.org/) -->

<svg
   width="256"
   height="256"
   viewBox="0 0 67.733332 67.733335"
   version="1.1"
   id="svg5"
   sodipodi:docname="delay2.svg"
   inkscape:version="1.1 (c68e22c387, 2021-05-23)"
   xmlns:inkscape="http://www.inkscape.org/namespaces/inkscape"
   xmlns:sodipodi="http://sodipodi.sourceforge.net/DTD/sodipodi-0.dtd"
   xmlns="http://www.w3.org/2000/svg"
   xmlns:svg="http://www.w3.org/2000/svg">
  <sodipodi:namedview
     id="namedview2339"
     pagecolor="#505050"
     bordercolor="#ffffff"
     borderopacity="1"
     inkscape:pageshadow="0"
     inkscape:pageopacity="0"
     inkscape:pagecheckerboard="1"
     showgrid="false"
     inkscape:zoom="1.90625"
     inkscape:cx="127.7377"
     inkscape:cy="127.7377"
     inkscape:window-width="1366"
     inkscape:window-height="715"
     inkscape:window-x="-8"
     inkscape:window-y="-8"
     inkscape:window-maximized="1"
     inkscape:current-layer="svg5" />
  <defs
     id="defs2">
    <clipPath
       clipPathUnits="userSpaceOnUse"
       id="clipPath3332">
      <rect
         style="fill:#000000;fill-opacity:1;stroke:none;stroke-width:0.313611;stroke-linecap:round;stroke-miterlimit:4;stroke-dasharray:none;stroke-opacity:1"
         id="rect3334"
         width="63.961826"
         height="65.221878"
         x="105.91469"
         y="6.9943442"
         ry="0.41439345" />
    </clipPath>
  </defs>
  <path
     id="path5034"
     style="fill:#b9b9b9;stroke-width:222.949;stroke-linecap:round;fill-opacity:1"
     d="m 38.968325,31.944204 c 1.175329,2.676238 -0.0414,5.79855 -2.717635,6.97388 -2.676237,1.17533 -5.79855,-0.0414 -6.97388,-2.717634 C 28.10148,33.524212 16.764194,1.8162874 19.440432,0.64095771 22.11667,-0.53437218 37.792995,29.267966 38.968325,31.944204 Z" />
  <path
     id="path868"
     style="color:#000000;fill:#b9b9b9;stroke-width:3.77953;stroke-linecap:round;-inkscape-stroke:none;fill-opacity:1"
     d="M 178.9668 23.851562 A 76.413891 76.413891 0 0 1 170.85156 53.113281 C 202.82929 70.72424 220.81929 106.06347 216.05273 142.42578 C 211.18228 179.5807 183.64043 209.59076 147.03906 217.625 C 110.43769 225.65925 72.86133 209.94131 52.876953 178.24219 C 33.479251 147.47364 34.819982 108.24113 55.976562 78.931641 A 76.413891 76.413891 0 0 1 36.017578 55.699219 A 15.11811 15.11811 0 0 0 34.097656 57.71875 C 3.3013144 97.246281 0.57589035 151.98526 27.298828 194.37305 C 54.021765 236.76084 104.57844 257.90348 153.52148 247.16016 C 202.46453 236.41683 239.51852 196.03676 246.03125 146.35352 C 252.54398 96.670273 227.14936 48.108274 182.62891 25.113281 A 15.11811 15.11811 0 0 0 178.9668 23.851562 z "
     transform="scale(0.26458333)" />
  <path
     style="fill:#b9b9b9;fill-opacity:1;stroke:none;stroke-width:30.236;stroke-linecap:round;stroke-miterlimit:4;stroke-dasharray:none;stroke-opacity:1"
     id="path3744"
     d="M 39.425361,7.7831268 A 5.5562501,5.5562501 0 0 1 33.201592,12.578718 5.5562501,5.5562501 0 0 1 28.404909,6.3557893 5.5562501,5.5562501 0 0 1 34.626997,1.5580159 5.5562501,5.5562501 0 0 1 39.425861,7.7792623 L 33.91526,7.0684919 Z" />
</svg>
