<?xml version="1.0" encoding="UTF-8" standalone="no"?><!-- Generator: Gravit.io --><svg xmlns="http://www.w3.org/2000/svg" xmlns:xlink="http://www.w3.org/1999/xlink" style="isolation:isolate" viewBox="0 0 256 256" width="256pt" height="256pt"><defs><clipPath id="_clipPath_rPuMrgaHxOzGQ69S8bAKNZCJfynKJBAP"><rect width="256" height="256"/></clipPath></defs><g clip-path="url(#_clipPath_rPuMrgaHxOzGQ69S8bAKNZCJfynKJBAP)"><path d=" M 108.229 0 C 92.081 0 78.769 13.312 78.769 29.46 L 78.769 39.385 L 19.692 39.385 L 19.692 59.077 L 39.385 59.077 L 39.385 226.462 C 39.385 242.688 52.697 256 68.923 256 L 187.077 256 C 203.303 256 216.615 242.688 216.615 226.462 L 216.615 59.077 L 236.308 59.077 L 236.308 39.385 L 177.231 39.385 L 177.231 29.46 C 177.231 13.312 163.919 0 147.771 0 L 108.229 0 Z  M 108.229 19.692 L 147.771 19.692 C 153.305 19.692 157.538 23.926 157.538 29.46 L 157.538 59.077 L 196.923 59.077 L 196.923 226.462 C 196.923 231.995 192.61 236.308 187.077 236.308 L 68.923 236.308 C 66.302 236.34 63.779 235.313 61.925 233.459 C 60.072 231.606 59.045 229.083 59.077 226.462 L 59.077 59.077 L 98.462 59.077 L 98.462 29.46 C 98.462 23.926 102.695 19.692 108.229 19.692 Z  M 93.066 98.914 L 79.222 112.778 L 114.078 147.692 L 79.222 182.548 L 93.086 196.529 L 128 161.615 L 162.914 196.529 L 176.778 182.548 L 141.922 147.692 L 176.778 112.778 L 162.914 98.914 L 128 133.77 L 93.066 98.914 Z " fill="rgb(0,0,0)"/></g></svg>