<?xml version="1.0" encoding="UTF-8" standalone="no"?><!-- Generator: Gravit.io --><svg xmlns="http://www.w3.org/2000/svg" xmlns:xlink="http://www.w3.org/1999/xlink" style="isolation:isolate" viewBox="0 0 256 256" width="256pt" height="256pt"><defs><clipPath id="_clipPath_IYHR1lJR0qQfcVMzyA2GvMjOynJnv3Do"><rect width="256" height="256"/></clipPath></defs><g clip-path="url(#_clipPath_IYHR1lJR0qQfcVMzyA2GvMjOynJnv3Do)"><rect width="256" height="256" style="fill:rgb(30,126,235)" fill-opacity="0"/><path d=" M 128 0 C 57.309 0 0 57.309 0 128 C 0 198.691 57.309 256 128 256 C 198.691 256 256 198.691 256 128 C 256 57.309 198.691 0 128 0 Z  M 128 235.209 C 68.878 235.209 20.791 187.122 20.791 128 L 30.387 128 C 30.387 181.791 74.156 225.613 128 225.613 L 128 235.209 L 128 235.209 Z  M 128 209.619 C 83.005 209.619 46.381 172.995 46.381 128 L 55.977 128 C 55.977 167.717 88.283 200.023 128 200.023 L 128 209.619 L 128 209.619 Z  M 128 184.03 C 97.133 184.03 72.023 158.92 72.023 128.053 L 81.619 128.053 C 81.619 153.643 102.411 174.434 128 174.434 L 128 184.03 Z  M 128 153.643 C 114.071 153.358 102.928 141.985 102.928 128.053 C 102.928 114.121 114.071 102.748 128 102.464 C 142.127 102.464 153.589 113.926 153.589 128.053 C 153.643 142.181 142.181 153.643 128 153.643 Z  M 174.434 128 C 174.434 102.411 153.643 81.619 128.053 81.619 L 128.053 72.023 C 158.92 72.023 184.03 97.133 184.03 128 L 174.434 128 Z  M 200.023 128 C 200.023 88.283 167.717 55.977 128 55.977 L 128 46.381 C 172.995 46.381 209.619 83.005 209.619 128 L 200.023 128 Z  M 225.613 128 C 225.613 74.209 181.844 30.387 128 30.387 L 128 20.791 C 187.122 20.791 235.209 68.878 235.209 128 L 225.613 128 Z " fill="rgb(30,126,235)"/></g></svg>