<?xml version="1.0" encoding="UTF-8" standalone="no"?><!-- Generator: Gravit.io --><svg xmlns="http://www.w3.org/2000/svg" xmlns:xlink="http://www.w3.org/1999/xlink" style="isolation:isolate" viewBox="0 0 256 256" width="256pt" height="256pt"><defs><clipPath id="_clipPath_fLgkasPWKnoc7PslyspOWMj8DkGMWRSr"><rect width="256" height="256"/></clipPath></defs><g clip-path="url(#_clipPath_fLgkasPWKnoc7PslyspOWMj8DkGMWRSr)"><path d=" M 118.154 0 L 118.154 19.692 L 137.846 19.692 L 137.846 0 L 118.154 0 Z  M 118.154 39.385 L 118.154 59.077 L 137.846 59.077 L 137.846 39.385 L 118.154 39.385 Z  M 118.154 78.769 L 118.154 163.998 L 73.236 120.93 L 59.687 135.07 L 128 200.684 L 196.313 135.07 L 182.764 120.93 L 137.846 163.998 L 137.846 78.769 L 118.154 78.769 Z  M 0 177.231 L 0 226.462 C 0 242.688 13.312 256 29.538 256 L 226.462 256 C 242.688 256 256 242.688 256 226.462 L 256 177.231 L 236.308 177.231 L 236.308 226.462 C 236.308 231.995 231.995 236.308 226.462 236.308 L 29.538 236.308 C 26.917 236.34 24.394 235.313 22.541 233.459 C 20.687 231.606 19.66 229.083 19.692 226.462 L 19.692 177.231 L 0 177.231 Z " fill="rgb(0,0,0)"/></g></svg>