<?xml version="1.0" encoding="UTF-8" standalone="no"?><!-- Generator: Gravit.io --><svg xmlns="http://www.w3.org/2000/svg" xmlns:xlink="http://www.w3.org/1999/xlink" style="isolation:isolate" viewBox="0 0 256 256" width="256pt" height="256pt"><defs><clipPath id="_clipPath_a3FANei7bzjUbgMWyzJtFIBKkotKECDT"><rect width="256" height="256"/></clipPath></defs><g clip-path="url(#_clipPath_a3FANei7bzjUbgMWyzJtFIBKkotKECDT)"><path d=" M 120.492 67.659 L 120.492 104.618 L 116.329 104.618 C 114.039 104.618 112.163 104.931 112.267 105.348 C 112.372 106.39 129.967 122.526 131.527 123.047 C 132.153 123.256 137.045 119.194 142.459 114.093 L 152.246 104.722 L 147.351 104.618 L 142.355 104.618 L 142.355 67.659 L 142.355 30.699 L 131.423 30.699 L 120.492 30.699 L 120.492 67.659 L 120.492 67.659 L 120.492 67.659 L 120.492 67.659 L 120.492 67.659 L 120.492 67.659 L 120.492 67.659 L 120.492 67.659 Z  M 105.916 50.063 C 97.483 52.249 82.178 60.161 75.93 65.681 C 73.015 68.284 70.517 70.782 70.517 71.095 C 70.517 71.512 76.764 77.863 84.468 85.15 L 98.418 98.371 L 103.728 94.831 C 106.643 92.853 110.6 90.772 112.682 90.042 L 116.326 88.792 L 116.326 68.594 L 116.326 48.396 L 114.036 48.5 C 112.684 48.503 109.04 49.232 105.916 50.063 L 105.916 50.063 L 105.916 50.063 L 105.916 50.063 L 105.916 50.063 L 105.916 50.063 L 105.916 50.063 Z  M 62.399 79.528 C 53.859 91.084 46.677 110.034 46.573 120.966 L 46.573 124.402 L 66.25 124.402 C 87.073 124.402 87.177 124.402 87.177 119.405 C 87.177 118.467 88.529 114.721 90.196 111.285 L 93.216 104.933 L 78.952 90.668 L 64.689 76.404 L 62.399 79.528 L 62.399 79.528 L 62.399 79.528 L 62.399 79.528 L 62.399 79.528 L 62.399 79.528 Z  M 203.574 100.664 L 203.264 105.139 L 180.88 105.452 L 158.496 105.765 L 147.565 116.071 L 136.634 126.377 L 170.366 126.481 L 203.993 126.481 L 203.576 130.644 C 203.368 132.937 203.472 134.81 203.889 134.81 C 204.202 134.81 209.094 130.438 214.612 125.129 L 224.814 115.55 L 214.403 105.866 L 203.889 96.287 L 203.574 100.664 L 203.574 100.664 L 203.574 100.664 L 203.574 100.664 L 203.574 100.664 Z  M 167.969 135.542 C 167.656 138.353 166.2 143.037 164.741 146.056 C 163.282 149.18 162.138 151.782 162.138 151.887 C 162.138 152.095 168.802 157.925 176.819 165.004 L 191.603 177.915 L 194 174.791 C 199.517 167.919 205.765 153.241 207.429 143.245 L 208.156 138.561 L 203.991 141.893 C 201.701 143.766 199.515 145.225 199.202 145.225 C 198.89 145.225 198.577 141.893 198.577 137.938 L 198.577 130.652 L 183.584 130.652 L 168.696 130.652 L 167.969 135.542 L 167.969 135.542 L 167.969 135.542 L 167.969 135.542 Z  M 46.573 135.646 C 46.573 146.369 55.11 168.443 62.399 176.771 L 65.835 180.729 L 79.786 166.778 L 93.737 152.723 L 91.03 147.205 C 89.571 144.082 87.802 139.397 87.073 136.586 L 85.926 131.691 L 66.25 131.691 L 46.573 131.691 L 46.573 135.646 L 46.573 135.646 L 46.573 135.646 L 46.573 135.646 Z  M 153.289 160.424 C 149.227 163.756 140.794 167.71 135.902 168.544 L 131.947 169.274 L 131.947 189.576 C 131.947 208.422 132.051 209.878 133.82 209.357 C 134.758 209.148 138.194 208.523 141.318 208.211 C 149.438 207.169 162.245 202.276 170.887 196.862 C 179.32 191.553 187.023 184.16 185.567 182.807 C 182.964 180.619 159.33 160.215 157.978 159.069 C 156.722 158.134 155.787 158.446 153.289 160.424 L 153.289 160.424 Z  M 157.243 14.354 C 177.337 19.663 196.079 30.595 211.176 45.692 C 228.56 63.079 239.494 84.423 243.761 109.305 C 247.718 132.21 243.657 160.528 233.351 180.83 C 225.647 195.927 211.28 213.106 197.743 223.203 C 163.907 248.609 116.329 253.397 78.119 235.281 C 42.407 218.415 18.15 186.452 11.59 147.515 C 9.196 133.46 10.03 112.95 13.672 99.103 C 22.105 66.515 45.218 38.092 75.204 23.1 C 94.464 13.625 107.479 10.814 130.384 11.335 C 144.126 11.647 148.81 12.168 157.243 14.354 L 157.243 14.354 L 157.243 14.354 L 157.243 14.354 L 157.243 14.354 L 157.243 14.354 L 157.243 14.354 L 157.243 14.354 L 157.243 14.354 Z  M 119.971 0.195 C 100.19 2.381 87.383 5.608 73.745 12.064 C 37.931 28.826 12.424 60.163 2.74 99.413 C 0.659 107.95 0.346 111.803 0.346 128.565 C 0.346 145.327 0.659 149.076 2.74 157.717 C 14.714 205.712 48.967 240.382 97.066 253.293 C 106.75 255.792 108.935 256 127.779 256 C 146.208 255.896 149.019 255.687 158.077 253.293 C 201.075 241.737 232.726 213.314 248.135 172.606 C 257.61 147.619 258.129 114.406 249.696 89.003 C 241.159 63.6 225.957 42.047 205.554 26.744 C 188.375 13.729 169.738 5.504 150.168 2.172 C 140.69 0.507 125.697 -0.43 119.971 0.195 L 119.971 0.195 L 119.971 0.195 L 119.971 0.195 L 119.971 0.195 L 119.971 0.195 L 119.971 0.195 L 119.971 0.195 L 119.971 0.195 Z  M 84.887 172.71 C 77.496 180.312 71.561 186.869 71.561 187.182 C 71.561 188.429 84.991 197.696 91.759 201.132 C 98.942 204.777 109.563 207.901 118.726 209.044 L 123.618 209.771 L 123.618 189.573 L 123.618 169.375 L 119.557 168.646 C 114.56 167.815 103.834 162.815 101.857 160.525 C 101.128 159.483 99.88 158.754 99.255 158.858 C 98.629 158.968 92.174 165.215 84.887 172.71 Z " fill-rule="evenodd" fill="rgb(0,0,0)"/></g></svg>