<?xml version="1.0" encoding="UTF-8" standalone="no"?><!-- Generator: Gravit.io --><svg xmlns="http://www.w3.org/2000/svg" xmlns:xlink="http://www.w3.org/1999/xlink" style="isolation:isolate" viewBox="0 0 256 256" width="256pt" height="256pt"><defs><clipPath id="_clipPath_zqmxiHGkuYnKj3NASJIEQIZTj6Ujd2Po"><rect width="256" height="256"/></clipPath></defs><g clip-path="url(#_clipPath_zqmxiHGkuYnKj3NASJIEQIZTj6Ujd2Po)"><path d=" M 106.268 52.837 L 106.268 105.674 L 100.317 105.674 C 97.043 105.674 94.362 106.121 94.511 106.717 C 94.66 108.207 119.814 131.276 122.045 132.02 C 122.939 132.318 129.933 126.512 137.672 119.22 L 151.664 105.823 L 144.666 105.674 L 137.523 105.674 L 137.523 52.837 L 137.523 0 L 121.896 0 L 106.268 0 L 106.268 52.837 L 106.268 52.837 L 106.268 52.837 L 106.268 52.837 L 106.268 52.837 L 106.268 52.837 L 106.268 52.837 L 106.268 52.837 Z  M 85.431 27.683 C 73.375 30.808 51.495 42.119 42.564 50.01 C 38.396 53.731 34.824 57.303 34.824 57.75 C 34.824 58.346 43.755 67.425 54.768 77.842 L 74.712 96.743 L 82.302 91.682 C 86.47 88.855 92.127 85.88 95.103 84.837 L 100.313 83.049 L 100.313 54.174 L 100.313 25.299 L 97.04 25.448 C 95.107 25.452 89.896 26.495 85.431 27.683 L 85.431 27.683 L 85.431 27.683 L 85.431 27.683 L 85.431 27.683 L 85.431 27.683 L 85.431 27.683 Z  M 23.219 69.805 C 11.011 86.326 0.743 113.417 0.594 129.045 L 0.594 133.957 L 28.724 133.957 C 58.493 133.957 58.642 133.957 58.642 126.814 C 58.642 125.473 60.575 120.117 62.958 115.205 L 67.275 106.125 L 46.884 85.731 L 26.493 65.34 L 23.219 69.805 L 23.219 69.805 L 23.219 69.805 L 23.219 69.805 L 23.219 69.805 L 23.219 69.805 Z  M 225.041 100.021 L 224.598 106.419 L 192.599 106.866 L 160.599 107.313 L 144.972 122.047 L 129.344 136.78 L 177.567 136.929 L 225.641 136.929 L 225.045 142.881 C 224.747 146.158 224.896 148.836 225.492 148.836 C 225.939 148.836 232.933 142.586 240.821 134.996 L 255.406 121.302 L 240.524 107.458 L 225.492 93.764 L 225.041 100.021 L 225.041 100.021 L 225.041 100.021 L 225.041 100.021 L 225.041 100.021 Z  M 174.141 149.882 C 173.694 153.901 171.612 160.597 169.526 164.914 C 167.441 169.379 165.806 173.1 165.806 173.249 C 165.806 173.547 175.333 181.882 186.792 192.001 L 207.928 210.459 L 211.354 205.993 C 219.243 196.168 228.174 175.186 230.553 160.895 L 231.593 154.199 L 225.637 158.962 C 222.364 161.64 219.239 163.726 218.792 163.726 C 218.345 163.726 217.898 158.962 217.898 153.309 L 217.898 142.892 L 196.465 142.892 L 175.18 142.892 L 174.141 149.882 L 174.141 149.882 L 174.141 149.882 L 174.141 149.882 Z  M 0.594 150.031 C 0.594 165.361 12.799 196.917 23.219 208.824 L 28.132 214.481 L 48.076 194.537 L 68.019 174.444 L 64.15 166.556 C 62.064 162.091 59.535 155.394 58.493 151.376 L 56.854 144.378 L 28.724 144.378 L 0.594 144.378 L 0.594 150.031 L 0.594 150.031 L 0.594 150.031 L 0.594 150.031 Z  M 153.154 185.454 C 147.348 190.217 135.292 195.871 128.298 197.062 L 122.644 198.105 L 122.644 227.129 C 122.644 254.071 122.793 256.153 125.322 255.408 C 126.663 255.11 131.575 254.216 136.041 253.769 C 147.65 252.279 165.958 245.285 178.312 237.546 C 190.368 229.956 201.381 219.386 199.299 217.453 C 195.578 214.325 161.791 185.156 159.858 183.517 C 158.063 182.18 156.726 182.627 153.154 185.454 L 153.154 185.454 Z  M 55.368 203.018 C 44.802 213.885 36.318 223.259 36.318 223.706 C 36.318 225.49 55.517 238.738 65.193 243.65 C 75.461 248.86 90.645 253.326 103.743 254.961 L 110.738 256 L 110.738 227.125 L 110.738 198.25 L 104.931 197.208 C 97.788 196.019 82.455 188.872 79.628 185.599 C 78.585 184.109 76.801 183.066 75.908 183.215 C 75.014 183.372 65.785 192.303 55.368 203.018 Z " fill-rule="evenodd" fill="rgb(0,0,0)"/></g></svg>