<!--?xml version="1.0" encoding="UTF-8" standalone="no"?--><!-- Generator: Gravit.io --><svg xmlns="http://www.w3.org/2000/svg" xmlns:xlink="http://www.w3.org/1999/xlink" style="isolation:isolate" viewBox="0 0 512 512" width="512pt" height="512pt"><defs class=""><clipPath id="_clipPath_icgHMk9MhNTrnPEfWBDZEK8t84g4zOOi" class=""><rect width="512" height="512" class=""></rect></clipPath></defs><g clip-path="url(#_clipPath_icgHMk9MhNTrnPEfWBDZEK8t84g4zOOi)" class=""><rect width="512" height="512" style="fill:rgb(233,54,87)" fill-opacity="0" class=""></rect><rect x="0" y="0" width="512" height="512" transform="matrix(1,0,0,1,0,0)" fill="rgb(233,54,87)" class=""></rect><clipPath id="_clipPath_MPDHbfKetFICpbgyDUPPJOBvI2cq87s0" class=""><rect x="0" y="0" width="512" height="512" transform="matrix(1,0,0,1,0,0)" fill="rgb(233,54,87)"></rect></clipPath><g clip-path="url(#_clipPath_MPDHbfKetFICpbgyDUPPJOBvI2cq87s0)" class=""><g class=""><g class="stars"><rect x="0" y="64" width="512" height="384" transform="matrix(-1,0,0,-1,512,512)" fill="rgb(90,145,240)"></rect><clipPath id="_clipPath_Vc6iSo8PZZKpBLq9PpRVJUjYh6ZP1PqI"><rect x="0" y="64" width="512" height="384" transform="matrix(-1,0,0,-1,512,512)" fill="rgb(90,145,240)"></rect></clipPath><g clip-path="url(#_clipPath_Vc6iSo8PZZKpBLq9PpRVJUjYh6ZP1PqI)" class=""><g class=""><path d=" M 317.803 351.106 L 256 318.614 L 194.197 351.106 L 206 282.287 L 156 233.549 L 225.098 223.508 L 256 160.894 L 286.902 223.508 L 356 233.549 L 306 282.287 L 317.803 351.106 Z " fill="rgb(255,255,255)"></path><path d=" M 61.803 351.106 L 0 318.614 L -61.803 351.106 L -50 282.287 L -100 233.549 L -30.902 223.508 L 0 160.894 L 30.902 223.508 L 100 233.549 L 50 282.287 L 61.803 351.106 Z " fill="rgb(255,255,255)"></path><path d=" M 573.803 351.106 L 512 318.614 L 450.197 351.106 L 462 282.287 L 412 233.549 L 481.098 223.508 L 512 160.894 L 542.902 223.508 L 612 233.549 L 562 282.287 L 573.803 351.106 Z " fill="rgb(255,255,255)"></path></g></g><rect x="-512" y="64" width="512" height="384" transform="matrix(-1,0,0,-1,-512,512)" fill="rgb(90,145,240)"></rect><clipPath id="_clipPath_iuHrn4n9GaSYMrcinx8MJOeSSUwjf1ag"><rect x="-512" y="64" width="512" height="384" transform="matrix(-1,0,0,-1,-512,512)" fill="rgb(90,145,240)"></rect></clipPath><g clip-path="url(#_clipPath_iuHrn4n9GaSYMrcinx8MJOeSSUwjf1ag)"><g><path d=" M -194.197 351.106 L -256 318.614 L -317.803 351.106 L -306 282.287 L -356 233.549 L -286.902 223.508 L -256 160.894 L -225.098 223.508 L -156 233.549 L -206 282.287 L -194.197 351.106 Z " fill="rgb(255,255,255)"></path><path d=" M -450.197 351.106 L -512 318.614 L -573.803 351.106 L -562 282.287 L -612 233.549 L -542.902 223.508 L -512 160.894 L -481.098 223.508 L -412 233.549 L -462 282.287 L -450.197 351.106 Z " fill="rgb(255,255,255)"></path><path d=" M 61.803 351.106 L 0 318.614 L -61.803 351.106 L -50 282.287 L -100 233.549 L -30.902 223.508 L 0 160.894 L 30.902 223.508 L 100 233.549 L 50 282.287 L 61.803 351.106 Z " fill="rgb(255,255,255)"></path></g></g><rect x="512" y="64" width="512" height="384" transform="matrix(-1,0,0,-1,1536,512)" fill="rgb(90,145,240)"></rect><clipPath id="_clipPath_vJZ56lEfvTJKxlsWRBKZGgHefeIKJhHK"><rect x="512" y="64" width="512" height="384" transform="matrix(-1,0,0,-1,1536,512)" fill="rgb(90,145,240)"></rect></clipPath><g clip-path="url(#_clipPath_vJZ56lEfvTJKxlsWRBKZGgHefeIKJhHK)"><g><path d=" M 829.803 351.106 L 768 318.614 L 706.197 351.106 L 718 282.287 L 668 233.549 L 737.098 223.508 L 768 160.894 L 798.902 223.508 L 868 233.549 L 818 282.287 L 829.803 351.106 Z " fill="rgb(255,255,255)"></path><path d=" M 573.803 351.106 L 512 318.614 L 450.197 351.106 L 462 282.287 L 412 233.549 L 481.098 223.508 L 512 160.894 L 542.902 223.508 L 612 233.549 L 562 282.287 L 573.803 351.106 Z " fill="rgb(255,255,255)"></path><path d=" M 1085.803 351.106 L 1024 318.614 L 962.197 351.106 L 974 282.287 L 924 233.549 L 993.098 223.508 L 1024 160.894 L 1054.902 223.508 L 1124 233.549 L 1074 282.287 L 1085.803 351.106 Z " fill="rgb(255,255,255)"></path></g></g></g><g class="lines"><g class=""><g><clipPath id="_clipPath_G8cmkuUNbH9ii8lRh39aVDIr7hUXITvM"><path d=" M 0 367.12 L -256 367.12 L -256 434.959 L 0 434.959 L 0 367.12 Z " fill="rgb(255,255,255)"></path></clipPath><g clip-path="url(#_clipPath_G8cmkuUNbH9ii8lRh39aVDIr7hUXITvM)"><path d=" M -128 422.159 C -74.137 422.159 -53.513 385.04 0 385.04" fill="none" stroke-width="10" stroke="rgb(255,255,255)" stroke-linejoin="round" stroke-linecap="round" stroke-miterlimit="3"></path><path d=" M -128 422.159 C -181.863 422.159 -202.487 385.04 -256 385.04" fill="none" stroke-width="10" stroke="rgb(255,255,255)" stroke-linejoin="round" stroke-linecap="round" stroke-miterlimit="3"></path></g><clipPath id="_clipPath_44U1J5csGtNWVcRAM8R08tlgcA582FxI"><path d=" M 0 90 L -256 90 L -256 157.839 L 0 157.839 L 0 90 Z " fill="rgb(255,255,255)"></path></clipPath><g clip-path="url(#_clipPath_44U1J5csGtNWVcRAM8R08tlgcA582FxI)"><path d=" M -128 145.039 C -74.137 145.039 -53.513 107.92 0 107.92" fill="none" stroke-width="10" stroke="rgb(255,255,255)" stroke-linejoin="round" stroke-linecap="round" stroke-miterlimit="3"></path><path d=" M -128 145.039 C -181.863 145.039 -202.487 107.92 -256 107.92" fill="none" stroke-width="10" stroke="rgb(255,255,255)" stroke-linejoin="round" stroke-linecap="round" stroke-miterlimit="3"></path></g></g><g><clipPath id="_clipPath_RKgG3NGgAAeEJ9Naa0haXAEUrJnHVkcu"><path d=" M -256 367.12 L -512 367.12 L -512 434.959 L -256 434.959 L -256 367.12 Z " fill="rgb(255,255,255)"></path></clipPath><g clip-path="url(#_clipPath_RKgG3NGgAAeEJ9Naa0haXAEUrJnHVkcu)"><path d=" M -384 422.159 C -330.137 422.159 -309.513 385.04 -256 385.04" fill="none" stroke-width="10" stroke="rgb(255,255,255)" stroke-linejoin="round" stroke-linecap="round" stroke-miterlimit="3"></path><path d=" M -384 422.159 C -437.863 422.159 -458.487 385.04 -512 385.04" fill="none" stroke-width="10" stroke="rgb(255,255,255)" stroke-linejoin="round" stroke-linecap="round" stroke-miterlimit="3"></path></g><clipPath id="_clipPath_gxT5iEeQGtnDgbP0YZIO8kDw5dVRZQRJ"><path d=" M -256 90 L -512 90 L -512 157.839 L -256 157.839 L -256 90 Z " fill="rgb(255,255,255)"></path></clipPath><g clip-path="url(#_clipPath_gxT5iEeQGtnDgbP0YZIO8kDw5dVRZQRJ)"><path d=" M -384 145.039 C -330.137 145.039 -309.513 107.92 -256 107.92" fill="none" stroke-width="10" stroke="rgb(255,255,255)" stroke-linejoin="round" stroke-linecap="round" stroke-miterlimit="3"></path><path d=" M -384 145.039 C -437.863 145.039 -458.487 107.92 -512 107.92" fill="none" stroke-width="10" stroke="rgb(255,255,255)" stroke-linejoin="round" stroke-linecap="round" stroke-miterlimit="3"></path></g></g><g><clipPath id="_clipPath_F7ZsCkWuE3WdlUcOhY954cLgKrWYrgxy"><path d=" M 256 367.12 L 0 367.12 L 0 434.959 L 256 434.959 L 256 367.12 Z " fill="rgb(255,255,255)"></path></clipPath><g clip-path="url(#_clipPath_F7ZsCkWuE3WdlUcOhY954cLgKrWYrgxy)"><path d=" M 128 422.159 C 181.863 422.159 202.487 385.04 256 385.04" fill="none" stroke-width="10" stroke="rgb(255,255,255)" stroke-linejoin="round" stroke-linecap="round" stroke-miterlimit="3"></path><path d=" M 128 422.159 C 74.137 422.159 53.513 385.04 0 385.04" fill="none" stroke-width="10" stroke="rgb(255,255,255)" stroke-linejoin="round" stroke-linecap="round" stroke-miterlimit="3"></path></g><clipPath id="_clipPath_vKfQiYAjdqWNbS2DvLaKfIL4z9PFZy3E"><path d=" M 256 90 L 0 90 L 0 157.839 L 256 157.839 L 256 90 Z " fill="rgb(255,255,255)"></path></clipPath><g clip-path="url(#_clipPath_vKfQiYAjdqWNbS2DvLaKfIL4z9PFZy3E)"><path d=" M 128 145.039 C 181.863 145.039 202.487 107.92 256 107.92" fill="none" stroke-width="10" stroke="rgb(255,255,255)" stroke-linejoin="round" stroke-linecap="round" stroke-miterlimit="3"></path><path d=" M 128 145.039 C 74.137 145.039 53.513 107.92 0 107.92" fill="none" stroke-width="10" stroke="rgb(255,255,255)" stroke-linejoin="round" stroke-linecap="round" stroke-miterlimit="3"></path></g></g></g><g class=""><g><clipPath id="_clipPath_pSB8dhY7u6CBnvpXk15ngeJ5OA9c1QcE"><path d=" M 768 367.12 L 512 367.12 L 512 434.959 L 768 434.959 L 768 367.12 Z " fill="rgb(255,255,255)"></path></clipPath><g clip-path="url(#_clipPath_pSB8dhY7u6CBnvpXk15ngeJ5OA9c1QcE)"><path d=" M 640 422.159 C 693.863 422.159 714.487 385.04 768 385.04" fill="none" stroke-width="10" stroke="rgb(255,255,255)" stroke-linejoin="round" stroke-linecap="round" stroke-miterlimit="3"></path><path d=" M 640 422.159 C 586.137 422.159 565.513 385.04 512 385.04" fill="none" stroke-width="10" stroke="rgb(255,255,255)" stroke-linejoin="round" stroke-linecap="round" stroke-miterlimit="3"></path></g><clipPath id="_clipPath_1U6V2ZRphllR0AId52QtOuYfDWkGtHi0"><path d=" M 768 90 L 512 90 L 512 157.839 L 768 157.839 L 768 90 Z " fill="rgb(255,255,255)"></path></clipPath><g clip-path="url(#_clipPath_1U6V2ZRphllR0AId52QtOuYfDWkGtHi0)"><path d=" M 640 145.039 C 693.863 145.039 714.487 107.92 768 107.92" fill="none" stroke-width="10" stroke="rgb(255,255,255)" stroke-linejoin="round" stroke-linecap="round" stroke-miterlimit="3"></path><path d=" M 640 145.039 C 586.137 145.039 565.513 107.92 512 107.92" fill="none" stroke-width="10" stroke="rgb(255,255,255)" stroke-linejoin="round" stroke-linecap="round" stroke-miterlimit="3"></path></g></g><g><clipPath id="_clipPath_cC5OkeRAoWUKrryHXxuWqTshJdz7ZvY4"><path d=" M 512 367.12 L 256 367.12 L 256 434.959 L 512 434.959 L 512 367.12 Z " fill="rgb(255,255,255)"></path></clipPath><g clip-path="url(#_clipPath_cC5OkeRAoWUKrryHXxuWqTshJdz7ZvY4)"><path d=" M 384 422.159 C 437.863 422.159 458.487 385.04 512 385.04" fill="none" stroke-width="10" stroke="rgb(255,255,255)" stroke-linejoin="round" stroke-linecap="round" stroke-miterlimit="3"></path><path d=" M 384 422.159 C 330.137 422.159 309.513 385.04 256 385.04" fill="none" stroke-width="10" stroke="rgb(255,255,255)" stroke-linejoin="round" stroke-linecap="round" stroke-miterlimit="3"></path></g><clipPath id="_clipPath_gfdNnG8OS2QX9b1SRs6omCtQTw6z722N"><path d=" M 512 90 L 256 90 L 256 157.839 L 512 157.839 L 512 90 Z " fill="rgb(255,255,255)"></path></clipPath><g clip-path="url(#_clipPath_gfdNnG8OS2QX9b1SRs6omCtQTw6z722N)"><path d=" M 384 145.039 C 437.863 145.039 458.487 107.92 512 107.92" fill="none" stroke-width="10" stroke="rgb(255,255,255)" stroke-linejoin="round" stroke-linecap="round" stroke-miterlimit="3"></path><path d=" M 384 145.039 C 330.137 145.039 309.513 107.92 256 107.92" fill="none" stroke-width="10" stroke="rgb(255,255,255)" stroke-linejoin="round" stroke-linecap="round" stroke-miterlimit="3"></path></g></g><g><clipPath id="_clipPath_AzIBqVRT5a7RHdxAtWPrykuTQve5Duew"><path d=" M 1024 367.12 L 768 367.12 L 768 434.959 L 1024 434.959 L 1024 367.12 Z " fill="rgb(255,255,255)"></path></clipPath><g clip-path="url(#_clipPath_AzIBqVRT5a7RHdxAtWPrykuTQve5Duew)"><path d=" M 896 422.159 C 949.863 422.159 970.487 385.04 1024 385.04" fill="none" stroke-width="10" stroke="rgb(255,255,255)" stroke-linejoin="round" stroke-linecap="round" stroke-miterlimit="3"></path><path d=" M 896 422.159 C 842.137 422.159 821.513 385.04 768 385.04" fill="none" stroke-width="10" stroke="rgb(255,255,255)" stroke-linejoin="round" stroke-linecap="round" stroke-miterlimit="3"></path></g><clipPath id="_clipPath_y6YYDmydYdl0Y0OtZ0SOChwOlh55DLQv"><path d=" M 1024 90 L 768 90 L 768 157.839 L 1024 157.839 L 1024 90 Z " fill="rgb(255,255,255)"></path></clipPath><g clip-path="url(#_clipPath_y6YYDmydYdl0Y0OtZ0SOChwOlh55DLQv)"><path d=" M 896 145.039 C 949.863 145.039 970.487 107.92 1024 107.92" fill="none" stroke-width="10" stroke="rgb(255,255,255)" stroke-linejoin="round" stroke-linecap="round" stroke-miterlimit="3"></path><path d=" M 896 145.039 C 842.137 145.039 821.513 107.92 768 107.92" fill="none" stroke-width="10" stroke="rgb(255,255,255)" stroke-linejoin="round" stroke-linecap="round" stroke-miterlimit="3"></path></g></g></g></g></g><g class=""><rect x="0" y="0" width="512" height="64" transform="matrix(1,0,0,1,0,0)" fill="rgb(235,235,235)" class=""></rect><rect x="0" y="0" width="512" height="32" transform="matrix(1,0,0,1,0,0)" fill="rgb(233,54,87)" class=""></rect><rect x="0" y="448" width="512" height="64" transform="matrix(1,0,0,1,0,0)" fill="rgb(235,235,235)"></rect><rect x="0" y="480" width="512" height="32" transform="matrix(1,0,0,1,0,0)" fill="rgb(233,54,87)"></rect></g></g></g></svg>