<?xml version="1.0" encoding="UTF-8" standalone="no"?><!-- Generator: Gravit.io --><svg xmlns="http://www.w3.org/2000/svg" xmlns:xlink="http://www.w3.org/1999/xlink" style="isolation:isolate" viewBox="0 0 256 256" width="256pt" height="256pt"><defs><clipPath id="_clipPath_mQ93Ajjmgln9NYJDXThrMoRqTivT49Ws"><rect width="256" height="256"/></clipPath></defs><g clip-path="url(#_clipPath_mQ93Ajjmgln9NYJDXThrMoRqTivT49Ws)"><path d=" M 81.003 32 L 96.661 53.334 L 138.666 53.334 C 174.122 53.334 202.666 81.878 202.666 117.334 L 202.666 160 L 170.666 160 L 213.334 218.336 L 256 160 L 224 160 L 224 117.334 C 224 70.337 185.665 32 138.666 32 L 81.003 32 Z  M 42.666 37.664 L 0 96 L 32 96 L 32 138.666 C 32 185.665 70.337 224 117.334 224 L 174.997 224 L 159.339 202.666 L 117.334 202.666 C 81.878 202.666 53.334 174.122 53.334 138.666 L 53.334 96 L 85.334 96 L 42.666 37.664 Z " fill="rgb(0,0,0)"/></g></svg>