<?xml version="1.0" encoding="UTF-8" standalone="no"?><!-- Generator: Gravit.io --><svg xmlns="http://www.w3.org/2000/svg" xmlns:xlink="http://www.w3.org/1999/xlink" style="isolation:isolate" viewBox="0 0 256 256" width="256pt" height="256pt"><defs><clipPath id="_clipPath_S3OiRfYQ9JbOLbYEYqBTTiDaMDKrxwlJ"><rect width="256" height="256"/></clipPath></defs><g clip-path="url(#_clipPath_S3OiRfYQ9JbOLbYEYqBTTiDaMDKrxwlJ)"><path d=" M 156.105 0 C 175.707 0 191.678 15.97 191.678 35.61 C 191.678 55.248 175.707 71.22 156.105 71.22 C 136.466 71.22 120.533 55.248 120.533 35.61 C 120.533 15.97 136.466 0 156.105 0 L 156.105 0 L 156.105 0 Z  M 216.652 210.619 L 194.086 227.775 C 192.826 228.739 191.159 229.072 189.602 228.665 C 188.046 228.257 186.786 227.145 186.157 225.627 C 186.045 225.367 174.373 198.91 132.464 177.677 C 123.978 189.646 95.854 225.07 54.908 232.592 C 54.612 232.667 54.278 232.667 53.982 232.667 C 51.944 232.667 50.054 231.481 49.202 229.554 C 37.27 202.134 37.27 199.984 37.27 198.798 C 37.27 196.427 38.864 194.315 41.198 193.76 C 43.237 193.241 91.333 180.457 94.371 135.88 C 94.371 134.471 94.409 92.192 120.681 77.296 C 121.199 76.963 127.091 73.554 133.909 73.554 C 139.097 73.554 143.543 75.555 146.804 79.298 C 147.063 79.594 147.323 79.964 147.509 80.335 C 147.509 80.335 152.807 90.747 154.808 94.712 C 155.364 95.416 158.402 98.529 166.221 98.529 C 174.818 98.529 186.341 94.674 199.496 87.412 C 200.719 86.745 202.201 86.56 203.535 87.005 C 204.869 87.412 206.018 88.375 206.648 89.636 L 217.023 110.2 C 218.024 112.202 217.653 114.647 216.06 116.203 C 215.393 116.87 199.348 132.619 173.594 132.619 C 173.558 132.619 172.557 132.656 171.075 132.656 C 166.11 132.656 159.217 132.286 154.4 130.507 C 153.437 130.062 151.51 129.358 149.88 129.358 C 149.287 129.358 148.842 129.469 148.694 129.617 C 148.657 129.654 147.953 130.507 148.101 133.508 C 149.954 135.138 153.512 137.992 157.328 140.03 C 159.403 141.252 204.127 167.673 218.394 204.616 C 219.209 206.802 218.505 209.211 216.652 210.619 L 216.652 210.619 L 216.652 210.619 Z " fill-rule="evenodd" fill="rgb(0,0,0)"/><line x1="14.333" y1="246" x2="270.333" y2="246" vector-effect="non-scaling-stroke" stroke-width="20" stroke-dasharray="45,45" stroke="rgb(0,0,0)" stroke-linejoin="miter" stroke-linecap="square" stroke-miterlimit="3"/></g></svg>