<?xml version="1.0" encoding="UTF-8" standalone="no"?><!-- Generator: Gravit.io --><svg xmlns="http://www.w3.org/2000/svg" xmlns:xlink="http://www.w3.org/1999/xlink" style="isolation:isolate" viewBox="0 0 256 256" width="256pt" height="256pt"><defs><clipPath id="_clipPath_5ooxEZYfYAxARO2RixiIhg4fUNFq1bmr"><rect width="256" height="256"/></clipPath></defs><g clip-path="url(#_clipPath_5ooxEZYfYAxARO2RixiIhg4fUNFq1bmr)"><path d=" M 31.39 0 C 14.08 0.065 0.065 14.08 0 31.39 L 0 224.61 C 0.065 241.92 14.08 255.935 31.39 256 L 224.61 256 C 241.92 255.935 255.935 241.92 256 224.61 L 256 59.924 L 196.076 0 L 31.39 0 Z  M 31.39 19.692 L 39.385 19.692 L 39.385 78.769 C 39.385 89.541 48.305 98.462 59.077 98.462 L 177.231 98.462 C 188.002 98.462 196.923 89.541 196.923 78.769 L 196.923 28.692 L 236.308 68.076 L 236.308 224.63 C 236.345 227.742 235.124 230.737 232.922 232.936 C 230.719 235.134 227.722 236.35 224.61 236.308 L 196.923 236.308 L 196.923 177.231 C 196.923 166.459 188.002 157.538 177.231 157.538 L 78.769 157.538 C 67.998 157.538 59.077 166.459 59.077 177.231 L 59.077 236.308 L 31.39 236.308 C 28.274 236.351 25.274 235.132 23.071 232.929 C 20.868 230.726 19.649 227.726 19.692 224.61 L 19.692 31.39 C 19.692 24.773 24.773 19.692 31.39 19.692 Z  M 59.077 19.692 L 118.154 19.692 L 118.154 59.077 L 157.538 59.077 L 157.538 19.692 L 177.231 19.692 L 177.231 78.769 L 59.077 78.769 L 59.077 19.692 Z  M 78.769 177.231 L 177.231 177.231 L 177.231 236.308 L 78.769 236.308 L 78.769 177.231 Z " fill="rgb(0,0,0)"/></g></svg>