<?xml version="1.0" encoding="UTF-8" standalone="no"?><!-- Generator: Gravit.io --><svg xmlns="http://www.w3.org/2000/svg" xmlns:xlink="http://www.w3.org/1999/xlink" style="isolation:isolate" viewBox="0 0 256 256" width="256pt" height="256pt"><defs><clipPath id="_clipPath_fcNq82Rf4DGW5HNGeMZr4BsAl1ykRzJw"><rect width="256" height="256"/></clipPath></defs><g clip-path="url(#_clipPath_fcNq82Rf4DGW5HNGeMZr4BsAl1ykRzJw)"><rect width="256" height="256" style="fill:rgb(19,23,34)" fill-opacity="0"/><path d=" M 180.736 86.852 L 180.736 119.808 L 180.736 119.808 L 247.808 119.808 C 252.329 119.808 256 123.479 256 128 L 256 128 C 256 132.521 252.329 136.192 247.808 136.192 L 224.768 136.192 L 224.768 136.192 L 224.768 169.148 C 236.32 172.66 244.736 183.403 244.736 196.096 C 244.736 211.638 232.118 224.256 216.576 224.256 L 216.576 224.256 C 201.034 224.256 188.416 211.638 188.416 196.096 C 188.416 183.403 196.832 172.66 208.384 169.148 L 208.384 169.148 L 208.384 136.192 L 136.192 136.192 L 136.192 169.148 L 136.192 169.148 C 147.744 172.66 156.16 183.403 156.16 196.096 C 156.16 211.638 143.542 224.256 128 224.256 L 128 224.256 C 112.458 224.256 99.84 211.638 99.84 196.096 C 99.84 183.403 108.256 172.66 119.808 169.148 L 119.808 136.192 L 119.808 136.192 L 48.128 136.192 L 48.128 136.192 L 48.128 169.309 C 59.416 172.979 67.584 183.591 67.584 196.096 L 67.584 196.096 L 67.584 196.096 C 67.584 211.638 54.966 224.256 39.424 224.256 L 39.424 224.256 L 39.424 224.256 L 39.424 224.256 C 23.882 224.256 11.264 211.638 11.264 196.096 L 11.264 196.096 L 11.264 196.096 C 11.264 183.216 19.93 172.344 31.744 168.998 L 31.744 168.998 L 31.744 136.192 L 8.192 136.192 C 3.671 136.192 0 132.521 0 128 L 0 128 L 0 128 C 0 123.479 3.671 119.808 8.192 119.808 L 75.264 119.808 L 75.264 119.808 L 75.264 86.852 L 75.264 86.852 C 63.712 83.34 55.296 72.597 55.296 59.904 C 55.296 44.362 67.914 31.744 83.456 31.744 C 98.998 31.744 111.616 44.362 111.616 59.904 C 111.616 72.597 103.2 83.34 91.648 86.852 L 91.648 86.852 L 91.648 119.808 L 164.352 119.808 L 164.352 86.852 C 152.8 83.34 144.384 72.597 144.384 59.904 C 144.384 44.362 157.002 31.744 172.544 31.744 C 188.086 31.744 200.704 44.362 200.704 59.904 C 200.704 72.597 192.288 83.34 180.736 86.852 L 180.736 86.852 Z  M 51.2 196.096 L 51.2 196.096 C 51.2 189.597 45.923 184.32 39.424 184.32 L 39.424 184.32 L 39.424 184.32 L 39.424 184.32 C 32.925 184.32 27.648 189.597 27.648 196.096 L 27.648 196.096 C 27.648 202.595 32.925 207.872 39.424 207.872 L 39.424 207.872 L 39.424 207.872 L 39.424 207.872 L 39.424 207.872 L 39.424 207.872 L 39.424 207.872 L 39.424 207.872 L 39.424 207.872 C 45.923 207.872 51.2 202.595 51.2 196.096 L 51.2 196.096 L 51.2 196.096 L 51.2 196.096 L 51.2 196.096 Z  M 128 207.872 C 121.501 207.872 116.224 202.595 116.224 196.096 C 116.224 189.597 121.501 184.32 128 184.32 C 134.499 184.32 139.776 189.597 139.776 196.096 C 139.776 202.595 134.499 207.872 128 207.872 L 128 207.872 L 128 207.872 L 128 207.872 L 128 207.872 Z  M 216.576 207.872 C 210.077 207.872 204.8 202.595 204.8 196.096 C 204.8 189.597 210.077 184.32 216.576 184.32 C 223.075 184.32 228.352 189.597 228.352 196.096 C 228.352 202.595 223.075 207.872 216.576 207.872 L 216.576 207.872 L 216.576 207.872 L 216.576 207.872 Z  M 83.456 71.68 C 76.957 71.68 71.68 66.403 71.68 59.904 C 71.68 53.405 76.957 48.128 83.456 48.128 C 89.955 48.128 95.232 53.405 95.232 59.904 C 95.232 66.403 89.955 71.68 83.456 71.68 L 83.456 71.68 L 83.456 71.68 Z  M 172.544 71.68 C 166.045 71.68 160.768 66.403 160.768 59.904 C 160.768 53.405 166.045 48.128 172.544 48.128 C 179.043 48.128 184.32 53.405 184.32 59.904 C 184.32 66.403 179.043 71.68 172.544 71.68 L 172.544 71.68 Z " fill-rule="evenodd" fill="rgb(30,126,235)"/></g></svg>