<?xml version="1.0" encoding="UTF-8" standalone="no"?><!-- Generator: Gravit.io --><svg xmlns="http://www.w3.org/2000/svg" xmlns:xlink="http://www.w3.org/1999/xlink" style="isolation:isolate" viewBox="0 0 256 256" width="256pt" height="256pt"><defs><clipPath id="_clipPath_1x6nyXdKmXjdZxCYZRH7inlggk06qJXI"><rect width="256" height="256"/></clipPath></defs><g clip-path="url(#_clipPath_1x6nyXdKmXjdZxCYZRH7inlggk06qJXI)"><rect width="256" height="256" style="fill:rgb(19,23,34)" fill-opacity="0"/><path d=" M 169.148 180.736 L 136.192 180.736 L 136.192 180.736 L 136.192 247.808 C 136.192 252.329 132.521 256 128 256 L 128 256 C 123.479 256 119.808 252.329 119.808 247.808 L 119.808 224.768 L 119.808 224.768 L 86.852 224.768 C 83.34 236.32 72.597 244.736 59.904 244.736 C 44.362 244.736 31.744 232.118 31.744 216.576 L 31.744 216.576 C 31.744 201.034 44.362 188.416 59.904 188.416 C 72.597 188.416 83.34 196.832 86.852 208.384 L 86.852 208.384 L 119.808 208.384 L 119.808 136.192 L 86.852 136.192 L 86.852 136.192 C 83.34 147.744 72.597 156.16 59.904 156.16 C 44.362 156.16 31.744 143.542 31.744 128 L 31.744 128 C 31.744 112.458 44.362 99.84 59.904 99.84 C 72.597 99.84 83.34 108.256 86.852 119.808 L 119.808 119.808 L 119.808 119.808 L 119.808 48.128 L 119.808 48.128 L 86.691 48.128 C 83.021 59.416 72.409 67.584 59.904 67.584 L 59.904 67.584 L 59.904 67.584 C 44.362 67.584 31.744 54.966 31.744 39.424 L 31.744 39.424 L 31.744 39.424 L 31.744 39.424 C 31.744 23.882 44.362 11.264 59.904 11.264 L 59.904 11.264 L 59.904 11.264 C 72.784 11.264 83.656 19.93 87.002 31.744 L 87.002 31.744 L 119.808 31.744 L 119.808 8.192 C 119.808 3.671 123.479 0 128 0 L 128 0 L 128 0 C 132.521 0 136.192 3.671 136.192 8.192 L 136.192 75.264 L 136.192 75.264 L 169.148 75.264 L 169.148 75.264 C 172.66 63.712 183.403 55.296 196.096 55.296 C 211.638 55.296 224.256 67.914 224.256 83.456 C 224.256 98.998 211.638 111.616 196.096 111.616 C 183.403 111.616 172.66 103.2 169.148 91.648 L 169.148 91.648 L 136.192 91.648 L 136.192 164.352 L 169.148 164.352 C 172.66 152.8 183.403 144.384 196.096 144.384 C 211.638 144.384 224.256 157.002 224.256 172.544 C 224.256 188.086 211.638 200.704 196.096 200.704 C 183.403 200.704 172.66 192.288 169.148 180.736 L 169.148 180.736 Z  M 59.904 51.2 L 59.904 51.2 C 66.403 51.2 71.68 45.923 71.68 39.424 L 71.68 39.424 L 71.68 39.424 L 71.68 39.424 C 71.68 32.925 66.403 27.648 59.904 27.648 L 59.904 27.648 C 53.405 27.648 48.128 32.925 48.128 39.424 L 48.128 39.424 L 48.128 39.424 L 48.128 39.424 L 48.128 39.424 L 48.128 39.424 L 48.128 39.424 L 48.128 39.424 L 48.128 39.424 C 48.128 45.923 53.405 51.2 59.904 51.2 L 59.904 51.2 L 59.904 51.2 L 59.904 51.2 L 59.904 51.2 Z  M 48.128 128 C 48.128 121.501 53.405 116.224 59.904 116.224 C 66.403 116.224 71.68 121.501 71.68 128 C 71.68 134.499 66.403 139.776 59.904 139.776 C 53.405 139.776 48.128 134.499 48.128 128 L 48.128 128 L 48.128 128 L 48.128 128 L 48.128 128 Z  M 48.128 216.576 C 48.128 210.077 53.405 204.8 59.904 204.8 C 66.403 204.8 71.68 210.077 71.68 216.576 C 71.68 223.075 66.403 228.352 59.904 228.352 C 53.405 228.352 48.128 223.075 48.128 216.576 L 48.128 216.576 L 48.128 216.576 L 48.128 216.576 Z  M 184.32 83.456 C 184.32 76.957 189.597 71.68 196.096 71.68 C 202.595 71.68 207.872 76.957 207.872 83.456 C 207.872 89.955 202.595 95.232 196.096 95.232 C 189.597 95.232 184.32 89.955 184.32 83.456 L 184.32 83.456 L 184.32 83.456 Z  M 184.32 172.544 C 184.32 166.045 189.597 160.768 196.096 160.768 C 202.595 160.768 207.872 166.045 207.872 172.544 C 207.872 179.043 202.595 184.32 196.096 184.32 C 189.597 184.32 184.32 179.043 184.32 172.544 L 184.32 172.544 Z " fill-rule="evenodd" fill="rgb(30,126,235)"/></g></svg>