<?xml version="1.0" encoding="UTF-8" standalone="no"?>
<svg
   style="isolation:isolate"
   viewBox="0 0 512 512"
   width="512pt"
   height="512pt"
   version="1.1"
   xmlns="http://www.w3.org/2000/svg"
   xmlns:svg="http://www.w3.org/2000/svg">
  <path
        d=" M 166.149 0.009 C 158.748 52.853 130.195 97.698 65.349 162.544 L 58.243 169.65 L 63.815 178.012 C 128.149 274.497 231.636 486.999 243.734 511.991 L 243.734 197.216 C 243.734 196.314 244.063 195.517 244.245 194.677 C 239.436 193.057 235.061 190.359 231.454 186.791 C 220.928 176.276 218.552 160.099 225.611 147.002 C 232.669 133.905 247.487 126.994 262.058 130.004 C 276.628 133.014 287.495 145.232 288.785 160.054 C 290.075 174.876 281.482 188.787 267.651 194.269 C 267.894 195.24 268.24 196.176 268.24 197.216 L 268.249 512 C 280.312 487.095 383.842 274.514 448.177 178.012 L 453.757 169.659 L 446.651 162.553 C 381.805 97.707 353.243 52.853 345.851 0 L 166.149 0.009 Z "
        fill="#1e7eeb" />
</svg>
