<svg width="100%" height="100%" viewBox="0 0 1280 800" version="1.1" xmlns="http://www.w3.org/2000/svg" xmlns:xlink="http://www.w3.org/1999/xlink" xml:space="preserve" xmlns:serif="http://www.serif.com/" style="fill-rule:evenodd;clip-rule:evenodd;stroke-linecap:square;stroke-miterlimit:3;">
  <defs>
    <clipPath id="_clipPath_q4GrzeM6u57zLE6lEYIworiaYcI0MInn">
      <rect width="1280" height="800"/>
    </clipPath>
  </defs>
  <g clip-path="url(#_clipPath_q4GrzeM6u57zLE6lEYIworiaYcI0MInn)">
    <rect x="0" y="0" width="1280" height="800" style="fill:rgb(135,27,208);"/>
    <g>
        <path class="backwave" d="M2065.83,900.635L1652.67,900.635L1239.5,900.635L826.333,900.635L413.167,900.635L0,900.635L0,666.466C87.657,666.466 105.578,726.281 206.583,726.281C307.588,726.281 325.51,666.466 413.167,666.466C500.824,666.466 518.745,726.281 619.75,726.281C720.755,726.281 738.676,666.466 826.333,666.466C913.99,666.466 931.912,726.281 1032.92,726.281C1133.92,726.281 1151.84,666.466 1239.5,666.466C1327.16,666.466 1345.08,726.281 1446.08,726.281C1547.09,726.281 1565.01,666.466 1652.67,666.466C1740.32,666.466 1758.25,726.281 1859.25,726.281C1960.26,726.281 1978.18,666.466 2065.83,666.466C2153.49,666.466 2171.41,726.281 2272.42,726.281C2373.42,726.281 2391.34,666.466 2479,666.466L2479,900.635L2065.83,900.635Z" style="fill:white;fill-opacity:0.58;fill-rule:nonzero;"/>
        <path class="frontwave" d="M2634.66,1133.21L1739.32,1133.21L843.986,1133.21L-51.352,1133.21L-946.691,1133.21L-1842.03,1133.21L-1842.03,625.762C-1652.08,625.762 -1613.24,755.382 -1394.36,755.382C-1175.48,755.382 -1136.64,625.762 -946.691,625.762C-756.737,625.762 -717.901,755.382 -499.022,755.382C-280.142,755.382 -241.306,625.762 -51.352,625.762C138.601,625.762 177.437,755.382 396.317,755.382C615.196,755.382 654.032,625.762 843.986,625.762C1033.94,625.762 1072.78,755.382 1291.65,755.382C1510.53,755.382 1549.37,625.762 1739.32,625.762C1929.28,625.762 1968.11,755.382 2186.99,755.382C2405.87,755.382 2444.71,625.762 2634.66,625.762C2824.62,625.762 2863.45,755.382 3082.33,755.382C3301.21,755.382 3340.05,625.762 3530,625.762L3530,1133.21L2634.66,1133.21Z" style="fill:white;fill-rule:nonzero;"/>
    </g>
    <g>
        <path d="M291.853,236.92C291.853,231.619 289.724,227.36 285.465,224.143C281.206,220.926 274.787,218.41 266.21,216.593C257.633,214.776 250.976,212.692 246.241,210.339C241.505,207.986 237.991,205.112 235.698,201.717C233.405,198.322 232.258,194.211 232.258,189.386C232.258,181.762 235.445,175.463 241.818,170.489C248.191,165.516 256.352,163.029 266.299,163.029C277.081,163.029 285.733,165.694 292.255,171.025C298.778,176.356 302.039,183.311 302.039,191.888L291.317,191.888C291.317,186.229 288.949,181.524 284.214,177.771C279.479,174.018 273.507,172.142 266.299,172.142C259.27,172.142 253.627,173.706 249.368,176.833C245.109,179.96 242.979,184.026 242.979,189.029C242.979,193.854 244.751,197.591 248.296,200.242C251.84,202.893 258.303,205.32 267.684,207.524C277.066,209.728 284.095,212.081 288.771,214.583C293.447,217.084 296.917,220.092 299.18,223.607C301.443,227.122 302.575,231.381 302.575,236.384C302.575,244.545 299.284,251.067 292.702,255.951C286.12,260.836 277.528,263.278 266.925,263.278C255.667,263.278 246.539,260.553 239.54,255.102C232.541,249.652 229.041,242.757 229.041,234.418L239.763,234.418C240.18,240.673 242.815,245.542 247.67,249.027C252.525,252.512 258.943,254.254 266.925,254.254C274.37,254.254 280.386,252.616 284.973,249.339C289.56,246.063 291.853,241.923 291.853,236.92ZM409.168,213.689L409.168,212.26C409.168,197.13 412.519,185.142 419.22,176.297C425.921,167.452 435.019,163.029 446.516,163.029C459.68,163.029 469.687,168.271 476.537,178.754L477.073,164.816L487.08,164.816L487.08,259.525C487.08,271.974 483.595,281.832 476.626,289.099C469.657,296.366 460.216,300 448.303,300C441.572,300 435.153,298.496 429.048,295.488C422.943,292.48 418.133,288.474 414.618,283.471L420.605,277.037C428.17,286.33 437.164,290.976 447.588,290.976C456.523,290.976 463.492,288.34 468.495,283.068C473.499,277.797 476.09,270.485 476.269,261.133L476.269,248.982C469.419,258.513 459.442,263.278 446.337,263.278C435.138,263.278 426.144,258.81 419.354,249.875C412.563,240.94 409.168,228.878 409.168,213.689ZM419.979,214.136C419.979,226.466 422.451,236.19 427.395,243.308C432.339,250.426 439.308,253.985 448.303,253.985C461.467,253.985 470.789,248.088 476.269,236.294L476.269,191.352C473.767,185.157 470.163,180.437 465.458,177.19C460.752,173.944 455.093,172.321 448.481,172.321C439.487,172.321 432.488,175.85 427.484,182.909C422.481,189.967 419.979,200.376 419.979,214.136ZM517.458,131.399L532.022,131.399L580.002,246.212L628.161,131.399L642.814,131.399L642.814,261.491L631.825,261.491L631.825,204.844L632.718,146.767L584.291,261.491L575.803,261.491L527.555,147.214L528.448,204.486L528.448,261.491L517.458,261.491L517.458,131.399ZM667.385,213.868L667.385,211.724C667.385,202.431 669.187,194.062 672.791,186.617C676.395,179.171 681.488,173.378 688.07,169.238C694.652,165.099 702.112,163.029 710.451,163.029C723.318,163.029 733.742,167.541 741.723,176.565C749.705,185.589 753.696,197.547 753.696,212.438L753.696,214.672C753.696,224.024 751.894,232.438 748.291,239.913C744.687,247.388 739.609,253.151 733.057,257.202C726.504,261.253 719.029,263.278 710.63,263.278C697.823,263.278 687.414,258.766 679.403,249.741C671.391,240.717 667.385,228.759 667.385,213.868ZM678.107,212.706L678.107,214.672C678.107,226.228 681.1,235.714 687.087,243.13C693.073,250.546 700.921,254.254 710.63,254.254C720.28,254.254 728.098,250.546 734.084,243.13C740.071,235.714 743.064,225.93 743.064,213.779L743.064,211.724C743.064,204.337 741.694,197.576 738.954,191.441C736.214,185.306 732.372,180.556 727.428,177.19C722.484,173.825 716.825,172.142 710.451,172.142C700.921,172.142 693.148,175.88 687.131,183.355C681.115,190.831 678.107,200.615 678.107,212.706ZM781.662,140.066L792.384,140.066L792.384,164.816L812.398,164.816L812.398,173.572L792.384,173.572L792.384,237.992C792.384,243.353 793.352,247.344 795.288,249.965C797.224,252.586 800.455,253.896 804.982,253.896C806.769,253.896 809.658,253.598 813.649,253.003L814.096,261.759C811.296,262.772 807.484,263.278 802.659,263.278C795.332,263.278 790.001,261.148 786.666,256.889C783.33,252.63 781.662,246.361 781.662,238.081L781.662,173.572L763.882,173.572L763.882,164.816L781.662,164.816L781.662,140.066ZM846.529,164.816L846.529,261.491L835.807,261.491L835.807,164.816L846.529,164.816ZM833.931,136.849C833.931,134.824 834.586,133.112 835.897,131.712C837.207,130.312 838.994,129.612 841.258,129.612C843.521,129.612 845.323,130.312 846.663,131.712C848.004,133.112 848.674,134.824 848.674,136.849C848.674,138.874 848.004,140.572 846.663,141.942C845.323,143.312 843.521,143.997 841.258,143.997C838.994,143.997 837.207,143.312 835.897,141.942C834.586,140.572 833.931,138.874 833.931,136.849ZM869.671,213.868L869.671,211.724C869.671,202.431 871.473,194.062 875.076,186.617C878.68,179.171 883.773,173.378 890.355,169.238C896.937,165.099 904.398,163.029 912.737,163.029C925.603,163.029 936.027,167.541 944.009,176.565C951.99,185.589 955.981,197.547 955.981,212.438L955.981,214.672C955.981,224.024 954.179,232.438 950.576,239.913C946.972,247.388 941.894,253.151 935.342,257.202C928.789,261.253 921.314,263.278 912.915,263.278C900.108,263.278 889.699,258.766 881.688,249.741C873.677,240.717 869.671,228.759 869.671,213.868ZM880.392,212.706L880.392,214.672C880.392,226.228 883.385,235.714 889.372,243.13C895.358,250.546 903.206,254.254 912.915,254.254C922.565,254.254 930.383,250.546 936.369,243.13C942.356,235.714 945.349,225.93 945.349,213.779L945.349,211.724C945.349,204.337 943.979,197.576 941.239,191.441C938.499,185.306 934.657,180.556 929.713,177.19C924.769,173.825 919.11,172.142 912.737,172.142C903.206,172.142 895.433,175.88 889.417,183.355C883.4,190.831 880.392,200.615 880.392,212.706ZM978.05,164.816L988.236,164.816L988.594,181.345C992.227,175.388 996.754,170.846 1002.18,167.719C1007.6,164.592 1013.58,163.029 1020.13,163.029C1030.5,163.029 1038.21,165.948 1043.28,171.785C1048.34,177.622 1050.9,186.378 1050.96,198.053L1050.96,261.491L1040.33,261.491L1040.33,197.964C1040.27,189.327 1038.43,182.894 1034.83,178.665C1031.23,174.436 1025.46,172.321 1017.54,172.321C1010.93,172.321 1005.08,174.391 999.986,178.531C994.893,182.67 991.125,188.254 988.683,195.283L988.683,261.491L978.05,261.491L978.05,164.816Z" style="fill:white;fill-rule:nonzero;"/>
        <g class="pen">
          <path d="M343.305,185.361C342.125,193.062 337.862,199.673 328.368,209.166L327.312,210.222L328.14,211.466C337.708,225.814 353.097,257.416 354.896,261.132L354.896,214.322C354.896,214.188 354.945,214.069 354.972,213.944C354.257,213.703 353.606,213.302 353.07,212.772C351.505,211.208 351.151,208.802 352.201,206.855C353.251,204.907 355.454,203.879 357.621,204.327C359.788,204.774 361.404,206.591 361.596,208.795C361.787,211 360.51,213.068 358.453,213.884C358.489,214.028 358.54,214.167 358.54,214.322L358.542,261.133C360.336,257.43 375.732,225.817 385.299,211.466L386.129,210.224L385.072,209.167C375.579,199.674 371.315,193.063 370.136,185.361L372.391,185.361L375.696,164.816L337.744,164.816L341.05,185.361L343.305,185.361Z" style="fill:white;fill-rule:nonzero;"/>
<!--          <path d="M356.438,185.274L356.438,0" stroke="#fff" stroke-width="8.22px"/>-->
          <line x1="356.438" y1="185.274" x2="356.438" y2="0" stroke-width="16.44" stroke="rgb(255,255,255)" stroke-opacity="100" stroke-linejoin="miter" stroke-linecap="square" stroke-miterlimit="3"></line>
        </g>
    </g>
    <g>
        <rect x="992.75" y="438.797" width="4.219" height="54" style="fill:white;"/>
        <path d="M949.613,474.059L949.613,473.215C949.613,469.558 950.322,466.265 951.74,463.336C953.158,460.406 955.162,458.127 957.752,456.498C960.342,454.869 963.278,454.055 966.559,454.055C971.621,454.055 975.722,455.83 978.863,459.381C982.004,462.932 983.574,467.637 983.574,473.496L983.574,474.375C983.574,478.055 982.865,481.366 981.447,484.307C980.029,487.248 978.031,489.516 975.453,491.109C972.875,492.703 969.934,493.5 966.629,493.5C961.59,493.5 957.494,491.725 954.342,488.174C951.189,484.623 949.613,479.918 949.613,474.059ZM953.832,473.602L953.832,474.375C953.832,478.922 955.01,482.654 957.365,485.572C959.72,488.49 962.808,489.949 966.629,489.949C970.426,489.949 973.502,488.49 975.857,485.572C978.213,482.654 979.391,478.804 979.391,474.023L979.391,473.215C979.391,470.308 978.852,467.648 977.773,465.234C976.695,462.82 975.183,460.951 973.238,459.627C971.293,458.303 969.066,457.641 966.559,457.641C962.809,457.641 959.75,459.112 957.383,462.053C955.016,464.994 953.832,468.844 953.832,473.602Z" style="fill:white;fill-rule:nonzero;"/>
        <path d="M909.289,474.059L909.289,473.215C909.289,469.558 909.998,466.265 911.416,463.336C912.834,460.406 914.838,458.127 917.428,456.498C920.018,454.869 922.953,454.055 926.234,454.055C931.297,454.055 935.398,455.83 938.539,459.381C941.68,462.932 943.25,467.637 943.25,473.496L943.25,474.375C943.25,478.055 942.541,481.366 941.123,484.307C939.705,487.248 937.707,489.516 935.129,491.109C932.551,492.703 929.61,493.5 926.305,493.5C921.266,493.5 917.17,491.725 914.018,488.174C910.865,484.623 909.289,479.918 909.289,474.059ZM913.508,473.602L913.508,474.375C913.508,478.922 914.686,482.654 917.041,485.572C919.396,488.49 922.484,489.949 926.305,489.949C930.102,489.949 933.178,488.49 935.533,485.572C937.888,482.654 939.066,478.804 939.066,474.023L939.066,473.215C939.066,470.308 938.527,467.648 937.449,465.234C936.371,462.82 934.859,460.951 932.914,459.627C930.969,458.303 928.742,457.641 926.234,457.641C922.484,457.641 919.426,459.112 917.059,462.053C914.692,464.994 913.508,468.844 913.508,473.602Z" style="fill:white;fill-rule:nonzero;"/>
        <path d="M891.5,445.02L895.719,445.02L895.719,454.758L903.594,454.758L903.594,458.203L895.719,458.203L895.719,483.551C895.719,485.66 896.1,487.231 896.861,488.262C897.623,489.293 898.895,489.809 900.676,489.809C901.379,489.809 902.515,489.692 904.086,489.457L904.262,492.902C903.16,493.301 901.66,493.5 899.762,493.5C896.879,493.5 894.782,492.662 893.469,490.986C892.156,489.311 891.5,486.844 891.5,483.586L891.5,458.203L884.504,458.203L884.504,454.758L891.5,454.758L891.5,445.02Z" style="fill:white;fill-rule:nonzero;"/>
        <path d="M832.121,454.758L836.129,454.758L836.27,461.262C837.699,458.918 839.48,457.131 841.613,455.9C843.746,454.67 846.102,454.055 848.68,454.055C852.758,454.055 855.793,455.203 857.785,457.5C859.777,459.797 860.785,463.242 860.809,467.836L860.809,492.797L856.625,492.797L856.625,467.801C856.602,464.402 855.881,461.871 854.463,460.207C853.045,458.543 850.777,457.711 847.66,457.711C845.059,457.711 842.756,458.525 840.752,460.154C838.748,461.783 837.266,463.981 836.305,466.746L836.305,492.797L832.121,492.797L832.121,454.758Z" style="fill:white;fill-rule:nonzero;"/>
        <path d="M789.477,474.059L789.477,473.215C789.477,469.558 790.186,466.265 791.604,463.336C793.021,460.406 795.025,458.127 797.615,456.498C800.205,454.869 803.141,454.055 806.422,454.055C811.485,454.055 815.586,455.83 818.727,459.381C821.868,462.932 823.438,467.637 823.438,473.496L823.438,474.375C823.438,478.055 822.729,481.366 821.311,484.307C819.893,487.248 817.895,489.516 815.316,491.109C812.738,492.703 809.797,493.5 806.492,493.5C801.453,493.5 797.358,491.725 794.205,488.174C791.053,484.623 789.477,479.918 789.477,474.059ZM793.695,473.602L793.695,474.375C793.695,478.922 794.873,482.654 797.229,485.572C799.584,488.49 802.672,489.949 806.492,489.949C810.289,489.949 813.366,488.49 815.721,485.572C818.076,482.654 819.254,478.804 819.254,474.023L819.254,473.215C819.254,470.308 818.715,467.648 817.637,465.234C816.559,462.82 815.047,460.951 813.102,459.627C811.157,458.303 808.93,457.641 806.422,457.641C802.672,457.641 799.613,459.112 797.246,462.053C794.879,464.994 793.695,468.844 793.695,473.602Z" style="fill:white;fill-rule:nonzero;"/>
        <path d="M780.371,454.758L780.371,492.797L776.152,492.797L776.152,454.758L780.371,454.758ZM775.414,443.754C775.414,442.957 775.672,442.283 776.188,441.732C776.703,441.181 777.406,440.906 778.297,440.906C779.188,440.906 779.897,441.181 780.424,441.732C780.951,442.283 781.215,442.957 781.215,443.754C781.215,444.551 780.951,445.219 780.424,445.758C779.897,446.297 779.188,446.566 778.297,446.566C777.406,446.566 776.703,446.297 776.188,445.758C775.672,445.219 775.414,444.551 775.414,443.754Z" style="fill:white;fill-rule:nonzero;"/>
        <path d="M754.848,445.02L759.066,445.02L759.066,454.758L766.941,454.758L766.941,458.203L759.066,458.203L759.066,483.551C759.066,485.66 759.447,487.231 760.209,488.262C760.971,489.293 762.242,489.809 764.023,489.809C764.726,489.809 765.863,489.692 767.434,489.457L767.609,492.902C766.508,493.301 765.008,493.5 763.109,493.5C760.226,493.5 758.129,492.662 756.816,490.986C755.504,489.311 754.848,486.844 754.848,483.586L754.848,458.203L747.852,458.203L747.852,454.758L754.848,454.758L754.848,445.02Z" style="fill:white;fill-rule:nonzero;"/>
        <path d="M742.473,492.797L737.973,492.797C737.551,491.602 737.281,489.832 737.164,487.488C735.687,489.41 733.806,490.893 731.521,491.936C729.236,492.979 726.817,493.5 724.262,493.5C720.605,493.5 717.646,492.48 715.385,490.441C713.123,488.402 711.992,485.824 711.992,482.707C711.992,479.004 713.533,476.074 716.615,473.918C719.697,471.762 723.992,470.684 729.5,470.684L737.129,470.684L737.129,466.359C737.129,463.64 736.291,461.502 734.615,459.943C732.94,458.384 730.496,457.605 727.285,457.605C724.356,457.605 721.93,458.355 720.008,459.855C718.086,461.355 717.125,463.16 717.125,465.27L712.906,465.234C712.906,462.211 714.312,459.592 717.125,457.377C719.938,455.162 723.395,454.055 727.496,454.055C731.738,454.055 735.084,455.115 737.533,457.236C739.982,459.357 741.242,462.316 741.313,466.113L741.313,484.113C741.313,487.793 741.7,490.547 742.473,492.375L742.473,492.797ZM724.754,489.773C727.567,489.773 730.08,489.093 732.295,487.734C734.51,486.375 736.121,484.558 737.129,482.285L737.129,473.918L729.605,473.918C725.41,473.965 722.129,474.732 719.762,476.221C717.395,477.709 716.211,479.754 716.211,482.355C716.211,484.488 717.002,486.258 718.584,487.664C720.166,489.07 722.223,489.773 724.754,489.773Z" style="fill:white;fill-rule:nonzero;"/>
        <path d="M649.941,454.758L653.984,454.758L654.125,460.945C655.531,458.648 657.289,456.926 659.398,455.777C661.508,454.629 663.852,454.055 666.43,454.055C672.43,454.055 676.238,456.516 677.855,461.438C679.215,459.071 681.032,457.248 683.305,455.971C685.578,454.694 688.086,454.055 690.828,454.055C698.985,454.055 703.145,458.508 703.309,467.414L703.309,492.797L699.09,492.797L699.09,467.73C699.067,464.332 698.334,461.813 696.893,460.172C695.451,458.531 693.101,457.711 689.844,457.711C686.821,457.758 684.266,458.736 682.18,460.646C680.094,462.557 678.934,464.883 678.699,467.625L678.699,492.797L674.48,492.797L674.48,467.414C674.457,464.156 673.689,461.724 672.178,460.119C670.666,458.514 668.34,457.711 665.199,457.711C662.551,457.711 660.278,458.467 658.379,459.979C656.48,461.49 655.074,463.734 654.16,466.711L654.16,492.797L649.941,492.797L649.941,454.758Z" style="fill:white;fill-rule:nonzero;"/>
        <path d="M638.727,454.758L638.727,492.797L634.508,492.797L634.508,454.758L638.727,454.758ZM633.77,443.754C633.77,442.957 634.028,442.283 634.543,441.732C635.058,441.181 635.761,440.906 636.652,440.906C637.543,440.906 638.252,441.181 638.779,441.732C639.306,442.283 639.57,442.957 639.57,443.754C639.57,444.551 639.306,445.219 638.779,445.758C638.252,446.297 637.543,446.566 636.652,446.566C635.761,446.566 635.058,446.297 634.543,445.758C634.028,445.219 633.77,444.551 633.77,443.754Z" style="fill:white;fill-rule:nonzero;"/>
        <path d="M594.465,454.758L598.473,454.758L598.613,461.262C600.043,458.918 601.824,457.131 603.957,455.9C606.09,454.67 608.445,454.055 611.023,454.055C615.102,454.055 618.137,455.203 620.129,457.5C622.121,459.797 623.129,463.242 623.152,467.836L623.152,492.797L618.969,492.797L618.969,467.801C618.946,464.402 618.225,461.871 616.807,460.207C615.389,458.543 613.121,457.711 610.004,457.711C607.403,457.711 605.1,458.525 603.096,460.154C601.092,461.783 599.609,463.981 598.648,466.746L598.648,492.797L594.465,492.797L594.465,454.758Z" style="fill:white;fill-rule:nonzero;"/>
        <path d="M584.41,492.797L579.91,492.797C579.488,491.602 579.219,489.832 579.102,487.488C577.625,489.41 575.744,490.893 573.459,491.936C571.174,492.979 568.754,493.5 566.199,493.5C562.543,493.5 559.584,492.48 557.322,490.441C555.061,488.402 553.93,485.824 553.93,482.707C553.93,479.004 555.471,476.074 558.553,473.918C561.635,471.762 565.93,470.684 571.438,470.684L579.066,470.684L579.066,466.359C579.066,463.64 578.228,461.502 576.553,459.943C574.877,458.384 572.434,457.605 569.223,457.605C566.293,457.605 563.867,458.355 561.945,459.855C560.024,461.355 559.063,463.16 559.063,465.27L554.844,465.234C554.844,462.211 556.25,459.592 559.063,457.377C561.875,455.162 565.332,454.055 569.434,454.055C573.676,454.055 577.022,455.115 579.471,457.236C581.92,459.357 583.18,462.316 583.25,466.113L583.25,484.113C583.25,487.793 583.637,490.547 584.41,492.375L584.41,492.797ZM566.691,489.773C569.504,489.773 572.017,489.093 574.232,487.734C576.447,486.375 578.059,484.558 579.066,482.285L579.066,473.918L571.543,473.918C567.348,473.965 564.066,474.732 561.699,476.221C559.332,477.709 558.148,479.754 558.148,482.355C558.148,484.488 558.939,486.258 560.521,487.664C562.104,489.07 564.16,489.773 566.691,489.773Z" style="fill:white;fill-rule:nonzero;"/>
        <path d="M531.852,454.512L531.746,458.344C530.855,458.18 529.906,458.098 528.898,458.098C526.273,458.098 524.053,458.83 522.236,460.295C520.42,461.76 519.125,463.887 518.352,466.676L518.352,492.797L514.168,492.797L514.168,454.758L518.281,454.758L518.352,460.805C520.578,456.305 524.152,454.055 529.074,454.055C530.246,454.055 531.172,454.207 531.852,454.512Z" style="fill:white;fill-rule:nonzero;"/>
        <path d="M471.523,474.059L471.523,473.215C471.523,469.558 472.232,466.265 473.65,463.336C475.068,460.406 477.072,458.127 479.662,456.498C482.252,454.869 485.188,454.055 488.469,454.055C493.532,454.055 497.633,455.83 500.773,459.381C503.914,462.932 505.484,467.637 505.484,473.496L505.484,474.375C505.484,478.055 504.775,481.366 503.357,484.307C501.939,487.248 499.941,489.516 497.363,491.109C494.785,492.703 491.844,493.5 488.539,493.5C483.5,493.5 479.404,491.725 476.252,488.174C473.099,484.623 471.523,479.918 471.523,474.059ZM475.742,473.602L475.742,474.375C475.742,478.922 476.92,482.654 479.275,485.572C481.631,488.49 484.719,489.949 488.539,489.949C492.336,489.949 495.412,488.49 497.768,485.572C500.123,482.654 501.301,478.804 501.301,474.023L501.301,473.215C501.301,470.308 500.762,467.648 499.684,465.234C498.605,462.82 497.093,460.951 495.148,459.627C493.203,458.303 490.976,457.641 488.469,457.641C484.719,457.641 481.66,459.112 479.293,462.053C476.926,464.994 475.742,468.844 475.742,473.602Z" style="fill:white;fill-rule:nonzero;"/>
        <path d="M453.734,445.02L457.953,445.02L457.953,454.758L465.828,454.758L465.828,458.203L457.953,458.203L457.953,483.551C457.953,485.66 458.334,487.231 459.096,488.262C459.857,489.293 461.129,489.809 462.91,489.809C463.613,489.809 464.75,489.692 466.32,489.457L466.496,492.902C465.395,493.301 463.895,493.5 461.996,493.5C459.113,493.5 457.016,492.662 455.703,490.986C454.39,489.311 453.734,486.844 453.734,483.586L453.734,458.203L446.738,458.203L446.738,454.758L453.734,454.758L453.734,445.02Z" style="fill:white;fill-rule:nonzero;"/>
        <path d="M428.387,489.949C431.316,489.949 433.771,489.123 435.752,487.471C437.733,485.818 438.805,483.68 438.969,481.055L443.012,481.055C442.895,483.375 442.168,485.49 440.832,487.4C439.496,489.311 437.721,490.805 435.506,491.883C433.291,492.961 430.918,493.5 428.387,493.5C423.394,493.5 419.439,491.766 416.521,488.297C413.604,484.828 412.145,480.164 412.145,474.305L412.145,473.039C412.145,469.289 412.801,465.973 414.113,463.09C415.426,460.207 417.307,457.981 419.756,456.41C422.205,454.84 425.071,454.055 428.352,454.055C432.523,454.055 435.963,455.297 438.67,457.781C441.377,460.266 442.824,463.535 443.012,467.59L438.969,467.59C438.782,464.613 437.709,462.211 435.752,460.383C433.795,458.555 431.328,457.641 428.352,457.641C424.555,457.641 421.607,459.012 419.51,461.754C417.412,464.496 416.363,468.34 416.363,473.285L416.363,474.516C416.363,479.367 417.412,483.152 419.51,485.871C421.607,488.59 424.566,489.949 428.387,489.949Z" style="fill:white;fill-rule:nonzero;"/>
        <path d="M391.859,493.5C388.625,493.5 385.701,492.703 383.088,491.109C380.475,489.516 378.441,487.295 376.988,484.447C375.535,481.6 374.809,478.406 374.809,474.867L374.809,473.355C374.809,469.699 375.518,466.406 376.936,463.477C378.354,460.547 380.328,458.244 382.859,456.568C385.39,454.893 388.133,454.055 391.086,454.055C395.703,454.055 399.365,455.631 402.072,458.783C404.779,461.936 406.133,466.242 406.133,471.703L406.133,474.059L378.992,474.059L378.992,474.867C378.992,479.18 380.228,482.772 382.701,485.643C385.174,488.514 388.285,489.949 392.035,489.949C394.285,489.949 396.271,489.539 397.994,488.719C399.717,487.898 401.281,486.586 402.688,484.781L405.324,486.785C402.231,491.262 397.742,493.5 391.859,493.5ZM391.086,457.641C387.922,457.641 385.256,458.801 383.088,461.121C380.92,463.442 379.602,466.559 379.133,470.473L401.949,470.473L401.949,470.016C401.832,466.359 400.789,463.383 398.82,461.086C396.851,458.789 394.273,457.641 391.086,457.641Z" style="fill:white;fill-rule:nonzero;"/>
        <path d="M343.133,454.758L354.805,486.996L366.371,454.758L370.695,454.758L356.492,492.797L353.082,492.797L338.809,454.758L343.133,454.758Z" style="fill:white;fill-rule:nonzero;"/>
        <path d="M314.41,492.797L309.102,478.453L285.863,478.453L280.59,492.797L276.055,492.797L295.426,441.609L299.539,441.609L318.91,492.797L314.41,492.797ZM297.465,446.883L287.199,474.762L307.73,474.762L297.465,446.883Z" style="fill:white;fill-rule:nonzero;"/>
    </g>
  </g>
</svg>