<?xml version="1.0" encoding="UTF-8" standalone="no"?>
<!-- Generator: Gravit.io -->

<svg
   style="isolation:isolate"
   viewBox="0 0 512 512"
   width="512pt"
   height="512pt"
   version="1.1"
   id="svg27"
   xmlns="http://www.w3.org/2000/svg"
   xmlns:svg="http://www.w3.org/2000/svg">
  <defs
     id="defs5">
    <clipPath
       id="_clipPath_8awORL9QosgWkelytpt180td0f15gYGL">
      <rect
         width="512"
         height="512"
         id="rect2" />
    </clipPath>
  </defs>
  <g
     clip-path="url(#_clipPath_8awORL9QosgWkelytpt180td0f15gYGL)"
     id="g25">
    <g
       id="g23">
      <linearGradient
         id="_lgradient_5"
         x1="0"
         y1="1.1102230246251565e-16"
         x2="1"
         y2="0.9999999999999999"
         gradientTransform="matrix(512,0,0,512,0,0)"
         gradientUnits="userSpaceOnUse">
        <stop
           offset="1.3043478260869565%"
           stop-opacity="1"
           style="stop-color:rgb(153,0,255)"
           id="stop7" />
        <stop
           offset="97.82608695652173%"
           stop-opacity="1"
           style="stop-color:rgb(93,93,93)"
           id="stop9" />
      </linearGradient>
      <g
         id="g21">
        <linearGradient
           id="_lgradient_6"
           x1="0.8509136851168925"
           y1="0.14906228977084124"
           x2="2.220446049250313e-16"
           y2="1.0000000000000004"
           gradientTransform="matrix(307.054,-307.054,307.046,307.046,-51.05,217.208)"
           gradientUnits="userSpaceOnUse">
          <stop
             offset="1.7391304347826086%"
             stop-opacity="1"
             style="stop-color:rgb(255,193,7)"
             id="stop14" />
          <stop
             offset="99.1304347826087%"
             stop-opacity="1"
             style="stop-color:rgb(255,240,194)"
             id="stop16" />
        </linearGradient>
        <path
           d=" M 166.149 0.009 C 158.748 52.853 130.195 97.698 65.349 162.544 L 58.243 169.65 L 63.815 178.012 C 128.149 274.497 231.636 486.999 243.734 511.991 L 243.734 197.216 C 243.734 196.314 244.063 195.517 244.245 194.677 C 239.436 193.057 235.061 190.359 231.454 186.791 C 220.928 176.276 218.552 160.099 225.611 147.002 C 232.669 133.905 247.487 126.994 262.058 130.004 C 276.628 133.014 287.495 145.232 288.785 160.054 C 290.075 174.876 281.482 188.787 267.651 194.269 C 267.894 195.24 268.24 196.176 268.24 197.216 L 268.249 512 C 280.312 487.095 383.842 274.514 448.177 178.012 L 453.757 169.659 L 446.651 162.553 C 381.805 97.707 353.243 52.853 345.851 0 L 166.149 0.009 Z "
           fill="url(#_lgradient_6)"
           id="path19"
           style="fill:#851ecb;fill-opacity:1" />
      </g>
    </g>
  </g>
</svg>
