<?xml version="1.0" encoding="UTF-8" standalone="no"?><!-- Generator: Gravit.io --><svg xmlns="http://www.w3.org/2000/svg" xmlns:xlink="http://www.w3.org/1999/xlink" style="isolation:isolate" viewBox="0 0 512 512" width="512pt" height="512pt"><defs><clipPath id="_clipPath_o00eU7Uh5bDBfX8Wj1R3HK7FfXSVITMB"><rect width="512" height="512"/></clipPath></defs><g clip-path="url(#_clipPath_o00eU7Uh5bDBfX8Wj1R3HK7FfXSVITMB)"><g><rect x="0" y="0" width="512" height="512" transform="matrix(1,0,0,1,0,0)" fill="rgb(133,30,203)"/><path d=" M 318.472 129.912 L 193.522 129.912 L 180.344 64 L 331.651 64 L 318.472 129.912 Z  M 202.729 144.452 C 198.342 175.782 181.413 202.37 142.967 240.815 L 138.754 245.028 L 142.058 249.986 C 180.2 307.19 241.555 433.178 248.728 447.995 L 248.728 261.372 C 248.728 260.837 248.923 260.365 249.031 259.866 C 246.18 258.906 243.586 257.307 241.447 255.191 C 235.207 248.957 233.798 239.366 237.983 231.601 C 242.168 223.836 250.953 219.739 259.592 221.523 C 268.23 223.308 274.672 230.552 275.437 239.339 C 276.202 248.127 271.108 256.374 262.908 259.625 C 263.052 260.2 263.257 260.755 263.257 261.372 L 263.262 448 C 270.414 433.234 331.795 307.2 369.937 249.986 L 373.246 245.033 L 369.033 240.821 C 330.587 202.375 313.653 175.782 309.271 144.447 L 202.729 144.452 Z " fill="rgb(255,255,255)"/></g><g><linearGradient id="_lgradient_0" x1="0" y1="1.1102230246251565e-16" x2="1" y2="0.9999999999999999" gradientTransform="matrix(512,0,0,512,0,0)" gradientUnits="userSpaceOnUse"><stop offset="1.3043478260869565%" stop-opacity="1" style="stop-color:rgb(153,0,255)"/><stop offset="97.82608695652173%" stop-opacity="1" style="stop-color:rgb(93,93,93)"/></linearGradient><rect x="0" y="0" width="512" height="512" transform="matrix(1,0,0,1,0,0)" fill="url(#_lgradient_0)"/><g><linearGradient id="_lgradient_1" x1="0.8509136851168925" y1="0.14906228977084124" x2="2.220446049250313e-16" y2="1.0000000000000004" gradientTransform="matrix(182.046,-182.046,182.04,182.04,73.957,273.224)" gradientUnits="userSpaceOnUse"><stop offset="1.7391304347826086%" stop-opacity="1" style="stop-color:rgb(255,193,7)"/><stop offset="99.1304347826087%" stop-opacity="1" style="stop-color:rgb(255,240,194)"/></linearGradient><path d=" M 202.729 144.452 C 198.342 175.782 181.413 202.37 142.967 240.815 L 138.754 245.028 L 142.058 249.986 C 180.2 307.19 241.555 433.178 248.728 447.995 L 248.728 261.372 C 248.728 260.837 248.923 260.365 249.031 259.866 C 246.18 258.906 243.586 257.307 241.447 255.191 C 235.207 248.957 233.798 239.366 237.983 231.601 C 242.168 223.836 250.953 219.739 259.592 221.523 C 268.23 223.308 274.672 230.552 275.437 239.339 C 276.202 248.127 271.108 256.374 262.908 259.625 C 263.052 260.2 263.257 260.755 263.257 261.372 L 263.262 448 C 270.414 433.234 331.795 307.2 369.937 249.986 L 373.246 245.033 L 369.033 240.821 C 330.587 202.375 313.653 175.782 309.271 144.447 L 202.729 144.452 Z " fill="url(#_lgradient_1)"/><linearGradient id="_lgradient_2" x1="0.6581126310893053" y1="0.35620986096284835" x2="0.2793941304282797" y2="0.7349283552990573" gradientTransform="matrix(110.02,-110.02,110.02,110.02,145.98,98.367)" gradientUnits="userSpaceOnUse"><stop offset="2.1739130434782608%" stop-opacity="1" style="stop-color:rgb(233,30,99)"/><stop offset="98.26086956521739%" stop-opacity="1" style="stop-color:rgb(149,4,52)"/></linearGradient><path d=" M 318.475 145.912 L 193.525 145.912 L 180.347 64 L 331.653 64 L 318.475 145.912 Z " fill="url(#_lgradient_2)"/></g></g><g opacity="0.15"><path d=" M 0 0 L 512 0 L 0 512 L 0 0 Z " fill="rgb(235,235,235)"/></g></g></svg>