<?xml version="1.0" encoding="UTF-8" standalone="no"?><!-- Generator: Gravit.io --><svg xmlns="http://www.w3.org/2000/svg" xmlns:xlink="http://www.w3.org/1999/xlink" style="isolation:isolate" viewBox="0 0 512 512" width="512pt" height="512pt"><defs><clipPath id="_clipPath_q4GrzeM6u57zLE6lEYIworiaYcI0MInn"><rect width="512" height="512"/></clipPath></defs><g clip-path="url(#_clipPath_q4GrzeM6u57zLE6lEYIworiaYcI0MInn)"><path d=" M 256 0 C 114.846 0 0 114.846 0 256 C 0 397.154 114.846 512 256 512 C 397.154 512 512 397.154 512 256 C 512 114.846 397.154 0 256 0 Z  M 256 39.385 C 375.847 39.385 472.615 136.153 472.615 256 C 472.615 375.847 375.847 472.615 256 472.615 C 136.153 472.615 39.385 375.847 39.385 256 C 39.385 136.153 136.153 39.385 256 39.385 Z  M 236.308 137.846 L 236.308 236.308 L 137.846 236.308 L 137.846 275.692 L 236.308 275.692 L 236.308 374.154 L 275.692 374.154 L 275.692 275.692 L 374.154 275.692 L 374.154 236.308 L 275.692 236.308 L 275.692 137.846 L 236.308 137.846 Z " fill="rgb(30,126,235)"/></g></svg>