<?xml version="1.0" encoding="UTF-8" standalone="no"?><!-- Generator: Gravit.io --><svg xmlns="http://www.w3.org/2000/svg" xmlns:xlink="http://www.w3.org/1999/xlink" style="isolation:isolate" viewBox="0 0 512 512" width="512pt" height="512pt"><defs><clipPath id="_clipPath_ce0rbp6bHN0x8rM4EakfXeGd0ldJi8pS"><rect width="512" height="512"/></clipPath></defs><g clip-path="url(#_clipPath_ce0rbp6bHN0x8rM4EakfXeGd0ldJi8pS)"><path d=" M 51.2 102.4 L 0 102.4 L 0 460.8 C 0 488.96 23.04 512 51.2 512 L 409.6 512 L 409.6 460.8 L 51.2 460.8 L 51.2 102.4 Z  M 460.8 0 L 153.6 0 C 125.44 0 102.4 23.04 102.4 51.2 L 102.4 358.4 C 102.4 386.56 125.44 409.6 153.6 409.6 L 460.8 409.6 C 488.96 409.6 512 386.56 512 358.4 L 512 51.2 C 512 23.04 488.96 0 460.8 0 Z  M 435.2 230.4 L 179.2 230.4 L 179.2 179.2 L 435.2 179.2 L 435.2 230.4 Z  M 332.8 332.8 L 179.2 332.8 L 179.2 281.6 L 332.8 281.6 L 332.8 332.8 Z  M 435.2 128 L 179.2 128 L 179.2 76.8 L 435.2 76.8 L 435.2 128 Z " fill="rgb(30,126,235)"/></g></svg>