<?xml version="1.0" encoding="UTF-8" standalone="no"?><!-- Generator: Gravit.io --><svg xmlns="http://www.w3.org/2000/svg" xmlns:xlink="http://www.w3.org/1999/xlink" style="isolation:isolate" viewBox="0 0 256 256" width="256pt" height="256pt"><defs><clipPath id="_clipPath_V5e0QNP3JocncbD64YqddWT9CJAUE2Iv"><rect width="256" height="256"/></clipPath></defs><g clip-path="url(#_clipPath_V5e0QNP3JocncbD64YqddWT9CJAUE2Iv)"><path d=" M 122.015 9.861 C 119.275 9.944 116.696 11.174 114.908 13.251 L 12.664 127.247 C 10.539 129.679 5.291 138.555 2.78 150.1 C 0.883 155.558 -0.056 161.303 0.003 167.081 C 0.003 197.742 25.643 210.019 25.643 210.019 C 26.028 210.246 26.453 210.444 26.878 210.631 L 145.49 245.849 C 149.355 246.965 153.51 245.619 155.987 242.449 L 252.666 126.002 C 255.075 123.033 255.556 118.941 253.901 115.495 C 253.901 115.495 250.165 106.846 254.217 96.962 C 255.562 93.68 255.067 89.944 252.903 87.117 C 250.741 84.298 247.226 82.866 243.71 83.371 C 240.222 83.912 237.284 86.264 235.991 89.549 C 230.93 101.943 232.403 111.363 234.133 117.353 L 144.877 224.845 L 33.046 191.792 L 32.423 191.486 C 30.585 190.794 19.771 185.921 19.771 167.081 C 19.771 159.668 21.353 155.734 22.865 153.49 C 24.058 151.553 25.923 150.125 28.104 149.477 C 30.278 148.785 32.749 148.785 34.598 148.854 L 34.904 148.854 L 138.077 178.507 C 142.096 179.502 146.326 178.052 148.89 174.801 L 253.585 54.034 C 255.858 51.247 256.639 47.54 255.443 44.15 C 254.218 40.697 251.294 38.125 247.714 37.349 L 124.802 9.861 C 123.873 9.663 122.944 9.822 122.025 9.861 L 122.015 9.861 Z  M 119.237 49.082 C 120.315 49.052 121.313 49.161 122.321 49.398 L 195.841 67.309 C 199.854 68.277 201.396 70.907 199.231 73.487 L 191.205 83.064 C 189.001 85.654 183.831 86.811 179.769 85.842 L 106.575 67.941 C 102.523 66.973 101.02 63.998 103.175 61.447 L 110.905 52.186 C 112.526 50.258 115.995 49.171 119.247 49.092 L 119.237 49.082 Z " fill="rgb(30,126,235)"/></g></svg>