<?xml version="1.0" encoding="UTF-8" standalone="no"?><!-- Generator: Gravit.io --><svg xmlns="http://www.w3.org/2000/svg" xmlns:xlink="http://www.w3.org/1999/xlink" style="isolation:isolate" viewBox="0 0 256 256" width="256pt" height="256pt"><defs><clipPath id="_clipPath_fvvgEhF1EuwpkdUkMK2UyHKO5uZlkUe3"><rect width="256" height="256"/></clipPath></defs><g clip-path="url(#_clipPath_fvvgEhF1EuwpkdUkMK2UyHKO5uZlkUe3)"><rect width="256" height="256" style="fill:rgb(36,36,36)" fill-opacity="0"/><path d=" M 127.854 65.533 C 162.299 65.533 190.176 93.409 190.176 127.854 C 190.176 162.299 162.299 190.176 127.854 190.176 C 93.409 190.176 65.533 162.299 65.533 127.854 C 65.533 93.409 93.409 65.533 127.854 65.533 L 127.854 65.533 L 127.854 65.533 L 127.854 65.533 Z  M 256 127.854 L 256 143.179 C 256 148.725 251.475 153.396 245.783 153.396 L 240.821 153.396 C 240.821 153.396 230.312 153.396 226.81 162.153 L 226.81 162.007 C 225.496 165.802 223.891 169.45 222.285 173.099 L 222.577 172.661 C 222.577 172.661 218.198 181.856 225.35 189.008 L 229.437 193.095 C 233.377 197.035 233.377 203.603 229.437 207.544 L 207.69 229.291 C 203.68 233.233 197.25 233.233 193.241 229.291 L 188.424 224.474 C 188.424 224.474 181.127 218.344 175.434 221.118 L 176.456 220.534 C 171.64 223.015 166.531 225.204 161.131 226.956 L 161.569 226.956 C 153.542 230.02 153.542 238.486 153.542 238.486 L 153.542 245.783 C 153.542 251.33 149.017 256 143.325 256 L 112.675 256 C 107.129 256 102.458 251.476 102.458 245.783 L 102.458 238.486 C 102.458 238.486 102.458 230.02 94.431 226.956 L 94.869 226.956 C 89.615 225.204 84.506 223.015 79.544 220.534 L 80.566 221.118 C 74.873 218.49 67.576 224.474 67.576 224.474 L 62.759 229.291 C 58.75 233.233 52.32 233.233 48.31 229.291 L 26.563 207.544 C 22.621 203.534 22.621 197.104 26.563 193.095 L 30.65 189.008 C 37.802 181.856 33.423 172.661 33.423 172.661 L 33.715 173.099 C 31.964 169.45 30.504 165.802 29.19 162.007 L 29.19 162.299 C 25.688 153.396 15.179 153.542 15.179 153.542 L 10.217 153.542 C 4.671 153.542 0 149.017 0 143.325 L 0 112.675 C 0 107.129 4.525 102.458 10.217 102.458 L 15.179 102.458 C 15.179 102.458 25.688 102.458 29.19 93.701 L 29.19 93.993 C 30.504 90.199 32.109 86.55 33.715 82.901 L 33.423 83.339 C 33.423 83.339 37.802 74.144 30.65 66.992 L 26.563 62.905 C 22.621 58.896 22.621 52.466 26.563 48.456 L 48.31 26.709 C 52.251 22.769 58.819 22.769 62.759 26.709 L 67.576 31.526 C 67.576 31.526 74.873 37.656 80.566 34.883 L 79.544 35.467 C 84.36 32.839 89.469 30.796 94.869 29.045 L 94.431 29.045 C 102.458 25.98 102.458 17.514 102.458 17.514 L 102.458 10.217 C 102.458 4.671 106.983 0 112.675 0 L 143.325 0 C 148.871 0 153.542 4.525 153.542 10.217 L 153.542 17.514 C 153.542 17.514 153.542 25.98 161.569 29.045 L 161.131 29.045 C 166.385 30.796 171.494 32.985 176.456 35.467 L 175.434 34.883 C 181.127 37.51 188.424 31.526 188.424 31.526 L 193.241 26.709 C 197.181 22.769 203.749 22.769 207.69 26.709 L 229.437 48.456 C 233.377 52.397 233.377 58.965 229.437 62.905 L 225.35 66.992 C 218.198 74.144 222.577 83.339 222.577 83.339 L 222.285 82.901 C 224.036 86.55 225.496 90.199 226.81 93.993 L 226.81 93.701 C 230.312 102.604 240.821 102.458 240.821 102.458 L 245.783 102.458 C 251.329 102.458 256 106.983 256 112.675 L 256 127.854 L 256 127.854 L 256 127.854 L 256 127.854 Z " fill-rule="evenodd" fill="rgb(30,126,235)"/></g></svg>