<?xml version="1.0" encoding="UTF-8" standalone="no"?><!-- Generator: Gravit.io --><svg xmlns="http://www.w3.org/2000/svg" xmlns:xlink="http://www.w3.org/1999/xlink" style="isolation:isolate" viewBox="0 0 256 256" width="256pt" height="256pt"><defs><clipPath id="_clipPath_8BMtGyJT7sD9qPemxLZHfslzCxc5aTZm"><rect width="256" height="256"/></clipPath></defs><g clip-path="url(#_clipPath_8BMtGyJT7sD9qPemxLZHfslzCxc5aTZm)"><path d=" M 142.378 256 L 113.422 256 C 104.003 256 96.288 248.285 96.288 238.867 L 96.288 232.053 C 96.288 231.452 95.987 229.148 93.583 228.246 C 93.282 228.146 93.082 228.045 92.881 227.945 C 88.773 226.542 84.665 224.839 80.858 222.835 C 80.658 222.735 80.357 222.635 80.157 222.535 C 79.455 222.535 77.351 223.637 76.149 224.539 L 71.941 228.747 C 65.227 235.46 54.406 235.46 47.693 228.747 L 27.053 208.207 C 20.34 201.494 20.34 190.672 27.053 183.959 L 30.86 180.152 C 33.766 177.246 32.063 173.339 32.063 173.238 C 31.862 172.838 31.662 172.437 31.562 171.936 C 30.359 169.231 29.157 166.525 28.255 163.82 C 28.155 163.519 27.955 163.319 27.854 163.018 C 26.452 159.612 21.843 159.512 21.642 159.512 L 16.933 159.512 C 7.515 159.512 -0.2 151.796 -0.2 142.378 L -0.2 113.422 C -0.2 104.003 7.515 96.288 16.933 96.288 L 21.642 96.288 C 21.742 96.288 26.452 96.188 27.854 92.781 C 27.955 92.481 28.055 92.18 28.255 91.98 C 29.257 89.274 30.359 86.569 31.562 83.864 C 31.662 83.463 31.862 83.062 32.063 82.661 C 32.263 82.06 33.666 78.553 30.86 75.748 L 27.053 71.941 C 20.34 65.227 20.34 54.406 27.053 47.693 L 47.593 27.153 C 54.306 20.44 65.127 20.44 71.84 27.153 L 76.049 31.361 C 77.451 32.363 79.555 33.465 80.357 33.265 C 80.457 33.165 80.557 33.165 80.658 33.165 C 84.565 31.261 88.673 29.458 92.881 28.055 C 93.082 27.955 93.382 27.854 93.583 27.754 C 95.987 26.852 96.188 24.448 96.288 23.847 L 96.288 17.133 C 96.288 7.715 104.003 0 113.422 0 L 142.378 0 C 151.796 0 159.512 7.715 159.512 17.133 L 159.512 23.947 C 159.512 24.548 159.812 26.852 162.217 27.754 C 162.517 27.854 162.718 27.955 162.918 28.055 C 167.126 29.558 171.134 31.261 175.042 33.165 C 175.242 33.265 175.443 33.365 175.743 33.465 C 176.344 33.465 178.348 32.463 179.851 31.461 L 184.059 27.253 C 190.773 20.54 201.594 20.54 208.307 27.253 L 228.847 47.793 C 235.56 54.506 235.56 65.328 228.847 72.041 L 225.04 75.848 C 222.334 78.654 223.637 82.16 223.937 82.862 C 224.038 83.162 224.238 83.563 224.338 83.864 C 225.641 86.569 226.743 89.375 227.745 92.08 C 227.845 92.38 228.045 92.581 228.146 92.881 C 229.548 96.288 234.157 96.388 234.358 96.388 L 239.067 96.388 C 248.485 96.388 256.2 104.103 256.2 113.522 L 256.2 142.478 C 256.2 151.897 248.485 159.612 239.067 159.612 L 234.358 159.612 C 234.258 159.612 229.548 159.712 228.146 163.119 C 228.053 163.404 227.918 163.674 227.745 163.92 C 226.743 166.625 225.641 169.331 224.438 172.036 C 224.338 172.437 224.138 172.838 223.937 173.339 C 223.737 173.94 222.334 177.447 225.14 180.252 L 228.947 184.059 C 232.153 187.266 233.957 191.574 233.957 196.183 C 233.957 200.792 232.153 205.101 228.947 208.307 L 208.407 228.847 C 201.694 235.56 190.873 235.56 184.16 228.847 L 179.951 224.639 C 178.549 223.637 176.445 222.635 175.643 222.735 C 175.543 222.835 175.342 222.835 175.242 222.935 C 171.335 224.839 167.227 226.542 163.119 228.045 C 162.918 228.146 162.618 228.246 162.417 228.346 C 159.812 229.348 159.712 232.153 159.712 232.153 L 159.712 238.967 C 159.512 248.285 151.796 256 142.378 256 L 142.378 256 Z  M 100.897 215.02 C 109.013 219.228 111.217 227.444 111.217 231.953 L 111.217 238.766 C 111.217 239.868 112.219 240.87 113.321 240.87 L 142.278 240.87 C 143.38 240.87 144.382 239.868 144.382 238.766 L 144.382 231.953 C 144.382 227.444 146.586 219.128 154.802 214.92 C 155.303 214.519 156.005 214.218 156.606 214.018 C 161.215 212.515 165.724 210.611 169.932 208.407 C 171.134 207.806 172.437 207.405 173.739 207.605 C 181.555 206.704 188.568 212.315 189.47 213.016 C 189.67 213.216 189.871 213.317 189.971 213.517 L 194.48 218.026 C 195.281 218.827 196.684 218.827 197.486 218.026 L 218.026 197.486 C 218.527 196.985 218.627 196.283 218.627 195.983 C 218.627 195.682 218.527 194.981 218.026 194.48 L 214.218 190.672 C 207.105 183.559 207.405 174.641 209.209 169.03 C 209.309 168.329 209.509 167.627 209.81 167.026 C 211.313 163.82 212.715 160.614 213.818 157.407 C 214.018 156.706 214.419 156.105 214.82 155.504 C 219.429 146.686 228.847 144.282 234.157 144.382 L 238.867 144.382 C 239.969 144.382 240.971 143.38 240.971 142.278 L 240.971 113.321 C 240.971 112.219 239.969 111.217 238.867 111.217 L 234.057 111.217 C 228.847 111.217 219.328 108.813 214.82 99.995 C 214.419 99.494 214.118 98.793 213.918 98.192 C 212.815 94.893 211.475 91.679 209.91 88.573 C 209.609 87.872 209.409 87.17 209.209 86.469 C 207.505 80.958 207.205 72.041 214.319 64.927 L 218.126 61.119 C 218.928 60.318 218.928 58.915 218.126 58.114 L 197.586 37.573 C 196.784 36.772 195.382 36.772 194.58 37.573 L 190.071 42.082 L 189.57 42.583 C 188.668 43.285 181.655 48.895 173.84 47.994 C 172.537 48.094 171.234 47.793 170.032 47.092 C 165.824 44.888 161.415 42.984 156.706 41.481 C 156.005 41.281 155.404 40.98 154.802 40.579 C 146.686 36.371 144.482 28.155 144.482 23.546 L 144.482 16.733 C 144.482 15.631 143.48 14.629 142.378 14.629 L 113.422 14.629 C 112.319 14.629 111.317 15.631 111.317 16.733 L 111.317 23.546 C 111.317 28.055 109.113 36.371 100.897 40.579 C 100.396 40.98 99.695 41.281 99.094 41.481 C 94.485 42.984 89.976 44.888 85.768 47.092 C 84.565 47.693 83.263 47.994 81.96 47.994 C 74.145 48.795 67.131 43.285 66.229 42.583 C 66.029 42.383 65.829 42.283 65.728 42.082 L 61.22 37.573 C 60.418 36.772 59.015 36.772 58.214 37.573 L 37.674 58.114 C 36.872 58.915 36.872 60.318 37.674 61.119 L 41.481 64.927 C 48.695 72.141 48.294 81.058 46.491 86.569 C 46.391 87.27 46.19 87.872 45.89 88.573 C 44.384 91.706 43.046 94.917 41.882 98.192 C 41.681 98.893 41.281 99.494 40.88 100.095 C 36.271 108.913 26.552 111.217 21.542 111.217 L 16.833 111.217 C 15.731 111.217 14.729 112.219 14.729 113.321 L 14.729 142.278 C 14.729 143.38 15.731 144.382 16.833 144.382 L 21.642 144.382 C 26.852 144.382 36.371 146.787 40.88 155.604 C 41.281 156.105 41.581 156.806 41.782 157.407 C 42.884 160.614 44.186 163.82 45.789 167.026 C 46.09 167.728 46.29 168.429 46.391 169.13 C 48.094 174.641 48.495 183.559 41.281 190.672 L 37.473 194.48 C 36.672 195.281 36.672 196.684 37.473 197.486 L 58.013 218.026 C 58.815 218.827 60.218 218.827 61.019 218.026 L 65.528 213.517 L 66.029 213.016 C 66.931 212.315 73.944 206.704 81.76 207.605 C 83.062 207.505 84.365 207.806 85.567 208.407 C 89.775 210.611 94.284 212.515 98.893 214.018 C 99.795 214.319 100.396 214.619 100.897 215.02 L 100.897 215.02 Z  M 127.85 194.079 C 91.378 194.079 61.62 164.421 61.62 127.85 C 61.62 91.378 91.278 61.62 127.85 61.62 C 164.321 61.62 194.079 91.278 194.079 127.85 C 194.079 164.421 164.421 194.079 127.85 194.079 Z  M 127.85 76.75 C 99.595 76.75 76.65 99.695 76.65 127.95 C 76.65 156.205 99.595 179.15 127.85 179.15 C 156.105 179.15 179.05 156.205 179.05 127.95 C 179.05 99.695 156.105 76.75 127.85 76.75 Z " fill="rgb(0,0,0)"/></g></svg>