<?xml version="1.0" encoding="UTF-8" standalone="no"?><!-- Generator: Gravit.io --><svg xmlns="http://www.w3.org/2000/svg" xmlns:xlink="http://www.w3.org/1999/xlink" style="isolation:isolate" viewBox="0 0 512 512" width="512pt" height="512pt"><defs><clipPath id="_clipPath_AC58rW0acNzJBNojnu9GjedQqvtX1TTj"><rect width="512" height="512"/></clipPath></defs><g clip-path="url(#_clipPath_AC58rW0acNzJBNojnu9GjedQqvtX1TTj)"><path d=" M 431.285 71.41 C 379.269 23.053 311.212 -1.195 239.684 3.232 C 111.296 11.131 8.489 112.844 0.515 239.865 C -3.932 310.641 20.54 377.965 69.426 429.427 C 117.882 480.283 185.36 509.164 256.001 509.283 C 308.282 509.283 350.816 467.202 350.816 415.478 L 350.816 396.717 C 350.816 355.339 384.845 321.673 426.667 321.673 L 445.63 321.673 C 482.219 321.673 512 292.208 512 256.009 C 511.878 186.117 482.687 119.355 431.285 71.41 L 431.285 71.41 L 431.285 71.41 Z  M 379.26 199.726 C 379.26 179.017 396.254 162.204 417.186 162.204 C 438.117 162.204 455.111 179.017 455.111 199.726 C 455.111 220.435 438.117 237.248 417.186 237.248 C 396.254 237.248 379.26 220.435 379.26 199.726 L 379.26 199.726 L 379.26 199.726 L 379.26 199.726 L 379.26 199.726 L 379.26 199.726 Z  M 293.927 105.921 C 293.927 85.212 310.921 68.399 331.853 68.399 C 352.785 68.399 369.779 85.212 369.779 105.921 C 369.779 126.63 352.785 143.443 331.853 143.443 C 310.921 143.443 293.927 126.63 293.927 105.921 L 293.927 105.921 L 293.927 105.921 L 293.927 105.921 L 293.927 105.921 L 293.927 105.921 Z  M 161.187 96.54 C 161.187 75.831 178.181 59.018 199.113 59.018 C 220.045 59.018 237.039 75.831 237.039 96.54 C 237.039 117.249 220.045 134.062 199.113 134.062 C 178.181 134.062 161.187 117.249 161.187 96.54 L 161.187 96.54 L 161.187 96.54 L 161.187 96.54 L 161.187 96.54 Z  M 66.373 190.345 C 66.373 169.636 83.367 152.823 104.299 152.823 C 125.23 152.823 142.224 169.636 142.224 190.345 C 142.224 211.054 125.23 227.867 104.299 227.867 C 83.367 227.867 66.373 211.054 66.373 190.345 L 66.373 190.345 L 66.373 190.345 L 66.373 190.345 Z  M 66.373 312.292 C 66.373 291.583 83.367 274.77 104.299 274.77 C 125.23 274.77 142.224 291.583 142.224 312.292 C 142.224 333.001 125.23 349.814 104.299 349.814 C 83.367 349.814 66.373 333.001 66.373 312.292 L 66.373 312.292 L 66.373 312.292 Z  M 237.039 434.239 C 216.123 434.239 199.113 417.41 199.113 396.717 C 199.113 376.023 216.123 359.195 237.039 359.195 C 257.955 359.195 274.964 376.023 274.964 396.717 C 274.964 417.41 257.955 434.239 237.039 434.239 L 237.039 434.239 L 237.039 434.239 Z  M 237.039 340.434 C 205.665 340.434 180.15 365.677 180.15 396.717 C 180.15 427.757 205.665 453 237.039 453 C 268.413 453 293.927 427.757 293.927 396.717 C 293.927 365.677 268.413 340.434 237.039 340.434 L 237.039 340.434 L 237.039 340.434 Z " fill-rule="evenodd" fill="rgb(30,126,235)"/></g></svg>