<?xml version="1.0" encoding="UTF-8" standalone="no"?>
<svg xmlns="http://www.w3.org/2000/svg" xmlns:xlink="http://www.w3.org/1999/xlink" style="isolation:isolate" viewBox="0 0 256 256">
  <rect width="256" height="256" style="fill:rgb(30,126,235)" fill-opacity="0"></rect>
  <path d=" M 147.282 120.734 C 151.724 130.849 147.125 142.65 137.01 147.092 C 126.896 151.534 115.095 146.935 110.653 136.821 C 106.21 126.706 63.361 6.865 73.476 2.423 C 83.591 -2.02 142.84 110.619 147.282 120.734 Z " fill="#1e7eeb"></path>
  <path d=" M 171.097 24.146 C 167.279 25.364 164.101 28.049 162.261 31.609 C 158.431 39.025 161.336 48.142 168.75 51.976 C 202.044 69.172 220.924 105.271 216.053 142.426 C 211.183 179.581 183.641 209.591 147.04 217.625 C 110.439 225.66 72.861 209.942 52.876 178.243 C 32.892 146.544 34.917 105.859 57.948 76.299 C 63.078 69.713 61.898 60.215 55.313 55.084 C 48.726 49.954 39.228 51.133 34.097 57.719 C 3.301 97.247 0.575 151.985 27.298 194.373 C 54.021 236.76 104.578 257.904 153.521 247.16 C 202.464 236.417 239.518 196.037 246.031 146.353 C 252.544 96.67 227.148 48.108 182.628 25.113 C 179.065 23.275 174.917 22.927 171.097 24.146 Z " fill="#1e7eeb"></path>
  <path d=" M 149.009 29.417 C 147.518 40.917 136.987 49.031 125.486 47.542 C 113.986 46.052 105.87 35.523 107.357 24.022 C 108.845 12.521 119.373 4.403 130.874 5.889 C 142.375 7.374 150.495 17.901 149.011 29.402 L 128.184 26.716 L 149.009 29.417 Z " fill="#1e7eeb"></path>
</svg>