<?xml version="1.0" encoding="UTF-8" standalone="no"?><!-- Generator: Gravit.io --><svg xmlns="http://www.w3.org/2000/svg" xmlns:xlink="http://www.w3.org/1999/xlink" style="isolation:isolate" viewBox="0 0 256 256" width="256pt" height="256pt"><defs><clipPath id="_clipPath_HrZqBRQeKfqhsuzuGT2zPaIwLcNxCj7M"><rect width="256" height="256"/></clipPath></defs><g clip-path="url(#_clipPath_HrZqBRQeKfqhsuzuGT2zPaIwLcNxCj7M)"><path d=" M 74.687 29.496 C 90.544 20.89 108.705 16 128 16 C 189.813 16 240 66.186 240 128 C 240 189.814 189.814 240 128 240 C 66.186 240 16 189.813 16 128 C 16 109.21 20.637 91.495 28.828 75.937" fill="none" vector-effect="non-scaling-stroke" stroke-width="20" stroke="rgb(185,185,185)" stroke-linejoin="miter" stroke-linecap="round" stroke-miterlimit="3"/><path d=" M 146.67 127.34 C 147.33 128.59 147.85 129.92 148.21 131.29 C 148.54 132.54 148.72 133.82 148.72 135.12 C 148.73 137.08 148.3 139.02 147.47 140.79 C 146.68 142.44 145.56 143.9 144.17 145.1 C 141.52 147.38 138.13 148.64 134.63 148.63 C 132.56 148.64 130.52 148.18 128.66 147.28 C 127.86 146.88 127.08 146.42 126.34 145.9 C 125.51 145.33 124.7 144.72 123.93 144.07 C 121.99 142.44 120.13 140.72 118.36 138.91 C 116.04 136.56 113.78 134.15 111.59 131.68 C 108.85 128.6 106.16 125.48 103.52 122.31 C 100.35 118.51 97.21 114.67 94.12 110.79 C 90.5 106.27 86.92 101.71 83.37 97.13 C 68.99 78.52 54.92 59.69 41.16 40.62 C 60.42 55.33 79.51 70.25 98.45 85.38 C 106.97 92.17 115.41 99.06 123.78 106.03 C 126.84 108.57 129.87 111.15 132.87 113.75 C 135.15 115.71 137.39 117.7 139.61 119.73 C 141.15 121.12 142.64 122.57 144.08 124.06 C 144.59 124.58 145.07 125.12 145.53 125.68 C 145.97 126.19 146.35 126.74 146.67 127.34 L 146.67 127.34 Z " fill="rgb(185,185,185)"/></g></svg>