<?xml version="1.0" encoding="UTF-8" standalone="no"?><!-- Generator: Gravit.io --><svg xmlns="http://www.w3.org/2000/svg" xmlns:xlink="http://www.w3.org/1999/xlink" style="isolation:isolate" viewBox="0 0 256 256" width="256pt" height="256pt"><defs><clipPath id="_clipPath_OdhH5YSK8OGhffNQVQTpoVnbstG3mDdD"><rect width="256" height="256"/></clipPath></defs><g clip-path="url(#_clipPath_OdhH5YSK8OGhffNQVQTpoVnbstG3mDdD)"><path d=" M 231.453 92.159 C 230.268 83.943 228.047 75.874 225.012 68.25 C 222.052 60.625 218.128 53.445 213.835 46.931 C 207.637 37.724 200.103 29.491 191.48 22.503 C 190.147 21.393 188.815 20.43 187.483 19.394 C 186.15 18.432 184.818 17.47 183.485 16.581 C 182.819 16.137 182.153 15.693 181.561 15.249 C 181.191 15.027 180.746 14.805 180.376 14.509 C 180.08 14.287 179.71 14.138 179.414 13.916 C 175.792 11.913 172.114 10.012 168.385 8.217 C 163.795 6.07 159.65 4.367 156.171 3.109 C 152.618 1.851 149.731 1.036 147.658 0.518 C 146.622 0.296 145.807 0.074 145.289 0 L 145.141 0 C 153.876 5.774 164.239 16.359 169.569 22.429 C 169.717 22.503 169.939 22.577 170.087 22.651 C 171.271 23.243 172.53 23.836 173.714 24.428 C 174.232 24.724 174.825 25.02 175.343 25.242 L 177.119 26.352 C 178.378 27.093 179.562 27.907 180.821 28.647 C 182.005 29.461 183.337 30.276 184.522 31.238 C 187.038 33.014 189.481 35.013 191.924 37.16 C 194.367 39.306 196.81 41.675 199.178 44.192 C 201.547 46.709 203.842 49.374 205.988 52.261 C 210.282 58.034 214.205 64.4 217.314 71.285 C 220.423 78.169 222.94 85.571 224.494 93.195 C 225.309 96.971 225.827 100.82 226.197 104.669 L 226.419 107.556 C 226.493 108.518 226.493 109.555 226.567 110.517 L 226.567 116.291 C 226.493 123.989 225.383 131.54 223.754 138.72 C 221.978 145.9 219.609 152.636 216.722 158.78 C 213.835 164.924 210.504 170.476 207.025 175.287 C 203.546 180.099 199.993 184.244 196.587 187.723 C 193.182 191.202 189.999 194.015 187.261 196.162 C 184.522 198.383 182.301 199.937 180.746 201.048 C 179.192 202.084 178.378 202.676 178.378 202.676 C 178.378 202.676 179.266 202.158 180.821 201.196 C 182.449 200.233 184.744 198.753 187.631 196.68 C 190.518 194.608 193.849 192.017 197.476 188.686 C 201.103 185.355 204.952 181.357 208.801 176.62 C 217.493 165.716 224.025 153.255 228.047 139.904 C 230.194 132.576 231.749 124.655 232.267 116.587 C 232.341 115.551 232.415 114.588 232.415 113.552 L 232.489 111.997 L 232.489 107.482 L 232.415 104.373 C 232.415 100.302 232.045 96.23 231.453 92.159 L 231.453 92.159 Z  M 43.211 105.261 C 41.979 103.904 41.855 101.872 42.915 100.376 L 48.837 95.12 L 81.703 65.881 C 79.336 63.736 77.379 61.177 75.929 58.33 L 43.951 86.829 L 33.07 96.453 C 32.626 96.823 32.33 97.267 32.033 97.711 L 28.11 101.634 C 22.484 106.594 21.966 115.18 26.852 120.806 L 30.183 124.581 C 35.142 130.207 43.729 130.725 49.355 125.84 L 53.13 122.509 C 54.759 121.028 54.981 118.511 53.5 116.883 L 43.211 105.261 Z  M 175.565 46.931 C 174.38 43.6 173.048 40.417 171.494 37.382 C 170.753 35.975 170.013 34.569 169.199 33.237 C 168.163 31.534 167.052 29.831 165.868 28.129 C 163.129 24.28 160.02 20.579 156.393 16.951 C 151.951 12.51 146.77 8.291 140.774 3.997 C 139.738 3.257 138.479 2.961 137.295 3.183 C 136.11 3.331 134.926 3.997 134.186 5.108 C 133.436 6.114 133.123 7.38 133.318 8.62 C 133.513 9.86 134.199 10.968 135.222 11.696 C 141.44 16.285 146.252 21.393 149.509 26.722 C 153.58 33.311 155.282 40.269 154.468 47.227 C 153.062 58.775 144.845 68.99 133.001 73.949 L 88.809 93.269 C 86.589 94.232 85.478 96.749 86.219 99.043 L 101.319 147.01 C 106.131 172.623 103.836 210.375 66.306 245.536 C 65.048 246.72 64.53 248.497 64.9 250.125 C 64.482 251.919 65.131 253.794 66.568 254.946 C 68.005 256.099 69.975 256.326 71.636 255.529 C 72.154 255.233 85.256 248.867 99.617 235.394 C 113.533 222.366 129.374 195.644 131.669 174.177 C 143.291 195.348 137.147 230.435 136.48 248.867 C 136.406 251.235 138.109 253.308 140.478 253.678 C 142.847 254.048 145.141 252.642 145.807 250.347 C 161.574 196.014 152.47 156.56 144.327 121.769 C 142.402 113.552 140.626 105.705 139.071 97.785 C 148.028 95.342 167.718 88.458 175.417 73.801 C 179.71 65.659 179.71 56.628 175.565 46.931 L 175.565 46.931 Z  M 133.668 18.728 C 134.038 17.247 133.668 15.693 132.631 14.435 C 131.964 13.657 131.049 13.134 130.04 12.954 C 128.634 12.658 127.154 13.028 125.969 14.064 L 114.496 24.206 C 117.16 25.982 119.455 28.277 121.306 30.868 L 132.261 21.171 C 132.927 20.43 133.446 19.616 133.668 18.728 L 133.668 18.728 Z  M 109.462 29.831 C 106.575 28.129 103.244 27.093 99.617 27.093 C 89.106 27.093 80.519 35.679 80.519 46.191 C 80.519 49.003 81.111 51.668 82.221 54.037 C 85.293 60.89 92.107 65.297 99.617 65.289 C 110.128 65.289 118.715 56.702 118.715 46.191 C 118.715 42.193 117.456 38.492 115.384 35.457 C 113.829 33.162 111.831 31.238 109.462 29.831 Z " fill="rgb(30,126,235)"/></g></svg>