<?xml version="1.0" encoding="UTF-8" standalone="no"?><!-- Generator: Gravit.io --><svg xmlns="http://www.w3.org/2000/svg" xmlns:xlink="http://www.w3.org/1999/xlink" style="isolation:isolate" viewBox="0 0 30 30" width="30pt" height="30pt"><defs><clipPath id="_clipPath_WixCxKSjIdbVJQoLeSDAHeewIedUEikw"><rect width="30" height="30"/></clipPath></defs><g clip-path="url(#_clipPath_WixCxKSjIdbVJQoLeSDAHeewIedUEikw)"><path d=" M 3.333 0 C 1.497 0 0 1.497 0 3.333 L 0 26.667 C 0 28.503 1.497 30 3.333 30 L 26.667 30 C 28.503 30 30 28.503 30 26.667 L 30 16.667 L 26.667 13.333 L 26.667 26.667 L 3.333 26.667 L 3.333 3.333 L 16.667 3.333 L 13.333 0 L 3.333 0 Z  M 18.333 0 L 22.76 4.427 L 10.26 16.927 L 13.073 19.74 L 25.573 7.24 L 30 11.667 L 30 0 L 18.333 0 Z " fill="rgb(30,126,235)"/></g></svg>