<?xml version="1.0" encoding="UTF-8" standalone="no"?><!-- Generator: Gravit.io --><svg xmlns="http://www.w3.org/2000/svg" xmlns:xlink="http://www.w3.org/1999/xlink" style="isolation:isolate" viewBox="0 0 512 512" width="512pt" height="512pt"><defs><clipPath id="_clipPath_ew6wm2KfolfA6eXb2K8xKzoDw7gorZrI"><rect width="512" height="512"/></clipPath></defs><g clip-path="url(#_clipPath_ew6wm2KfolfA6eXb2K8xKzoDw7gorZrI)"><path d=" M 156.188 0 C 166.575 4.215 188.555 15.506 210.384 42.152 C 238.234 76.175 271.504 143.017 271.504 267.517 C 271.504 271.882 274.967 275.345 279.333 275.345 C 283.698 275.345 287.161 271.882 287.161 267.517 C 287.161 206.396 279.634 154.006 264.73 110.349 C 293.183 32.066 339.851 6.774 356.411 0 C 382.154 65.186 371.616 131.726 357.917 176.739 C 342.411 227.472 319.528 262.699 319.076 263.301 C 316.668 266.914 317.721 271.732 321.334 274.141 C 322.689 275.044 324.195 275.495 325.55 275.495 C 328.109 275.495 330.518 274.291 332.023 272.033 C 332.625 271.13 340.002 259.688 349.336 240.569 C 372.67 247.795 386.369 257.581 386.369 266.914 C 386.369 285.13 332.926 305.303 256.149 305.303 C 179.371 305.303 125.928 284.98 125.928 266.914 C 125.928 257.43 139.628 247.795 163.113 240.569 C 172.446 259.688 179.823 271.13 180.425 272.033 C 181.931 274.291 184.339 275.495 186.899 275.495 C 188.404 275.495 189.91 275.044 191.114 274.141 C 194.727 271.732 195.63 266.914 193.372 263.301 C 193.071 263 170.339 228.074 154.682 177.19 C 140.983 132.027 130.294 65.336 156.188 0 L 156.188 0 Z  M 256.149 512 C 179.07 512 129.843 491.526 129.843 477.525 L 129.843 388.554 C 165.973 400.447 210.384 406.92 256.149 406.92 C 302.065 406.92 346.475 400.447 382.455 388.554 L 382.455 477.525 C 382.606 491.526 333.378 512 256.149 512 Z  M 382.606 380.425 C 346.927 392.468 302.366 399.092 256.299 399.092 C 210.233 399.092 165.672 392.468 129.993 380.425 L 129.993 342.789 C 165.07 354.23 208.577 360.854 256.299 360.854 C 304.022 360.854 347.529 354.23 382.606 342.789 L 382.606 380.425 Z  M 397.51 320.659 C 359.874 336.616 309.743 345.348 256.149 345.348 C 202.555 345.348 152.424 336.616 114.788 320.659 C 79.862 305.905 59.689 286.184 59.689 266.764 C 59.689 241.322 92.809 216.783 146.553 202.03 C 150.768 213.622 155.284 224.16 159.5 233.343 C 132.703 241.924 117.95 253.667 117.95 266.764 C 117.95 280.162 132.402 291.754 159.951 300.335 C 185.694 308.465 219.717 312.981 255.998 312.981 C 292.279 312.981 326.302 308.465 352.045 300.335 C 379.595 291.604 394.047 280.012 394.047 266.764 C 394.047 253.516 379.444 241.774 352.497 233.343 C 356.712 224.31 361.229 213.772 365.444 202.03 C 419.188 216.934 452.308 241.322 452.308 266.764 C 452.609 286.184 432.436 305.755 397.51 320.659 Z " fill="rgb(30,126,235)"/></g></svg>