<?xml version="1.0" encoding="UTF-8" standalone="no"?><!-- Generator: Gravit.io --><svg xmlns="http://www.w3.org/2000/svg" xmlns:xlink="http://www.w3.org/1999/xlink" style="isolation:isolate" viewBox="0 0 226.983 256" width="226.983pt" height="256pt"><defs><clipPath id="_clipPath_sRLkQiAw4bNdxPZgYdRO1NVG5XSqlcAM"><rect width="226.983" height="256"/></clipPath></defs><g clip-path="url(#_clipPath_sRLkQiAw4bNdxPZgYdRO1NVG5XSqlcAM)"><path d=" M 226.983 0 C 226.983 0 222.719 47.033 222.719 47.033 C 222.719 47.033 211.82 166.659 211.82 166.659 C 211.82 166.659 207.73 212.669 207.73 212.669 C 207.73 212.669 205.491 229.478 205.491 229.478 C 205.491 229.478 194.265 233.844 194.265 233.844 C 194.265 233.844 165.636 241.89 165.636 241.89 C 165.636 241.89 128.828 252.166 128.828 252.166 C 128.828 252.166 113.491 256 113.491 256 C 113.491 256 94.811 251.205 94.811 251.205 C 94.811 251.205 55.805 240.213 55.805 240.213 C 55.805 240.213 31.696 233.547 31.696 233.547 C 31.696 233.547 21.492 229.478 21.492 229.478 C 21.492 229.478 19.253 212.669 19.253 212.669 C 19.253 212.669 15.163 166.659 15.163 166.659 C 15.163 166.659 4.264 47.033 4.264 47.033 C 4.264 47.033 0 0 0 0 C 0 0 226.983 0 226.983 0 Z  M 43.965 48.055 C 43.965 48.055 45.836 70.549 45.836 70.549 C 45.836 70.549 48.229 100.2 48.229 100.2 C 48.229 100.2 51.122 131.896 51.122 131.896 C 51.122 131.896 149.277 131.896 149.277 131.896 C 149.277 131.896 146.384 157.457 146.384 157.457 C 146.005 161.199 146.465 165.289 143.643 168.264 C 141.261 170.789 135.31 171.812 131.896 172.793 C 128.429 173.785 116.763 177.006 113.788 177.067 C 109.985 177.149 100.138 174.194 96.11 173.172 C 92.46 172.251 84.883 170.779 82.409 168.039 C 80.006 165.401 79.546 150.77 78.728 146.21 C 78.728 146.21 52.145 146.21 52.145 146.21 C 52.145 146.21 55.12 176.883 55.12 176.883 C 55.12 176.883 57.237 189.602 57.237 189.602 C 57.237 189.602 78.728 196.739 78.728 196.739 C 78.728 196.739 113.491 205.726 113.491 205.726 C 113.491 205.726 144.165 197.71 144.165 197.71 C 144.165 197.71 162.569 192.649 162.569 192.649 C 162.569 192.649 169.736 189.459 169.736 189.459 C 169.736 189.459 171.178 181.995 171.178 181.995 C 171.178 181.995 172.824 163.591 172.824 163.591 C 172.824 163.591 176.035 127.806 176.035 127.806 C 176.035 127.806 177.906 104.289 177.906 104.289 C 177.906 104.289 75.661 104.289 75.661 104.289 C 75.661 104.289 73.616 74.639 73.616 74.639 C 73.616 74.639 180.973 74.639 180.973 74.639 C 180.973 74.639 183.018 48.055 183.018 48.055 C 183.018 48.055 43.965 48.055 43.965 48.055 Z " fill="rgb(30,126,235)"/></g></svg>