<?xml version="1.0" encoding="UTF-8" standalone="no"?><!-- Generator: Gravit.io --><svg xmlns="http://www.w3.org/2000/svg" xmlns:xlink="http://www.w3.org/1999/xlink" style="isolation:isolate" viewBox="0 0 360.664 256" width="360.664pt" height="256pt"><defs><clipPath id="_clipPath_mWPVam6VSJnrVSpPOiYeckyV3wrQQhSZ"><rect width="360.664" height="256"/></clipPath></defs><g clip-path="url(#_clipPath_mWPVam6VSJnrVSpPOiYeckyV3wrQQhSZ)"><path d=" M 152.045 5.656 L 152.045 170.078 L 152.045 170.078 Q 152.045 188.111 148.155 203.668 L 148.155 203.668 L 148.155 203.668 Q 144.266 219.227 134.543 230.895 L 134.543 230.895 L 134.543 230.895 Q 124.817 242.563 108.376 249.282 L 108.376 249.282 L 108.376 249.282 Q 91.934 256 66.829 256 L 66.829 256 L 66.829 256 Q 43.491 256 26.343 249.459 L 26.343 249.459 L 26.343 249.459 Q 9.194 242.918 0 235.491 L 0 235.491 L 15.911 200.487 L 15.911 200.487 Q 24.751 206.497 37.657 211.978 L 37.657 211.978 L 37.657 211.978 Q 50.563 217.458 64 217.458 L 64 217.458 L 64 217.458 Q 86.629 217.458 96.884 206.144 L 96.884 206.144 L 96.884 206.144 Q 107.138 194.829 107.138 167.249 L 107.138 167.249 L 107.138 5.656 L 152.045 5.656 Z  M 268.377 217.458 L 268.377 217.458 L 268.377 217.458 Q 292.421 217.458 303.382 209.326 L 303.382 209.326 L 303.382 209.326 Q 314.344 201.194 314.344 186.344 L 314.344 186.344 L 314.344 186.344 Q 314.344 177.503 310.63 171.138 L 310.63 171.138 L 310.63 171.138 Q 306.918 164.773 300.022 159.646 L 300.022 159.646 L 300.022 159.646 Q 293.128 154.52 283.227 150.1 L 283.227 150.1 L 283.227 150.1 Q 273.326 145.68 260.598 141.437 L 260.598 141.437 L 260.598 141.437 Q 247.868 136.841 236.022 131.358 L 236.022 131.358 L 236.022 131.358 Q 224.177 125.878 215.16 117.746 L 215.16 117.746 L 215.16 117.746 Q 206.144 109.614 200.663 98.299 L 200.663 98.299 L 200.663 98.299 Q 195.183 86.983 195.183 71.072 L 195.183 71.072 L 195.183 71.072 Q 195.183 37.833 218.167 18.917 L 218.167 18.917 L 218.167 18.917 Q 241.149 0 280.751 0 L 280.751 0 L 280.751 0 Q 303.736 0 321.593 5.127 L 321.593 5.127 L 321.593 5.127 Q 339.448 10.254 349.703 16.264 L 349.703 16.264 L 335.913 52.332 L 335.913 52.332 Q 323.891 45.614 309.57 42.078 L 309.57 42.078 L 309.57 42.078 Q 295.25 38.542 280.045 38.542 L 280.045 38.542 L 280.045 38.542 Q 262.012 38.542 251.935 45.967 L 251.935 45.967 L 251.935 45.967 Q 241.856 53.392 241.856 66.829 L 241.856 66.829 L 241.856 66.829 Q 241.856 74.961 245.216 80.795 L 245.216 80.795 L 245.216 80.795 Q 248.575 86.629 254.764 91.227 L 254.764 91.227 L 254.764 91.227 Q 260.951 95.823 269.261 99.713 L 269.261 99.713 L 269.261 99.713 Q 277.571 103.602 287.47 107.138 L 287.47 107.138 L 287.47 107.138 Q 304.796 113.503 318.411 120.044 L 318.411 120.044 L 318.411 120.044 Q 332.023 126.586 341.393 135.603 L 341.393 135.603 L 341.393 135.603 Q 350.763 144.619 355.714 156.818 L 355.714 156.818 L 355.714 156.818 Q 360.664 169.017 360.664 186.344 L 360.664 186.344 L 360.664 186.344 Q 360.664 219.581 337.15 237.791 L 337.15 237.791 L 337.15 237.791 Q 313.637 256 268.377 256 L 268.377 256 L 268.377 256 Q 253.173 256 240.62 254.055 L 240.62 254.055 L 240.62 254.055 Q 228.068 252.111 218.343 249.282 L 218.343 249.282 L 218.343 249.282 Q 208.619 246.454 201.548 243.448 L 201.548 243.448 L 201.548 243.448 Q 194.476 240.443 190.233 237.967 L 190.233 237.967 L 203.316 201.548 L 203.316 201.548 Q 212.862 206.851 229.128 212.155 L 229.128 212.155 L 229.128 212.155 Q 245.392 217.458 268.377 217.458 Z " fill="rgb(30,126,235)"/></g></svg>