<?xml version="1.0" encoding="UTF-8" standalone="no"?><!-- Generator: Gravit.io --><svg xmlns="http://www.w3.org/2000/svg" xmlns:xlink="http://www.w3.org/1999/xlink" style="isolation:isolate" viewBox="0 0 256 256" width="256pt" height="256pt"><rect width="256" height="256" style="fill:rgb(30,126,235)" fill-opacity="0"></rect><path d=" M 188.373 85.346 L 128.002 25.081 L 67.631 85.346 C 51.705 101.323 42.734 122.944 42.672 145.504 C 42.672 166.836 50.992 189.342 67.631 205.981 C 83.622 222.031 105.346 231.052 128.002 231.052 C 150.658 231.052 172.382 222.031 188.373 205.981 C 205.013 189.342 213.332 166.836 213.332 145.504 C 213.332 124.171 205.013 101.985 188.373 85.346 Z  M 64.005 149.343 C 64.111 128.011 70.618 114.465 82.777 102.412 L 128.002 56.227 L 173.227 102.945 C 185.387 114.891 191.893 128.011 192 149.343 L 64.005 149.343 Z " fill="#1e7eeb"></path></svg>