<?xml version="1.0" encoding="UTF-8" standalone="no"?><!-- Generator: Gravit.io --><svg xmlns="http://www.w3.org/2000/svg" xmlns:xlink="http://www.w3.org/1999/xlink" style="isolation:isolate" viewBox="0 0 512 456.046" width="512pt" height="456.046pt"><defs><clipPath id="_clipPath_8Cu9d4h5jFsxobccL1ChLw6MKnuQwA7r"><rect width="512" height="456.046"/></clipPath></defs><g clip-path="url(#_clipPath_8Cu9d4h5jFsxobccL1ChLw6MKnuQwA7r)"><path d=" M 412.098 332.302 C 412.415 360.258 416.107 369.963 416.529 370.807 C 416.74 371.229 416.845 371.44 416.951 371.968 C 427.395 409.523 451.658 429.039 451.869 429.25 C 454.19 431.149 454.928 434.42 453.662 437.057 L 444.168 456.046 L 512 456.046 L 512 291.477 C 496.387 292.004 455.561 295.063 438.471 311.837 C 431.087 320.3 422.13 327.251 412.098 332.302 L 412.098 332.302 Z  M 116.507 434.209 C 116.507 435.158 116.296 436.213 115.874 437.057 L 106.38 456.046 L 165.878 456.046 L 215.776 341.269 C 180.647 338.527 146.784 327.872 116.613 310.043 L 116.613 434.209 L 116.507 434.209 L 116.507 434.209 Z  M 363.466 88.719 L 300.803 88.719 C 307.871 94.416 314.412 100.746 320.319 107.708 L 363.994 107.708 C 398.595 107.708 431.087 121.211 455.561 145.58 C 480.036 170.054 493.433 202.546 493.433 237.148 L 493.433 260.989 C 476.976 262.677 455.983 266.369 438.366 274.598 C 429.61 278.712 422.226 283.776 416.423 289.578 L 415.791 290.211 L 415.263 290.844 C 409.895 296.961 403.276 301.854 395.852 305.191 C 388.468 308.567 380.345 310.254 372.222 310.254 L 355.66 310.254 L 355.66 329.243 L 371.695 329.243 C 382.56 329.243 393.215 326.922 402.92 322.492 C 403.026 322.492 403.131 322.386 403.131 322.386 C 412.999 317.922 421.781 311.372 428.872 303.186 L 429.188 302.87 C 449.654 282.404 494.91 279.134 511.789 278.607 L 511.789 237.042 C 512 155.285 445.329 88.719 363.466 88.719 L 363.466 88.719 Z  M 152.48 145.686 L 124.314 145.686 C 117.351 145.686 111.655 151.382 111.655 158.345 C 111.655 165.307 117.351 171.004 124.314 171.004 L 152.48 171.004 C 159.443 171.004 165.14 165.307 165.14 158.345 C 165.14 151.382 159.443 145.686 152.48 145.686 Z  M 191.302 80.069 C 183.073 71.841 169.676 71.841 161.447 80.069 C 153.219 88.298 153.219 101.695 161.447 109.924 L 186.766 135.242 C 190.88 139.356 196.26 141.466 201.64 141.466 C 207.02 141.466 212.4 139.356 216.515 135.242 C 224.743 127.013 224.743 113.616 216.515 105.387 L 191.302 80.069 L 191.302 80.069 Z  M 85.492 80.069 L 60.174 105.387 C 54.145 111.425 52.337 120.495 55.589 128.383 C 58.841 136.272 66.516 141.432 75.049 141.466 C 80.429 141.466 85.809 139.356 89.923 135.242 L 115.241 109.924 C 123.47 101.695 123.47 88.298 115.241 80.069 C 107.013 71.841 93.721 71.841 85.492 80.069 L 85.492 80.069 Z  M 279.072 88.719 L 260.611 88.719 L 256.602 76.06 L 251.96 61.291 L 249.428 53.168 C 249.006 51.797 248.373 50.531 247.529 49.371 C 257.657 46.1 265.041 36.501 265.041 25.318 C 265.041 11.393 253.648 0 239.723 0 C 226.536 0 215.671 10.127 214.51 23.103 L 212.717 21.732 C 210.501 20.044 207.759 19.094 204.91 19.094 L 71.884 19.094 C 69.036 19.094 66.293 20.044 64.077 21.837 L 62.284 23.208 C 61.121 10.145 50.186 0.125 37.071 0.105 C 23.146 0.105 11.753 11.499 11.753 25.424 C 11.753 36.817 19.348 46.417 29.687 49.687 C 28.843 50.742 28.21 52.008 27.893 53.379 L 25.361 61.608 L 0.571 140.411 C 0.043 142.204 -0.168 144.103 0.149 146.002 L 0.465 148.428 C 4.368 173.747 13.757 196.111 27.999 214.572 C 34.539 223.117 42.135 230.713 50.68 237.464 C 54.583 240.524 58.803 243.477 63.022 246.115 C 103.11 296.962 165.245 329.454 233.499 329.454 C 234.132 329.454 234.659 329.56 235.292 329.665 C 235.609 329.56 235.82 329.56 236.136 329.454 C 239.617 328.927 242.782 331.353 243.31 334.834 L 257.34 433.365 C 257.551 434.631 257.34 435.896 256.707 437.057 L 247.213 456.046 L 303.124 456.046 L 343.211 362.579 L 343.211 203.496 C 343.106 156.973 318.632 113.088 279.072 88.719 L 279.072 88.719 Z  M 138.661 241.79 C 89.923 241.79 36.016 211.935 25.467 145.158 L 50.785 64.562 L 76.315 44.412 L 200.585 44.412 L 226.536 64.667 L 251.855 145.158 C 241.2 211.935 187.399 241.79 138.661 241.79 L 138.661 241.79 Z " fill="rgb(30,126,235)"/></g></svg>