<?xml version="1.0" encoding="UTF-8" standalone="no"?><!-- Generator: Gravit.io --><svg xmlns="http://www.w3.org/2000/svg" xmlns:xlink="http://www.w3.org/1999/xlink" style="isolation:isolate" viewBox="0 0 256 256" width="256pt" height="256pt"><defs><clipPath id="_clipPath_vCOK3uLjn5URyD6xQ08GZrjJNi9eoHAN"><rect width="256" height="256"/></clipPath></defs><g clip-path="url(#_clipPath_vCOK3uLjn5URyD6xQ08GZrjJNi9eoHAN)"><rect width="256" height="256" style="fill:rgb(36,36,36)" fill-opacity="0"/><path d=" M 212.637 111.87 L 144.13 43.363 L 173.042 0 L 256 82.958 L 212.637 111.87 Z  M 141.206 56.383 C 121.623 71.155 97.763 76.451 55.606 76.451 L 50.986 76.451 L 50.079 80.98 C 39.628 133.256 4.192 235.972 0 248.028 L 102.321 145.707 C 102.614 145.414 102.98 145.262 103.313 145.048 C 102.276 142.958 101.731 140.659 101.718 138.327 C 101.715 131.487 106.201 125.456 112.753 123.493 C 119.304 121.53 126.368 124.101 130.125 129.816 C 133.883 135.53 133.444 143.034 129.045 148.272 C 124.647 153.509 117.332 155.238 111.054 152.524 C 110.817 152.918 110.625 153.335 110.287 153.673 L 7.966 256 C 19.983 251.825 122.738 216.377 175.02 205.921 L 179.549 205.02 L 179.549 200.4 C 179.549 158.242 184.845 134.377 199.623 114.794 L 141.206 56.383 Z " fill="rgb(30,126,235)"/></g></svg>