<?xml version="1.0" encoding="UTF-8" standalone="no"?><!-- Generator: Gravit.io --><svg xmlns="http://www.w3.org/2000/svg" xmlns:xlink="http://www.w3.org/1999/xlink" style="isolation:isolate" viewBox="0 0 512 512" width="512pt" height="512pt"><defs><clipPath id="_clipPath_mRQMeHAUqfwql2vOvqfTYirMwh8rBWIx"><rect width="512" height="512"/></clipPath></defs><g clip-path="url(#_clipPath_mRQMeHAUqfwql2vOvqfTYirMwh8rBWIx)"><path d=" M 465.455 209.455 C 461.103 209.455 456.983 210.246 453.004 211.363 L 392.029 134.307 C 398.056 119.942 396.489 103.513 387.856 90.547 C 379.222 77.58 364.669 69.798 349.091 69.818 C 331.52 69.818 316.393 79.686 308.48 94.068 L 203.52 94.068 C 195.439 79.164 179.863 69.863 162.909 69.818 C 147.311 69.817 132.75 77.629 124.125 90.626 C 115.5 103.622 113.958 120.074 120.017 134.447 L 59.043 211.363 C 54.984 210.158 50.779 209.516 46.545 209.455 C 20.839 209.455 0 230.294 0 256 C 0 281.706 20.839 302.545 46.545 302.545 C 50.665 302.545 54.575 301.847 58.368 300.847 L 119.738 378.391 C 114.023 392.719 115.778 408.949 124.423 421.724 C 133.069 434.499 147.483 442.161 162.909 442.182 C 180.084 442.182 194.932 432.756 203.008 418.909 L 309.015 418.909 C 317.068 432.756 331.916 442.182 349.114 442.182 C 364.568 442.164 379.006 434.477 387.649 421.666 C 396.291 408.854 398.011 392.588 392.239 378.252 L 453.609 300.823 C 457.402 301.847 461.335 302.545 465.455 302.545 C 491.161 302.545 512 281.706 512 256 C 512 230.294 491.161 209.455 465.455 209.455 Z  M 420.259 266.659 L 355.817 349.766 C 353.606 349.44 351.395 349.091 349.091 349.091 C 332.47 349.122 317.141 358.057 308.922 372.503 L 203.078 372.503 C 194.859 358.057 179.53 349.122 162.909 349.091 C 160.559 349.091 158.301 349.44 156.044 349.789 L 91.741 266.705 C 92.556 263.261 93.091 259.7 93.091 256 C 93.091 252.579 92.672 249.251 91.974 246.039 L 156.881 162.304 C 158.883 162.56 160.838 162.909 162.909 162.909 C 179.759 162.909 194.374 153.879 202.543 140.474 L 309.457 140.474 C 317.626 153.879 332.241 162.909 349.091 162.909 C 351.209 162.909 353.21 162.56 355.258 162.281 L 420.049 245.993 C 419.314 249.278 418.932 252.633 418.909 256 C 418.909 259.677 419.444 263.215 420.259 266.659 Z " fill="rgb(30,126,235)"/></g></svg>