<?xml version="1.0" encoding="UTF-8" standalone="no"?><!-- Generator: Gravit.io --><svg xmlns="http://www.w3.org/2000/svg" xmlns:xlink="http://www.w3.org/1999/xlink" style="isolation:isolate" viewBox="0 0 512 512" width="512pt" height="512pt"><defs><clipPath id="_clipPath_iYXcl8Vw0FqDKOHEKEHmpARBXoc16Ywy"><rect width="512" height="512"/></clipPath></defs><g clip-path="url(#_clipPath_iYXcl8Vw0FqDKOHEKEHmpARBXoc16Ywy)"><path d=" M 42.667 192 L 0 192 L 0 0 L 192 0 L 192 42.667 L 73.323 42.667 L 73.323 42.667 L 42.667 42.667 L 42.667 73.323 L 42.667 192 Z  M 42.667 438.677 L 42.667 320 L 0 320 L 0 512 L 192 512 L 192 469.333 L 42.667 469.333 L 42.667 438.677 Z  M 320 469.333 L 320 512 L 512 512 L 512 320 L 469.333 320 L 469.333 438.677 L 469.333 438.677 L 469.333 469.333 L 320 469.333 Z  M 469.333 73.323 L 469.333 73.323 L 469.333 192 L 512 192 L 512 0 L 320 0 L 320 42.667 L 438.677 42.667 L 438.677 42.667 L 469.333 42.667 L 469.333 73.323 Z " fill-rule="evenodd" fill="rgb(255,255,255)"/></g></svg>