<?xml version="1.0" encoding="UTF-8" standalone="no"?><!-- Generator: Gravit.io --><svg xmlns="http://www.w3.org/2000/svg" xmlns:xlink="http://www.w3.org/1999/xlink" style="isolation:isolate" viewBox="0 0 512 512" width="512pt" height="512pt"><defs><clipPath id="_clipPath_GXqlO6ExySqC6F2SVpHlE1FtQPVhngwP"><rect width="512" height="512"/></clipPath></defs><g clip-path="url(#_clipPath_GXqlO6ExySqC6F2SVpHlE1FtQPVhngwP)"><path d=" M 290.953 256 L 107.782 68.989 C 99.614 60.631 99.69 47.258 107.953 38.994 L 140.7 6.246 C 144.716 2.232 150.166 -0.016 155.844 0 C 161.521 0.016 166.959 2.295 170.951 6.332 L 404.043 240.917 C 408.058 244.908 410.309 250.339 410.294 256 C 410.309 261.661 408.058 267.092 404.043 271.083 L 170.951 505.668 C 166.959 509.705 161.521 511.984 155.844 512 C 150.166 512.016 144.716 509.768 140.7 505.754 L 107.953 473.006 C 99.69 464.742 99.614 451.369 107.782 443.011 L 290.953 256 Z " fill="rgb(30,126,235)"/></g></svg>