<?xml version="1.0" encoding="UTF-8" standalone="no"?><!-- Generator: Gravit.io --><svg xmlns="http://www.w3.org/2000/svg" xmlns:xlink="http://www.w3.org/1999/xlink" style="isolation:isolate" viewBox="0 0 256 256" width="256pt" height="256pt"><defs><clipPath id="_clipPath_q4GrzeM6u57zLE6lEYIworiaYcI0MInn"><rect width="256" height="256"/></clipPath></defs><g clip-path="url(#_clipPath_q4GrzeM6u57zLE6lEYIworiaYcI0MInn)"><rect width="256" height="256" style="fill:rgb(30,126,235)" fill-opacity="0"></rect><path d=" M 118 20.154 C 92.918 22.476 69.315 33.479 51.397 51.397 C 31.114 71.68 19.692 99.249 19.692 128 C 19.692 156.751 31.114 184.32 51.397 204.603 C 71.68 224.886 99.249 236.308 128 236.308 L 128 236.308 C 156.751 236.308 184.32 224.886 204.603 204.603 C 224.886 184.32 236.308 156.751 236.308 128 L 236.308 128 C 236.308 99.249 224.886 71.68 204.603 51.397 C 186.685 33.479 163.082 22.476 138 20.154 L 138 128 C 138 130.65 136.95 133.2 135.07 135.07 C 133.2 136.95 130.65 138 128 138 C 125.35 138 122.8 136.95 120.93 135.07 C 119.05 133.2 118 130.65 118 128 L 118 20.154 Z  M 128 256 C 94.129 256 61.44 242.412 37.415 218.585 C 13.588 194.56 0 161.871 0 128 C 0 94.129 13.588 61.44 37.415 37.415 C 61.44 13.588 94.129 0 128 0 C 161.871 0 194.56 13.588 218.585 37.415 C 242.609 61.44 256 94.129 256 128 L 256 128 C 256 161.871 242.609 194.56 218.585 218.585 C 194.56 242.412 161.871 256 128 256 L 128 256 Z " fill="#1e7eeb"></path></g></svg>