<?xml version="1.0" encoding="UTF-8" standalone="no"?><!-- Generator: Gravit.io --><svg xmlns="http://www.w3.org/2000/svg" xmlns:xlink="http://www.w3.org/1999/xlink" style="isolation:isolate" viewBox="0 0 256 256" width="256pt" height="256pt"><defs><clipPath id="_clipPath_o3dRJDy8PMhlO1eluWm77xBnaFnBSIIR"><rect width="256" height="256"/></clipPath></defs><g clip-path="url(#_clipPath_o3dRJDy8PMhlO1eluWm77xBnaFnBSIIR)"><path d=" M 192.034 0 C 178.995 0.022 168.43 10.587 168.408 23.626 C 168.43 36.665 178.995 47.23 192.034 47.252 C 205.073 47.23 215.638 36.665 215.66 23.626 C 215.638 10.587 205.073 0.022 192.034 0 L 192.034 0 Z  M 107.479 36.369 C 105.913 36.687 104.43 37.323 103.122 38.239 L 68.006 65.287 C 62.246 70.261 56.725 76.478 60.545 82.069 C 62.943 85.68 71.418 83.78 75.765 81.133 L 112.452 61.546 L 136.387 66.839 L 103.748 115.015 C 96.287 127.957 94.029 138.064 107.479 149.534 L 122.709 158.855 L 153.795 180.302 L 134.208 227.862 C 126.906 245.39 128.886 253.079 133.91 255.218 C 138.913 257.357 145.558 256.233 155.974 237.193 L 185.508 180.919 C 188.453 174.5 186.354 166.894 180.535 162.894 L 143.231 137.398 L 169.652 94.821 L 180.226 118.437 C 181.967 122.367 185.896 126.017 190.174 126.525 C 190.174 126.525 220.286 126.057 228.403 125.59 C 236.958 125.122 246.508 123.371 246.746 117.502 C 247.055 109.116 238.888 108.728 231.198 108.181 L 201.355 105.386 L 183.947 66.53 C 183.758 66.063 183.29 65.705 183.021 65.287 C 182.942 64.929 182.823 64.66 182.703 64.352 C 182.594 64.153 182.554 63.924 182.405 63.725 C 182.172 63.343 181.847 63.025 181.46 62.8 L 181.161 62.482 C 179.989 61.393 178.613 60.548 177.113 59.995 L 159.396 47.56 C 158.092 46.637 156.607 46.003 155.039 45.7 L 112.452 36.359 C 110.811 36.028 109.12 36.028 107.479 36.359 L 107.479 36.369 Z  M 88.827 148.907 L 74.84 168.166 C 74.84 168.166 38.193 170.812 25.102 171.588 C 15.074 172.175 9.245 175.975 9.245 182.471 C 9.245 188.957 14.06 192.498 28.524 193.662 C 40.72 194.627 82.609 197.074 82.609 197.074 C 87.464 197.074 92.637 194.557 95.979 189.613 L 109.657 169.718 C 109.657 169.718 90.229 156.587 88.827 148.897 L 88.827 148.907 Z " fill="rgb(30,126,235)"/></g></svg>