<?xml version="1.0" encoding="UTF-8" standalone="no"?>
<!DOCTYPE svg PUBLIC "-//W3C//DTD SVG 1.1//EN" "http://www.w3.org/Graphics/SVG/1.1/DTD/svg11.dtd">
<svg width="100%" height="100%" viewBox="0 0 512 512" version="1.1" xmlns="http://www.w3.org/2000/svg" xmlns:xlink="http://www.w3.org/1999/xlink" xml:space="preserve" xmlns:serif="http://www.serif.com/" style="fill-rule:evenodd;clip-rule:evenodd;stroke-linejoin:round;stroke-miterlimit:2;">
    <path d="M137.846,0C94.464,0 59.077,35.387 59.077,78.769L59.077,433.231C59.077,476.613 94.464,512 137.846,512L374.154,512C417.536,512 452.923,476.613 452.923,433.231L452.923,157.538C452.923,136.606 433.762,116.775 399.38,83.082C394.614,78.375 389.455,73.157 384.61,68.313C379.766,63.468 374.548,58.919 369.841,54.154C336.167,19.771 316.318,0 295.385,0L137.846,0ZM256,196.923L216.615,433.231L256,433.231L295.385,196.923L256,196.923ZM181.543,243.692L132.313,302.769L121.856,315.077L132.293,327.385L181.524,386.462L212.303,361.846L173.529,315.077L212.322,268.308L181.543,243.692ZM330.457,243.692L299.697,268.308L338.452,315.077L299.697,361.846L330.457,386.462L379.687,327.385L390.164,315.077L379.687,302.769L330.457,243.692Z" style="fill:rgb(30,126,235);"/>
</svg>
