<?xml version="1.0" encoding="UTF-8" standalone="no"?><!-- Generator: Gravit.io --><svg xmlns="http://www.w3.org/2000/svg" xmlns:xlink="http://www.w3.org/1999/xlink" style="isolation:isolate" viewBox="0 0 256 256" width="256pt" height="256pt"><defs><clipPath id="_clipPath_s1Fd1g4SVWLyeLLSQzfOlU4QfuoLTfY5"><rect width="256" height="256"/></clipPath></defs><g clip-path="url(#_clipPath_s1Fd1g4SVWLyeLLSQzfOlU4QfuoLTfY5)"><path d=" M 147.692 0 C 158.158 0 168.083 9.886 184.921 27.077 C 187.273 29.46 189.882 31.734 192.304 34.157 C 194.727 36.579 197.307 39.188 199.689 41.541 C 216.88 58.388 226.462 68.303 226.462 78.769 L 226.462 216.616 C 226.462 238.307 208.768 256 187.076 256 L 68.922 256 C 47.231 256 29.538 238.307 29.538 216.616 L 29.538 39.385 C 29.538 17.694 47.231 0 68.922 0 L 147.692 0 Z  M 62.871 124.489 L 62.871 138.962 L 88.647 138.962 L 62.871 184.075 L 62.871 196.854 L 106.29 196.854 L 106.29 182.381 L 80.514 182.381 L 106.29 137.268 L 106.29 124.489 L 62.871 124.489 L 62.871 124.489 Z  M 120.763 124.489 L 120.763 196.854 L 135.237 196.854 L 135.237 124.489 L 120.763 124.489 L 120.763 124.489 Z  M 164.183 138.962 L 171.419 138.962 C 175.486 138.962 178.656 142.131 178.656 146.198 C 178.656 150.265 175.486 153.435 171.419 153.435 L 164.183 153.435 L 164.183 138.962 L 164.183 138.962 Z  M 149.71 124.489 L 149.71 196.854 L 164.183 196.854 L 164.183 167.908 L 171.419 167.908 C 183.331 167.908 193.129 158.11 193.129 146.198 C 193.129 134.287 183.331 124.489 171.419 124.489 L 149.71 124.489 L 149.71 124.489 Z " fill-rule="evenodd" fill="rgb(30,126,235)"/></g></svg>