<?xml version="1.0" encoding="UTF-8" standalone="no"?><!-- Generator: Gravit.io --><svg xmlns="http://www.w3.org/2000/svg" xmlns:xlink="http://www.w3.org/1999/xlink" style="isolation:isolate" viewBox="0 0 256 256" width="256pt" height="256pt"><defs><clipPath id="_clipPath_EcPsYzGaNxDr9CBLMLDpu0rrR6wda451"><rect width="256" height="256"/></clipPath></defs><g clip-path="url(#_clipPath_EcPsYzGaNxDr9CBLMLDpu0rrR6wda451)"><path d=" M 140.19 0 L 147.693 0 C 158.159 0 168.084 9.886 184.921 27.077 C 187.274 29.46 189.883 31.734 192.305 34.157 C 194.728 36.579 197.307 39.188 199.69 41.541 C 216.881 58.388 226.462 68.303 226.462 78.769 L 226.462 216.616 C 226.462 238.307 208.768 256 187.077 256 L 68.923 256 C 47.232 256 29.539 238.307 29.539 216.616 L 29.539 39.385 C 29.539 17.694 47.232 0 68.923 0 L 115.81 0 L 115.81 30.5 L 140.19 30.5 L 140.19 0 L 140.19 0 Z  M 140.19 146.286 L 115.81 146.286 C 115.81 164.571 103.619 182.857 103.619 195.048 C 103.619 208.518 114.53 219.429 128 219.429 C 141.47 219.429 152.381 208.518 152.381 195.048 C 152.381 182.857 140.19 164.571 140.19 146.286 Z  M 128 207.238 C 121.267 207.238 115.81 201.78 115.81 195.048 C 115.81 188.315 121.267 182.857 128 182.857 C 134.733 182.857 140.19 188.315 140.19 195.048 C 140.19 201.78 134.733 207.238 128 207.238 Z  M 115.81 109.711 L 140.19 109.711 L 140.19 140.19 L 115.81 140.19 L 115.81 109.711 L 115.81 109.711 Z  M 115.81 73.143 L 140.19 73.143 L 140.19 103.643 L 115.81 103.643 L 115.81 73.143 L 115.81 73.143 Z  M 115.81 36.571 L 140.19 36.571 L 140.19 67.071 L 115.81 67.071 L 115.81 36.571 L 115.81 36.571 Z " fill-rule="evenodd" fill="rgb(30,126,235)"/></g></svg>