<?xml version="1.0" encoding="UTF-8" standalone="no"?><!-- Generator: Gravit.io --><svg xmlns="http://www.w3.org/2000/svg" xmlns:xlink="http://www.w3.org/1999/xlink" style="isolation:isolate" viewBox="0 0 256 256" width="256pt" height="256pt"><defs><clipPath id="_clipPath_M8npqRuhHzgBZbFKtvpsba14XzhLBy6h"><rect width="256" height="256"/></clipPath></defs><g clip-path="url(#_clipPath_M8npqRuhHzgBZbFKtvpsba14XzhLBy6h)"><rect width="256" height="256" style="fill:rgb(30,126,235)" fill-opacity="0"/><path d=" M 6.096 0 C 2.743 0 0 2.743 0 6.096 L 0 42.667 C -0.024 44.861 1.122 46.903 3.024 48.025 C 4.932 49.122 7.26 49.122 9.168 48.025 C 11.069 46.903 12.215 44.855 12.191 42.667 L 12.191 12.191 L 42.667 12.191 C 44.861 12.215 46.903 11.069 48.025 9.168 C 49.12 7.266 49.12 4.925 48.025 3.024 C 46.903 1.122 44.855 -0.024 42.667 0 L 6.096 0 Z  M 67.048 0 C 64.849 -0.025 62.805 1.128 61.69 3.024 C 60.595 4.925 60.595 7.266 61.69 9.168 C 62.812 11.069 64.86 12.215 67.048 12.191 L 115.81 12.191 C 118.004 12.215 120.046 11.069 121.167 9.168 C 122.262 7.266 122.262 4.925 121.167 3.024 C 120.046 1.122 117.998 -0.024 115.81 0 L 67.048 0 Z  M 140.191 0 C 137.992 -0.025 135.947 1.128 134.833 3.024 C 133.738 4.925 133.738 7.266 134.833 9.168 C 135.954 11.069 138.002 12.215 140.191 12.191 L 188.952 12.191 C 191.147 12.215 193.188 11.069 194.31 9.168 C 195.405 7.266 195.405 4.925 194.31 3.024 C 193.188 1.122 191.14 -0.024 188.952 0 L 140.191 0 Z  M 213.333 0 C 211.134 -0.025 209.09 1.128 207.975 3.024 C 206.88 4.925 206.88 7.266 207.975 9.168 C 209.097 11.069 211.145 12.215 213.333 12.191 L 243.809 12.191 L 243.809 42.667 C 243.785 44.861 244.931 46.903 246.832 48.025 C 248.74 49.122 251.069 49.122 252.976 48.025 C 254.878 46.903 256.024 44.855 256 42.667 L 256 6.096 C 256 2.743 253.257 0 249.904 0 L 213.333 0 Z  M 5.998 60.855 C 2.646 60.928 -0.048 63.689 0 67.048 L 0 115.81 C -0.024 118.004 1.122 120.046 3.024 121.167 C 4.932 122.264 7.26 122.264 9.168 121.167 C 11.069 120.046 12.215 117.998 12.191 115.81 L 12.191 67.048 C 12.212 65.399 11.567 63.811 10.401 62.645 C 9.235 61.479 7.647 60.834 5.998 60.855 Z  M 249.807 60.855 C 246.455 60.928 243.76 63.689 243.809 67.048 L 243.809 115.81 C 243.785 118.004 244.931 120.046 246.832 121.167 C 248.74 122.264 251.069 122.264 252.976 121.167 C 254.878 120.046 256.024 117.998 256 115.81 L 256 67.048 C 256.021 65.399 255.376 63.811 254.21 62.645 C 253.044 61.479 251.456 60.834 249.807 60.855 Z  M 5.998 133.998 C 2.646 134.071 -0.048 136.832 0 140.19 L 0 188.952 C -0.024 191.146 1.122 193.188 3.024 194.31 C 4.932 195.407 7.26 195.407 9.168 194.31 C 11.069 193.188 12.215 191.14 12.191 188.952 L 12.191 140.19 C 12.212 138.542 11.567 136.954 10.401 135.788 C 9.235 134.622 7.647 133.976 5.998 133.998 Z  M 249.807 133.998 C 246.455 134.071 243.76 136.832 243.809 140.19 L 243.809 188.952 C 243.785 191.146 244.931 193.188 246.832 194.31 C 248.74 195.407 251.069 195.407 252.976 194.31 C 254.878 193.188 256.024 191.14 256 188.952 L 256 140.19 C 256.021 138.542 255.376 136.954 254.21 135.788 C 253.044 134.622 251.456 133.976 249.807 133.998 Z  M 5.998 207.14 C 2.646 207.213 -0.048 209.975 0 213.333 L 0 249.904 C 0 253.257 2.743 256 6.096 256 L 42.667 256 C 44.861 256.024 46.903 254.878 48.025 252.976 C 49.12 251.075 49.12 248.734 48.025 246.832 C 46.903 244.931 44.855 243.785 42.667 243.809 L 12.191 243.809 L 12.191 213.333 C 12.212 211.684 11.567 210.096 10.401 208.93 C 9.235 207.764 7.647 207.119 5.998 207.14 Z  M 249.807 207.14 C 246.455 207.213 243.76 209.975 243.809 213.333 L 243.809 243.809 L 213.333 243.809 C 211.134 243.783 209.09 244.937 207.975 246.832 C 206.88 248.734 206.88 251.075 207.975 252.976 C 209.097 254.878 211.145 256.024 213.333 256 L 249.904 256 C 253.257 256 256 253.257 256 249.904 L 256 213.333 C 256.021 211.684 255.376 210.096 254.21 208.93 C 253.044 207.764 251.456 207.119 249.807 207.14 Z  M 67.048 243.809 C 64.849 243.783 62.805 244.937 61.69 246.832 C 60.595 248.734 60.595 251.075 61.69 252.976 C 62.812 254.878 64.86 256.024 67.048 256 L 115.81 256 C 118.004 256.024 120.046 254.878 121.167 252.976 C 122.262 251.075 122.262 248.734 121.167 246.832 C 120.046 244.931 117.998 243.785 115.81 243.809 L 67.048 243.809 Z  M 140.191 243.809 C 137.992 243.783 135.947 244.937 134.833 246.832 C 133.738 248.734 133.738 251.075 134.833 252.976 C 135.954 254.878 138.002 256.024 140.191 256 L 188.952 256 C 191.147 256.024 193.188 254.878 194.31 252.976 C 195.405 251.075 195.405 248.734 194.31 246.832 C 193.188 244.931 191.14 243.785 188.952 243.809 L 140.191 243.809 Z " fill="rgb(30,126,235)"/></g></svg>