<?xml version="1.0" encoding="UTF-8" standalone="no"?>
<!DOCTYPE svg PUBLIC "-//W3C//DTD SVG 1.1//EN" "http://www.w3.org/Graphics/SVG/1.1/DTD/svg11.dtd">
<svg width="100%" height="100%" viewBox="0 0 512 512" version="1.1" xmlns="http://www.w3.org/2000/svg" xmlns:xlink="http://www.w3.org/1999/xlink" xml:space="preserve" xmlns:serif="http://www.serif.com/" style="fill-rule:evenodd;clip-rule:evenodd;stroke-linejoin:round;stroke-miterlimit:2;">
    <path d="M422.658,161.656L441.405,161.656C460.773,161.656 476.461,177.515 476.461,197.005C476.461,197.005 476.461,438.076 476.461,438.076C476.461,457.566 460.773,473.425 441.405,473.425C441.405,473.425 201.843,473.425 201.843,473.425C182.475,473.425 166.788,457.566 166.788,438.076L166.788,424.947C166.788,424.947 331.827,424.947 331.827,424.947C381.938,424.947 422.658,384.044 422.658,333.618L422.658,161.656ZM388.553,92.547L388.553,333.618C388.553,365.143 363.155,390.774 331.827,390.774L92.265,390.774C60.937,390.774 35.539,365.143 35.539,333.618C35.539,333.618 35.539,92.547 35.539,92.547C35.539,61.022 60.937,35.39 92.265,35.39C92.265,35.39 331.827,35.39 331.827,35.39C363.155,35.39 388.553,61.021 388.553,92.547Z" style="fill:white;"/>
</svg>
