<?xml version="1.0" encoding="UTF-8" standalone="no"?><!-- Generator: Gravit.io --><svg xmlns="http://www.w3.org/2000/svg" xmlns:xlink="http://www.w3.org/1999/xlink" style="isolation:isolate" viewBox="0 0 512 512" width="512pt" height="512pt"><defs><clipPath id="_clipPath_vYBXzNvvApte7063rK68RFArvr4f9RqZ"><rect width="512" height="512"/></clipPath></defs><g clip-path="url(#_clipPath_vYBXzNvvApte7063rK68RFArvr4f9RqZ)"><path d=" M 371.286 99.452 L 371.286 188.485 L 303.091 188.485 L 303.091 91.874 L 371.286 99.452 Z  M 494.275 309.721 C 471.282 245.166 409.595 198.903 337.189 198.903 C 264.782 198.903 203.095 245.166 180.1 309.721 L 494.275 309.721 Z  M 512 317.298 L 164.806 317.298 L 164.806 353.29 L 512 353.29 L 512 317.298 Z  M 503.364 917.797 L 173.442 917.797 L 173.442 362.762 L 503.364 362.762 L 503.364 917.797 Z  M 164.806 927.269 L 512 927.269 L 512 961.366 L 164.806 961.366 L 164.806 927.269 Z  M 281.306 126.919 C 281.306 114.896 271.545 105.135 259.522 105.135 C 247.498 105.135 237.737 114.896 237.737 126.919 C 237.737 138.943 247.498 148.704 259.522 148.704 C 271.545 148.704 281.306 138.943 281.306 126.919 Z  M 210.269 93.238 C 210.269 83.077 202.018 74.826 191.855 74.826 C 181.692 74.826 173.442 83.077 173.442 93.238 C 173.442 103.401 181.692 111.653 191.855 111.653 C 202.018 111.653 210.269 103.401 210.269 93.238 Z  M 210.269 159.539 C 210.269 149.378 202.018 141.127 191.855 141.127 C 181.692 141.127 173.442 149.378 173.442 159.539 C 173.442 169.702 181.692 177.954 191.855 177.954 C 202.018 177.954 210.269 169.702 210.269 159.539 Z  M 143.968 61.035 C 143.968 51.918 136.565 44.516 127.448 44.516 C 118.33 44.516 110.929 51.918 110.929 61.035 C 110.929 70.152 118.33 77.555 127.448 77.555 C 136.565 77.555 143.968 70.152 143.968 61.035 Z  M 143.968 126.919 C 143.968 117.802 136.565 110.401 127.448 110.401 C 118.33 110.401 110.929 117.802 110.929 126.919 C 110.929 136.037 118.33 143.438 127.448 143.438 C 136.565 143.438 143.968 136.037 143.968 126.919 Z  M 143.968 191.743 C 143.968 182.625 136.565 175.224 127.448 175.224 C 118.33 175.224 110.929 182.625 110.929 191.743 C 110.929 200.86 118.33 208.263 127.448 208.263 C 136.565 208.263 143.968 200.86 143.968 191.743 Z  M 81.456 37.886 C 81.456 30.046 75.089 23.679 67.248 23.679 C 59.406 23.679 53.041 30.046 53.041 37.886 C 53.041 45.727 59.406 52.094 67.248 52.094 C 75.089 52.094 81.456 45.727 81.456 37.886 Z  M 81.456 97.292 C 81.456 89.452 75.089 83.085 67.248 83.085 C 59.406 83.085 53.041 89.452 53.041 97.292 C 53.041 105.135 59.406 111.5 67.248 111.5 C 75.089 111.5 81.456 105.135 81.456 97.292 Z  M 81.456 156.698 C 81.456 148.857 75.089 142.491 67.248 142.491 C 59.406 142.491 53.041 148.857 53.041 156.698 C 53.041 164.54 59.406 170.905 67.248 170.905 C 75.089 170.905 81.456 164.54 81.456 156.698 Z  M 81.456 215.952 C 81.456 208.112 75.089 201.745 67.248 201.745 C 59.406 201.745 53.041 208.112 53.041 215.952 C 53.041 223.793 59.406 230.16 67.248 230.16 C 75.089 230.16 81.456 223.793 81.456 215.952 Z  M 22.732 11.366 C 22.732 5.094 17.638 0 11.366 0 C 5.092 0 0 5.094 0 11.366 C 0 17.638 5.092 22.732 11.366 22.732 C 17.638 22.732 22.732 17.638 22.732 11.366 Z  M 22.732 69.143 C 22.732 62.871 17.638 57.777 11.366 57.777 C 5.092 57.777 0 62.871 0 69.143 C 0 75.415 5.092 80.509 11.366 80.509 C 17.638 80.509 22.732 75.415 22.732 69.143 Z  M 22.732 126.919 C 22.732 120.647 17.638 115.553 11.366 115.553 C 5.092 115.553 0 120.647 0 126.919 C 0 133.191 5.092 138.285 11.366 138.285 C 17.638 138.285 22.732 133.191 22.732 126.919 Z  M 22.732 184.696 C 22.732 178.424 17.638 173.33 11.366 173.33 C 5.092 173.33 0 178.424 0 184.696 C 0 190.968 5.092 196.062 11.366 196.062 C 17.638 196.062 22.732 190.968 22.732 184.696 Z  M 22.732 243.42 C 22.732 237.148 17.638 232.054 11.366 232.054 C 5.092 232.054 0 237.148 0 243.42 C 0 249.692 5.092 254.786 11.366 254.786 C 17.638 254.786 22.732 249.692 22.732 243.42 Z " fill-rule="evenodd" fill="rgb(30,126,235)"/></g></svg>