<?xml version="1.0" encoding="UTF-8" standalone="no"?>
<svg xmlns="http://www.w3.org/2000/svg" xmlns:xlink="http://www.w3.org/1999/xlink" style="isolation:isolate" viewBox="0 0 256 256">
  <rect width="256" height="256" style="fill:rgb(30,126,235)" fill-opacity="0"></rect>
  <path d="m 34.5,65 v 0 C 53.541,65 69,80.459 69,99.5 v 109 C 69,227.541 53.541,243 34.5,243 v 0 C 15.459,243 0,227.541 0,208.5 V 99.5 C 0,80.459 15.459,65 34.5,65 Z" fill="#1e7eeb"></path>
  <path d="m 221.5,65 v 0 c 19.041,0 34.5,15.459 34.5,34.5 v 109 c 0,19.041 -15.459,34.5 -34.5,34.5 v 0 C 202.459,243 187,227.541 187,208.5 V 99.5 C 187,80.459 202.459,65 221.5,65 Z" fill="#1e7eeb"></path>
  <path d="m 128,8.83 v 0 c 19.041,0 34.5,15.459 34.5,34.5 v 109 c 0,19.041 -15.459,34.5 -34.5,34.5 v 0 c -19.041,0 -34.5,-15.459 -34.5,-34.5 v -109 c 0,-19.041 15.459,-34.5 34.5,-34.5 z" fill="#1e7eeb"></path>
</svg>