<?xml version="1.0" encoding="UTF-8" standalone="no"?><!-- Generator: Gravit.io --><svg xmlns="http://www.w3.org/2000/svg" xmlns:xlink="http://www.w3.org/1999/xlink" style="isolation:isolate" viewBox="0 0 30 30" width="30pt" height="30pt"><defs><clipPath id="_clipPath_UnzxFMHYtiiQZgCpazAK00dJL1cDsSAl"><rect width="30" height="30"/></clipPath></defs><g clip-path="url(#_clipPath_UnzxFMHYtiiQZgCpazAK00dJL1cDsSAl)"><path d=" M 8.936 15 L 1.254 22.682 C 0.45 23.486 0 24.579 0 25.714 C 0 26.85 0.45 27.943 1.254 28.746 C 2.057 29.55 3.15 30 4.286 30 C 5.421 30 6.514 29.55 7.318 28.746 L 15 21.064 L 22.682 28.746 C 23.486 29.55 24.579 30 25.714 30 C 26.85 30 27.943 29.55 28.746 28.746 C 29.55 27.943 30 26.85 30 25.714 C 30 24.579 29.55 23.486 28.746 22.682 L 21.064 15 L 28.746 7.318 C 29.55 6.514 30 5.421 30 4.286 C 30 3.15 29.55 2.057 28.746 1.254 C 27.943 0.45 26.85 0 25.714 0 C 24.579 0 23.486 0.45 22.682 1.254 L 15 8.936 L 7.318 1.254 C 6.514 0.45 5.421 0 4.286 0 C 3.15 0 2.057 0.45 1.254 1.254 C 0.45 2.057 0 3.15 0 4.286 C 0 5.421 0.45 6.514 1.254 7.318 L 8.936 15 Z " fill="rgb(30,126,235)"/></g></svg>