<?xml version="1.0" encoding="UTF-8" standalone="no"?><!-- Generator: Gravit.io --><svg xmlns="http://www.w3.org/2000/svg" xmlns:xlink="http://www.w3.org/1999/xlink" style="isolation:isolate" viewBox="0 0 256 256" width="256pt" height="256pt"><defs><clipPath id="_clipPath_IxottZwJMiSaCbEjyEvXAwKPs8A7PYSl"><rect width="256" height="256"/></clipPath></defs><g clip-path="url(#_clipPath_IxottZwJMiSaCbEjyEvXAwKPs8A7PYSl)"><rect width="256" height="256" style="fill:rgb(19,23,34)" fill-opacity="0"/><path d="M 7 0 L 7 0 C 10.863 0 14 3.137 14 7 L 14 249 C 14 252.863 10.863 256 7 256 L 7 256 C 3.137 256 0 252.863 0 249 L 0 7 C 0 3.137 3.137 0 7 0 Z" style="stroke:none;fill:#1E7EEB;stroke-miterlimit:10;"/><g><path d="M 0 158 L 0 158 C 0 155.24 2.24 153 5 153 L 251 153 C 253.76 153 256 155.24 256 158 L 256 158 C 256 160.76 253.76 163 251 163 L 5 163 C 2.24 163 0 160.76 0 158 Z" style="stroke:none;fill:#1E7EEB;stroke-miterlimit:10;"/><path d="M 0 218 L 0 218 C 0 215.24 2.24 213 5 213 L 251 213 C 253.76 213 256 215.24 256 218 L 256 218 C 256 220.76 253.76 223 251 223 L 5 223 C 2.24 223 0 220.76 0 218 Z" style="stroke:none;fill:#1E7EEB;stroke-miterlimit:10;"/><path d="M 0 38 L 0 38 C 0 35.24 2.24 33 5 33 L 251 33 C 253.76 33 256 35.24 256 38 L 256 38 C 256 40.76 253.76 43 251 43 L 5 43 C 2.24 43 0 40.76 0 38 Z" style="stroke:none;fill:#1E7EEB;stroke-miterlimit:10;"/><path d="M 0 98 L 0 98 C 0 95.24 2.24 93 5 93 L 251 93 C 253.76 93 256 95.24 256 98 L 256 98 C 256 100.76 253.76 103 251 103 L 5 103 C 2.24 103 0 100.76 0 98 Z" style="stroke:none;fill:#1E7EEB;stroke-miterlimit:10;"/></g><circle vector-effect="non-scaling-stroke" cx="220.33333333333334" cy="158.33333333333331" r="17.333333333333343" fill="rgb(30,126,235)"/><circle vector-effect="non-scaling-stroke" cx="56.000000000000014" cy="38.33333333333333" r="17.33333333333333" fill="rgb(30,126,235)"/><circle vector-effect="non-scaling-stroke" cx="136.66666666666669" cy="98.33333333333333" r="17.333333333333336" fill="rgb(30,126,235)"/><circle vector-effect="non-scaling-stroke" cx="90.66666666666667" cy="218.33333333333334" r="17.33333333333333" fill="rgb(30,126,235)"/></g></svg>