<?xml version="1.0" encoding="UTF-8" standalone="no"?><!-- Generator: Gravit.io --><svg xmlns="http://www.w3.org/2000/svg" xmlns:xlink="http://www.w3.org/1999/xlink" style="isolation:isolate" viewBox="0 0 512 512" width="512pt" height="512pt"><defs><clipPath id="_clipPath_bdlmRjTBLpTrsE7fofoz6hPoP6yMg9ef"><rect width="512" height="512"/></clipPath></defs><g clip-path="url(#_clipPath_bdlmRjTBLpTrsE7fofoz6hPoP6yMg9ef)"><path d=" M 512 256 C 512 397.145 403.861 512 270.969 512 C 187.988 512 111.703 467.394 67.27 392.835 C 53.642 369.907 59.984 339.596 81.472 324.956 C 103.059 310.482 131.598 317.218 145.382 340.041 C 172.501 385.911 219.973 413.687 270.969 413.522 C 352.936 413.522 419.483 342.842 419.483 255.785 C 419.483 168.727 352.936 98.047 270.969 98.047 C 227.754 98.047 187.988 117.226 159.99 151.057 L 167.902 158.169 C 180.887 169.589 186.974 184.243 184.742 198.465 C 182.307 212.687 171.96 224.323 155.932 230.357 L 54.691 268.714 C 38.866 274.748 23.852 272.808 13.302 263.542 C 2.752 254.276 -1.915 238.761 0.723 221.307 L 17.36 108.606 C 19.997 90.936 28.721 77.792 41.503 72.62 C 54.285 67.448 68.893 71.111 81.878 82.532 L 88.776 88.566 C 134.629 32.108 200.162 0 270.969 0 C 403.861 -0.215 512 114.64 512 256 L 512 256 Z " fill="rgb(255,255,255)"/></g></svg>