<?xml version="1.0" encoding="UTF-8" standalone="no"?><!-- Generator: Gravit.io --><svg xmlns="http://www.w3.org/2000/svg" xmlns:xlink="http://www.w3.org/1999/xlink" style="isolation:isolate" viewBox="0 0 512 512" width="512pt" height="512pt"><defs><clipPath id="_clipPath_IzVImQblZqZYqdhAgnosTVbTMP0XDckv"><rect width="512" height="512"/></clipPath></defs><g clip-path="url(#_clipPath_IzVImQblZqZYqdhAgnosTVbTMP0XDckv)"><path d=" M 0 0 L 0 102.4 L 25.6 102.4 L 25.6 281.6 L 0 281.6 L 0 384 L 102.4 384 L 102.4 358.4 L 281.6 358.4 L 281.6 384 L 384 384 L 384 281.6 L 358.4 281.6 L 358.4 102.4 L 384 102.4 L 384 0 L 281.6 0 L 281.6 25.6 L 102.4 25.6 L 102.4 0 L 0 0 Z  M 102.4 76.8 L 281.6 76.8 L 281.6 102.4 L 307.2 102.4 L 307.2 281.6 L 281.6 281.6 L 281.6 307.2 L 102.4 307.2 L 102.4 281.6 L 76.8 281.6 L 76.8 102.4 L 102.4 102.4 L 102.4 76.8 Z  M 409.6 128 L 409.6 153.6 L 384 153.6 L 384 204.8 L 409.6 204.8 L 409.6 230.4 L 435.2 230.4 L 435.2 409.6 L 409.6 409.6 L 409.6 435.2 L 230.4 435.2 L 230.4 409.6 L 204.8 409.6 L 204.8 384 L 153.6 384 L 153.6 409.6 L 128 409.6 L 128 512 L 230.4 512 L 230.4 486.4 L 409.6 486.4 L 409.6 512 L 512 512 L 512 409.6 L 486.4 409.6 L 486.4 230.4 L 512 230.4 L 512 128 L 409.6 128 Z " fill="rgb(30,126,235)"/></g></svg>