<?xml version="1.0" encoding="UTF-8" standalone="no"?><!-- Generator: Gravit.io --><svg xmlns="http://www.w3.org/2000/svg" xmlns:xlink="http://www.w3.org/1999/xlink" style="isolation:isolate" viewBox="0 0 256 256" width="256pt" height="256pt"><defs><clipPath id="_clipPath_z5j7Cu0txl7fZDcSoj8MOSPLAOtRwuLo"><rect width="256" height="256"/></clipPath></defs><g clip-path="url(#_clipPath_z5j7Cu0txl7fZDcSoj8MOSPLAOtRwuLo)"><rect width="256" height="256" style="fill:rgb(185,185,185)" fill-opacity="0"/><path d=" M 0 32 L 0 106.667 C -0.001 110.282 0.916 113.839 2.667 117.003 L 56 213.003 C 59.759 219.79 66.908 224.002 74.667 224 L 85.333 224 C 93.706 223.933 101.268 218.978 104.672 211.328 L 128 158.667 L 151.339 211.339 C 154.745 218.981 162.3 223.93 170.667 224 L 181.333 224 C 189.092 224.002 196.241 219.79 200 213.003 L 253.333 117.003 C 255.084 113.839 256.001 110.282 256 106.667 L 256 32 L 213.333 32 L 213.333 101.003 L 177.333 165.664 L 147.328 98.005 C 143.823 90.497 136.287 85.697 128 85.696 C 119.715 85.689 112.174 90.48 108.661 97.984 L 78.667 165.653 L 42.667 101.013 L 42.667 32 L 0 32 Z " fill="rgb(185,185,185)"/></g></svg>