<?xml version="1.0" encoding="UTF-8" standalone="no"?><!-- Generator: Gravit.io --><svg xmlns="http://www.w3.org/2000/svg" xmlns:xlink="http://www.w3.org/1999/xlink" style="isolation:isolate" viewBox="0 0 256 256" width="256pt" height="256pt"><defs><clipPath id="_clipPath_q4GrzeM6u57zLE6lEYIworiaYcI0MInn"><rect width="256" height="256"/></clipPath></defs><g clip-path="url(#_clipPath_q4GrzeM6u57zLE6lEYIworiaYcI0MInn)"><rect width="256" height="256" style="fill:rgb(30,126,235)" fill-opacity="0"></rect><path d=" M 34.909 0 L 34.909 104.727 C 34.956 110.86 37.457 116.771 41.821 121.088 L 76.73 155.997 C 81.036 160.361 86.959 162.863 93.091 162.909 L 162.909 162.909 C 167.007 162.857 171.02 161.729 174.545 159.639 L 174.545 188.358 L 153.449 209.455 L 102.54 209.455 L 74.543 181.457 L 41.821 214.179 L 76.73 249.088 C 81.036 253.452 86.959 255.953 93.091 256 L 162.909 256 C 169.061 255.944 174.942 253.46 179.27 249.088 L 214.179 214.179 C 218.543 209.873 221.044 203.951 221.091 197.818 L 221.091 0 L 174.545 0 L 174.545 95.279 L 153.449 116.364 L 102.54 116.364 L 81.455 95.267 L 81.455 0 L 34.909 0 Z " fill="#1e7eeb"></path></g></svg>