<?xml version="1.0" encoding="UTF-8" standalone="no" ?>
  <!DOCTYPE svg PUBLIC "-//W3C//DTD SVG 1.1//EN" "http://www.w3.org/Graphics/SVG/1.1/DTD/svg11.dtd">
  <svg xmlns="http://www.w3.org/2000/svg" xmlns:xlink="http://www.w3.org/1999/xlink" version="1.1" width="600" height="300" viewBox="0 0 600 300" xml:space="preserve">
    <rect x="0" y="0" width="600" height="300" fill="#fff"></rect>
    <g transform="matrix(1 0 0 1 208.8 71.11)">
      <path style="stroke: rgb(0,0,0); stroke-width: 1; stroke-dasharray: none; stroke-linecap: round; stroke-dashoffset: 0; stroke-linejoin: round; stroke-miterlimit: 10; fill: none; fill-rule: nonzero; opacity: 1;" transform=" translate(-208.8, -71.11)" d="M 31.892687707641194 107.28476821192052 Q 31.893687707641195 107.28476821192052 32.392026578073086 107.28476821192052 Q 32.89036544850498 107.28476821192052 33.388704318936874 107.28476821192052 Q 33.88704318936877 107.28476821192052 35.38205980066445 107.28476821192052 Q 36.87707641196013 107.28476821192052 38.87043189368771 106.78807947019867 Q 40.863787375415285 106.29139072847681 43.355481727574755 105.79470198675496 Q 45.84717607973422 105.2980132450331 48.837209302325576 104.3046357615894 Q 51.82724252491694 103.31125827814569 56.31229235880399 101.32450331125827 Q 60.797342192691026 99.33774834437085 65.28239202657807 96.35761589403972 Q 69.76744186046511 93.37748344370861 76.24584717607974 88.90728476821192 Q 82.72425249169434 84.43708609271523 86.7109634551495 80.96026490066225 Q 90.69767441860465 77.48344370860927 94.18604651162791 74.00662251655629 Q 97.67441860465117 70.52980132450331 102.1594684385382 65.06622516556291 Q 106.64451827242524 59.602649006622514 108.63787375415282 56.12582781456953 Q 110.6312292358804 52.64900662251655 112.12624584717608 49.668874172185426 Q 113.62126245847176 46.688741721854306 114.11960132890366 44.205298013245034 Q 114.61794019933555 41.72185430463576 114.11960132890366 39.23841059602649 Q 113.62126245847176 36.75496688741722 112.62458471760797 34.7682119205298 Q 111.62790697674419 32.78145695364238 109.63455149501661 31.29139072847682 Q 107.64119601328903 29.801324503311257 106.64451827242524 29.304635761589402 Q 105.64784053156146 28.807947019867548 103.65448504983388 28.807947019867548 Q 101.6611295681063 28.807947019867548 100.16611295681062 28.807947019867548 Q 98.67109634551495 28.807947019867548 96.67774086378738 29.801324503311257 Q 94.6843853820598 30.794701986754966 92.69102990033223 31.788079470198674 Q 90.69767441860465 32.78145695364238 89.70099667774086 34.271523178807946 Q 88.70431893687707 35.76158940397351 87.70764119601328 37.74834437086093 Q 86.7109634551495 39.735099337748345 85.21594684385381 42.71523178807947 Q 83.72093023255813 45.6953642384106 82.22591362126246 50.662251655629134 Q 80.73089700996678 55.62913907284768 79.734219269103 59.602649006622514 Q 78.7375415282392 63.57615894039735 77.24252491694352 73.50993377483444 Q 75.74750830564784 83.44370860927152 75.24916943521595 86.9205298013245 Q 74.75083056478405 90.39735099337749 74.25249169435216 93.3774834437086 Q 73.75415282392026 96.35761589403972 73.75415282392026 98.34437086092714 Q 73.75415282392026 100.33112582781456 73.25581395348837 100.82781456953641 Q 72.75747508305648 101.32450331125827 72.75747508305648 101.82119205298012 Q 72.75747508305648 102.31788079470198 72.75747508305648 101.82119205298012 Q 72.75747508305648 101.32450331125827 72.75747508305648 100.82781456953641 Q 72.75747508305648 100.33112582781456 72.75747508305648 98.34437086092714 Q 72.75747508305648 96.35761589403972 73.25581395348837 94.37086092715231 Q 73.75415282392026 92.3841059602649 75.24916943521595 88.41059602649007 Q 76.74418604651163 84.43708609271523 78.7375415282392 81.45695364238411 Q 80.73089700996678 78.47682119205298 82.72425249169436 75.49668874172185 Q 84.71760797342192 72.51655629139073 87.20930232558139 70.03311258278146 Q 89.70099667774086 67.54966887417218 92.19269102990033 65.56291390728477 Q 94.6843853820598 63.57615894039735 97.17607973421927 62.086092715231786 Q 99.66777408637874 60.59602649006622 103.15614617940199 59.10596026490066 Q 106.64451827242524 57.615894039735096 109.13621262458472 57.11920529801324 Q 111.62790697674419 56.62251655629139 114.61794019933555 57.11920529801324 Q 117.60797342192691 57.615894039735096 120.09966777408638 59.602649006622514 Q 122.59136212624584 61.58940397350993 124.08637873754152 62.58278145695364 Q 125.5813953488372 63.57615894039735 126.578073089701 65.06622516556291 Q 127.57475083056478 66.55629139072848 128.57142857142856 68.54304635761589 Q 129.56810631229234 70.52980132450331 130.06644518272424 73.50993377483444 Q 130.56478405315613 76.49006622516556 130.56478405315613 79.96688741721854 Q 130.56478405315613 83.44370860927152 130.06644518272424 86.42384105960265 Q 129.56810631229234 89.40397350993378 129.06976744186045 92.38410596026489 Q 128.57142857142856 95.36423841059602 128.07308970099666 100.33112582781456 Q 127.57475083056478 105.2980132450331 128.57142857142856 106.29139072847681 Q 129.56810631229234 107.28476821192052 131.06312292358803 107.78145695364238 Q 132.5581395348837 108.27814569536423 134.55149501661128 108.77483443708608 Q 136.54485049833886 109.27152317880794 140.531561461794 109.27152317880794 Q 144.51827242524917 109.27152317880794 148.00664451827242 108.27814569536423 Q 151.49501661129568 107.28476821192052 154.98338870431894 105.2980132450331 Q 158.4717607973422 103.31125827814569 161.46179401993356 101.32450331125827 Q 164.4518272425249 99.33774834437085 169.43521594684384 93.87417218543047 Q 174.41860465116278 88.41059602649007 176.41196013289036 84.93377483443709 Q 178.40531561461793 81.45695364238411 179.90033222591362 77.98013245033113 Q 181.3953488372093 74.50331125827815 181.8936877076412 71.02649006622516 Q 182.3920265780731 67.54966887417218 181.8936877076412 65.06622516556291 Q 181.3953488372093 62.58278145695364 180.3986710963455 60.59602649006622 Q 179.40199335548172 58.609271523178805 177.90697674418604 58.11258278145695 Q 176.41196013289036 57.615894039735096 174.91694352159467 58.11258278145695 Q 173.421926910299 58.609271523178805 169.93355481727573 61.09271523178808 Q 166.44518272425248 63.57615894039735 164.45182724252493 66.55629139072848 Q 162.45847176079735 69.5364238410596 160.96345514950167 73.01324503311258 Q 159.468438538206 76.49006622516556 157.4750830564784 80.4635761589404 Q 155.48172757475083 84.43708609271523 154.48504983388705 87.91390728476821 Q 153.48837209302326 91.3907284768212 152.99003322259136 94.86754966887418 Q 152.49169435215947 98.34437086092714 153.48837209302326 102.81456953642383 Q 154.48504983388705 107.28476821192052 155.98006644518273 108.77483443708608 Q 157.4750830564784 110.26490066225165 159.468438538206 111.75496688741721 Q 161.46179401993356 113.24503311258277 165.44850498338872 112.74834437086092 Q 169.43521594684384 112.25165562913907 172.9235880398671 110.7615894039735 Q 176.41196013289036 109.27152317880794 179.90033222591362 106.78807947019867 Q 183.38870431893687 104.3046357615894 186.87707641196013 101.82119205298012 Q 190.3654485049834 99.33774834437085 193.85382059800665 95.86092715231788 Q 197.3421926910299 92.3841059602649 200.83056478405314 88.90728476821192 Q 204.3189368770764 85.43046357615894 207.30897009966776 81.45695364238411 Q 210.29900332225913 77.48344370860927 213.78737541528238 71.02649006622516 Q 217.27574750830564 64.56953642384106 219.26910299003322 59.602649006622514 Q 221.2624584717608 54.63576158940397 222.75747508305648 50.16556291390728 Q 224.25249169435216 45.6953642384106 225.74750830564784 39.735099337748345 Q 227.24252491694352 33.77483443708609 227.24252491694352 31.29139072847682 Q 227.24252491694352 28.807947019867548 226.74418604651163 27.317880794701985 Q 226.24584717607974 25.82781456953642 224.75083056478405 25.82781456953642 Q 223.25581395348837 25.82781456953642 221.7607973421927 26.324503311258276 Q 220.265780730897 26.82119205298013 219.26910299003322 27.317880794701985 Q 218.27242524916943 27.81456953642384 216.77740863787375 28.807947019867548 Q 215.28239202657807 29.801324503311257 214.28571428571428 31.788079470198674 Q 213.2890365448505 33.77483443708609 212.2923588039867 36.258278145695364 Q 211.2956810631229 38.741721854304636 208.80398671096344 46.192052980132445 Q 206.31229235880397 53.64238410596026 205.31561461794018 58.609271523178805 Q 204.3189368770764 63.57615894039735 203.3222591362126 68.54304635761589 Q 202.32558139534882 73.50993377483444 201.82724252491693 78.47682119205298 Q 201.32890365448503 83.44370860927152 200.83056478405314 88.41059602649007 Q 200.33222591362127 93.37748344370861 200.33222591362127 96.8543046357616 Q 200.33222591362127 100.33112582781456 200.83056478405314 105.79470198675496 Q 201.32890365448503 111.25827814569536 202.8239202657807 113.74172185430463 Q 204.3189368770764 116.2251655629139 206.31229235880397 117.71523178807946 Q 208.30564784053155 119.20529801324503 211.2956810631229 119.20529801324503 Q 214.28571428571428 119.20529801324503 217.27574750830564 117.71523178807946 Q 220.265780730897 116.2251655629139 223.25581395348837 113.74172185430463 Q 226.24584717607974 111.25827814569536 229.2358803986711 108.27814569536423 Q 232.22591362126246 105.2980132450331 235.71428571428572 101.82119205298012 Q 239.20265780730895 98.34437086092714 242.19269102990032 94.37086092715231 Q 245.18272425249168 90.39735099337749 249.16943521594683 83.94039735099338 Q 253.156146179402 77.48344370860927 255.14950166112953 73.01324503311258 Q 257.1428571428571 68.54304635761589 260.1328903654485 61.58940397350993 Q 263.12292358803984 54.63576158940397 264.1196013289036 50.16556291390728 Q 265.1162790697674 45.6953642384106 265.6146179401993 42.21854304635762 Q 266.1129568106312 38.741721854304636 266.6112956810631 35.76158940397351 Q 267.109634551495 32.78145695364238 266.1129568106312 30.29801324503311 Q 265.1162790697674 27.81456953642384 263.62126245847173 25.82781456953642 Q 262.12624584717605 23.841059602649004 260.63122923588037 22.847682119205295 Q 259.1362126245847 21.85430463576159 255.64784053156143 22.350993377483444 Q 252.1594684385382 22.8476821192053 250.16611295681062 24.33774834437086 Q 248.17275747508305 25.82781456953642 245.68106312292358 28.311258278145694 Q 243.1893687707641 30.794701986754966 240.19933554817274 36.258278145695364 Q 237.20930232558138 41.72185430463576 235.71428571428572 46.192052980132445 Q 234.21926910299004 50.662251655629134 232.72425249169436 55.62913907284768 Q 231.22923588039868 60.59602649006622 230.73089700996678 66.05960264900662 Q 230.2325581395349 71.52317880794702 229.734219269103 75.99337748344371 Q 229.2358803986711 80.4635761589404 229.734219269103 84.93377483443709 Q 230.2325581395349 89.40397350993378 230.73089700996678 95.36423841059602 Q 231.22923588039868 101.32450331125827 232.22591362126246 104.80132450331125 Q 233.22259136212625 108.27814569536423 238.7043189368771 112.25165562913907 Q 244.1860465116279 116.2251655629139 246.67774086378736 114.73509933774834 Q 249.16943521594683 113.24503311258277 252.65780730897006 111.25827814569536 Q 256.1461794019933 109.27152317880794 259.6345514950166 106.29139072847681 Q 263.12292358803984 103.31125827814569 266.6112956810631 99.8344370860927 Q 270.09966777408636 96.35761589403972 273.5880398671096 93.3774834437086 Q 277.0764119601329 90.39735099337749 282.0598006644518 85.9271523178808 Q 287.04318936877075 81.45695364238411 290.0332225913621 78.47682119205298 Q 293.0232558139535 75.49668874172185 296.01328903654485 73.50993377483444 Q 299.0033222591362 71.52317880794702 302.99003322259136 70.03311258278146 Q 306.9767441860465 68.54304635761589 308.9700996677741 68.04635761589404 Q 310.96345514950167 67.54966887417218 312.95681063122925 67.54966887417218 Q 314.9501661129568 67.54966887417218 316.4451827242525 67.54966887417218 Q 317.9401993355482 67.54966887417218 318.4385382059801 67.54966887417218 Q 318.936877076412 67.54966887417218 319.43521594684387 68.04635761589404 Q 319.93355481727576 68.54304635761589 319.93355481727576 68.04635761589404 Q 319.93355481727576 67.54966887417218 318.936877076412 67.54966887417218 Q 317.9401993355482 67.54966887417218 317.4418604651163 67.54966887417218 Q 316.9435215946844 67.54966887417218 314.4518272425249 67.05298013245033 Q 311.96013289036546 66.55629139072848 309.468438538206 67.05298013245033 Q 306.9767441860465 67.54966887417218 303.98671096345515 68.04635761589404 Q 300.9966777408638 68.54304635761589 297.00996677740864 69.5364238410596 Q 293.0232558139535 70.52980132450331 289.5348837209302 72.51655629139073 Q 286.04651162790697 74.50331125827815 282.5581395348837 76.98675496688742 Q 279.06976744186045 79.47019867549669 275.5813953488372 83.94039735099338 Q 272.09302325581393 88.41059602649007 270.09966777408636 91.3907284768212 Q 268.1063122923588 94.37086092715232 267.109634551495 99.33774834437085 Q 266.1129568106312 104.3046357615894 266.1129568106312 106.78807947019867 Q 266.1129568106312 109.27152317880794 269.60132890365446 113.24503311258277 Q 273.0897009966777 117.21854304635761 276.0797342192691 118.70860927152317 Q 279.06976744186045 120.19867549668874 282.0598006644518 120.19867549668874 Q 285.0498338870432 120.19867549668874 289.03654485049833 120.19867549668874 Q 293.0232558139535 120.19867549668874 299.5016611295681 117.71523178807946 Q 305.98006644518273 115.23178807947019 309.9667774086379 112.74834437086092 Q 313.95348837209303 110.26490066225165 317.4418604651163 106.78807947019867 Q 320.93023255813955 103.31125827814569 325.9136212624585 98.34437086092714 Q 330.8970099667774 93.37748344370861 332.89036544850495 89.40397350993378 Q 334.8837209302325 85.43046357615894 335.8803986710963 82.45033112582782 Q 336.8770764119601 79.47019867549669 336.3787375415282 76.49006622516556 Q 335.8803986710963 73.50993377483444 334.8837209302325 71.02649006622516 Q 333.88704318936874 68.54304635761589 331.89368770764116 66.55629139072848 Q 329.9003322259136 64.56953642384106 326.9102990033223 63.57615894039735 Q 323.9202657807309 62.58278145695364 322.42524916943523 62.086092715231786 Q 320.93023255813955 61.58940397350993 318.936877076412 61.58940397350993 Q 316.9435215946844 61.58940397350993 315.4485049833887 62.086092715231786 Q 313.95348837209303 62.58278145695364 311.96013289036546 64.0728476821192 Q 309.9667774086379 65.56291390728477 308.9700996677741 67.05298013245033 Q 307.9734219269103 68.54304635761589 307.9734219269103 70.03311258278146 Q 307.9734219269103 71.52317880794702 309.468438538206 73.01324503311258 Q 310.96345514950167 74.50331125827815 312.95681063122925 75.49668874172185 Q 314.9501661129568 76.49006622516556 319.93355481727576 77.48344370860927 Q 324.9169435215947 78.47682119205298 333.3887043189369 77.48344370860927 Q 341.86046511627904 76.49006622516556 348.33887043189367 75 Q 354.8172757475083 73.50993377483444 361.2956810631229 72.01986754966887 Q 367.77408637873754 70.52980132450331 376.74418604651163 67.54966887417218 L 385.7152857142857 64.56853642384105" stroke-linecap="round" />
    </g>
    <g transform="matrix(1 0 0 1 306.98 183.86)">
      <path style="stroke: rgb(0,0,0); stroke-width: 1; stroke-dasharray: none; stroke-linecap: round; stroke-dashoffset: 0; stroke-linejoin: round; stroke-miterlimit: 10; fill: none; fill-rule: nonzero; opacity: 1;" transform=" translate(-306.98, -183.86)" d="M 78.7365415282392 262.25165562913907 Q 78.7375415282392 262.25165562913907 79.2358803986711 262.25165562913907 Q 79.734219269103 262.25165562913907 80.23255813953489 262.25165562913907 Q 80.73089700996678 262.25165562913907 82.22591362126246 262.25165562913907 Q 83.72093023255813 262.25165562913907 84.71760797342192 262.7483443708609 Q 85.71428571428571 263.24503311258275 87.20930232558139 263.24503311258275 Q 88.70431893687707 263.24503311258275 90.19933554817275 263.24503311258275 Q 91.69435215946844 263.24503311258275 94.18604651162791 263.24503311258275 Q 96.67774086378738 263.24503311258275 98.67109634551494 262.7483443708609 Q 100.66445182724252 262.25165562913907 106.14617940199335 258.7748344370861 Q 111.62790697674419 255.2980132450331 115.11627906976744 252.81456953642385 Q 118.60465116279069 250.33112582781456 122.09302325581395 247.35099337748343 Q 125.5813953488372 244.3708609271523 131.06312292358803 238.90728476821192 Q 136.54485049833886 233.4437086092715 139.53488372093022 229.47019867549668 Q 142.5249169435216 225.49668874172184 145.01661129568106 221.02649006622516 Q 147.50830564784053 216.55629139072846 150 212.58278145695363 Q 152.49169435215947 208.6092715231788 154.48504983388705 204.63576158940396 Q 156.47840531561462 200.66225165562912 157.9734219269103 197.18543046357615 Q 159.468438538206 193.70860927152316 160.96345514950167 187.74834437086093 Q 162.45847176079735 181.78807947019868 162.95681063122925 179.3046357615894 Q 163.45514950166114 176.82119205298014 163.95348837209303 175.33112582781456 Q 164.4518272425249 173.841059602649 163.95348837209303 173.34437086092714 Q 163.45514950166114 172.8476821192053 162.95681063122925 172.8476821192053 Q 162.45847176079735 172.8476821192053 161.46179401993356 174.33774834437088 Q 160.46511627906978 175.82781456953643 158.9700996677741 177.81456953642385 Q 157.4750830564784 179.80132450331126 155.98006644518273 183.27814569536423 Q 154.48504983388705 186.75496688741723 152.49169435215947 190.2317880794702 Q 150.4983388704319 193.70860927152316 148.50498338870432 199.6688741721854 Q 146.51162790697674 205.62913907284766 145.01661129568106 210.09933774834434 Q 143.52159468438538 214.56953642384104 142.5249169435216 219.03973509933775 Q 141.5282392026578 223.50993377483442 141.0299003322259 229.47019867549668 Q 140.531561461794 235.43046357615893 140.03322259136212 238.41059602649005 Q 139.53488372093022 241.39072847682118 139.53488372093022 243.87417218543044 Q 139.53488372093022 246.35761589403972 140.03322259136212 248.34437086092714 Q 140.531561461794 250.33112582781456 141.0299003322259 252.31788079470198 Q 141.5282392026578 254.3046357615894 142.0265780730897 254.80132450331126 Q 142.5249169435216 255.2980132450331 144.01993355481727 256.2913907284768 Q 145.51495016611295 257.2847682119205 147.50830564784053 257.78145695364236 Q 149.5016611295681 258.27814569536423 150.9966777408638 258.27814569536423 Q 152.49169435215947 258.27814569536423 154.98338870431894 257.78145695364236 Q 157.4750830564784 257.2847682119205 159.468438538206 256.2913907284768 Q 161.46179401993356 255.2980132450331 162.95681063122925 253.80794701986753 Q 164.4518272425249 252.31788079470198 166.94352159468437 250.33112582781456 Q 169.43521594684384 248.34437086092714 171.9269102990033 245.86092715231786 Q 174.41860465116278 243.3774834437086 176.91029900332225 239.9006622516556 Q 179.40199335548172 236.42384105960264 182.3920265780731 230.96026490066225 Q 185.38205980066445 225.49668874172184 187.37541528239203 221.523178807947 Q 189.3687707641196 217.54966887417217 191.36212624584718 213.57615894039733 Q 193.35548172757476 209.6026490066225 195.84717607973423 203.64238410596025 Q 198.3388704318937 197.682119205298 200.33222591362124 190.2317880794702 Q 202.32558139534882 182.7814569536424 202.32558139534882 180.79470198675497 Q 202.32558139534882 178.80794701986756 202.8239202657807 177.31788079470198 Q 203.3222591362126 175.82781456953643 203.3222591362126 173.841059602649 Q 203.3222591362126 171.8543046357616 203.3222591362126 170.36423841059604 Q 203.3222591362126 168.87417218543047 202.8239202657807 168.87417218543047 Q 202.32558139534882 168.87417218543047 201.32890365448503 169.3708609271523 Q 200.33222591362127 169.86754966887418 198.8372093023256 172.35099337748346 Q 197.3421926910299 174.83443708609272 195.84717607973423 179.80132450331126 Q 194.35215946843854 184.7682119205298 192.85714285714286 189.23841059602648 Q 191.36212624584718 193.70860927152316 190.3654485049834 197.682119205298 Q 189.3687707641196 201.65562913907283 187.87375415282392 205.62913907284766 Q 186.37873754152824 209.6026490066225 185.38205980066445 214.07284768211917 Q 184.38538205980066 218.54304635761588 183.38870431893687 222.01986754966885 Q 182.3920265780731 225.49668874172184 181.3953488372093 230.96026490066225 Q 180.3986710963455 236.42384105960264 179.90033222591362 237.9139072847682 Q 179.40199335548172 239.40397350993376 179.90033222591362 242.88079470198676 Q 180.3986710963455 246.35761589403972 180.8970099667774 247.84768211920527 Q 181.3953488372093 249.33774834437085 181.8936877076412 249.8344370860927 Q 182.3920265780731 250.33112582781456 184.38538205980066 251.32450331125827 Q 186.37873754152824 252.31788079470198 187.37541528239203 252.81456953642385 Q 188.37209302325581 253.3112582781457 189.8671096345515 253.80794701986753 Q 191.36212624584718 254.3046357615894 192.85714285714286 254.3046357615894 Q 194.35215946843854 254.3046357615894 195.84717607973423 253.80794701986753 Q 197.3421926910299 253.3112582781457 199.33554817275746 252.81456953642385 Q 201.32890365448503 252.31788079470198 204.8172757475083 250.82781456953643 Q 208.30564784053155 249.33774834437085 210.29900332225913 247.84768211920527 Q 212.2923588039867 246.35761589403972 214.78405315614617 244.3708609271523 Q 217.27574750830564 242.3841059602649 220.7641196013289 238.90728476821192 Q 224.25249169435216 235.43046357615893 226.24584717607974 232.4503311258278 Q 228.2392026578073 229.47019867549668 229.734219269103 225.99337748344368 Q 231.22923588039868 222.5165562913907 232.22591362126246 218.54304635761588 Q 233.22259136212625 214.56953642384104 234.21926910299004 209.6026490066225 Q 235.21594684385383 204.63576158940396 235.71428571428572 199.6688741721854 Q 236.21262458471762 194.70198675496687 237.2093023255814 187.74834437086093 Q 238.20598006644516 180.79470198675497 238.70431893687706 176.3245033112583 Q 239.20265780730895 171.8543046357616 238.70431893687706 170.86092715231788 Q 238.20598006644516 169.86754966887418 238.20598006644516 168.37748344370863 Q 238.20598006644516 166.88741721854305 237.70764119601327 166.88741721854305 Q 237.20930232558138 166.88741721854305 236.7109634551495 166.3907284768212 Q 236.21262458471762 165.89403973509934 235.71428571428572 165.89403973509934 Q 235.21594684385383 165.89403973509934 235.21594684385383 166.88741721854305 Q 235.21594684385383 167.88079470198676 235.71428571428572 168.87417218543047 Q 236.21262458471762 169.86754966887418 237.2093023255814 171.35761589403972 Q 238.20598006644516 172.8476821192053 239.70099667774085 174.83443708609272 Q 241.19601328903653 176.82119205298014 242.19269102990032 177.31788079470198 Q 243.1893687707641 177.81456953642385 245.68106312292358 179.3046357615894 Q 248.17275747508305 180.79470198675497 249.66777408637873 182.28476821192055 Q 251.1627906976744 183.7748344370861 253.65448504983385 184.7682119205298 Q 256.1461794019933 185.76158940397352 259.1362126245847 187.25165562913907 Q 262.12624584717605 188.74172185430464 265.6146179401993 189.23841059602648 Q 269.10299003322257 189.73509933774835 272.09302325581393 190.2317880794702 Q 275.0830564784053 190.72847682119203 280.56478405315613 190.72847682119203 Q 286.04651162790697 190.72847682119203 291.0299003322259 189.23841059602648 Q 296.01328903654485 187.74834437086093 297.50830564784053 186.75496688741723 Q 299.0033222591362 185.76158940397352 302.49169435215947 183.27814569536423 Q 305.98006644518273 180.79470198675497 306.9767441860465 178.80794701986756 Q 307.9734219269103 176.82119205298014 308.4717607973422 175.82781456953643 Q 308.9700996677741 174.83443708609272 308.9700996677741 173.841059602649 Q 308.9700996677741 172.8476821192053 308.4717607973422 171.35761589403972 Q 307.9734219269103 169.86754966887418 306.9767441860465 168.37748344370863 Q 305.98006644518273 166.88741721854305 302.99003322259136 165.89403973509934 Q 300 164.90066225165563 297.00996677740864 165.39735099337747 Q 294.01993355481727 165.89403973509934 290.0332225913621 167.88079470198676 Q 286.04651162790697 169.86754966887418 280.06644518272424 174.33774834437088 Q 274.0863787375415 178.80794701986756 269.60132890365446 182.7814569536424 Q 265.1162790697674 186.75496688741723 261.62790697674416 190.2317880794702 Q 258.1395348837209 193.70860927152316 255.14950166112953 198.17880794701983 Q 252.1594684385382 202.64900662251654 250.16611295681062 206.1258278145695 Q 248.17275747508305 209.6026490066225 247.67441860465115 213.57615894039733 Q 247.17607973421926 217.54966887417217 247.17607973421926 222.5165562913907 Q 247.17607973421926 227.48344370860926 248.17275747508305 229.96688741721852 Q 249.16943521594683 232.4503311258278 250.66445182724252 234.9337748344371 Q 252.1594684385382 237.41721854304635 256.1461794019933 239.40397350993376 Q 260.1328903654485 241.39072847682118 263.12292358803984 241.39072847682118 Q 266.1129568106312 241.39072847682118 269.60132890365446 241.39072847682118 Q 273.0897009966777 241.39072847682118 277.0764119601329 239.9006622516556 Q 281.063122923588 238.41059602649005 284.5514950166113 236.42384105960264 Q 288.03986710963454 234.43708609271522 292.0265780730897 232.4503311258278 Q 296.01328903654485 230.46357615894038 300.4983388704319 225.49668874172184 Q 304.98338870431894 220.5298013245033 306.9767441860465 216.55629139072846 Q 308.9700996677741 212.58278145695363 310.4651162790698 208.6092715231788 Q 311.96013289036546 204.63576158940396 312.45847176079735 197.682119205298 Q 312.95681063122925 190.72847682119203 312.45847176079735 186.7549668874172 Q 311.96013289036546 182.7814569536424 310.96345514950167 179.3046357615894 Q 309.9667774086379 175.82781456953643 307.9734219269103 172.8476821192053 Q 305.98006644518273 169.86754966887418 303.98671096345515 167.88079470198676 Q 301.9933554817276 165.89403973509934 299.5016611295681 164.90066225165563 Q 297.00996677740864 163.90728476821192 293.5215946843854 162.91390728476821 Q 290.0332225913621 161.9205298013245 288.53820598006644 162.41721854304637 Q 287.04318936877075 162.91390728476821 286.54485049833886 163.90728476821192 Q 286.04651162790697 164.90066225165563 286.04651162790697 166.88741721854305 Q 286.04651162790697 168.87417218543047 287.04318936877075 170.36423841059604 Q 288.03986710963454 171.8543046357616 289.5348837209302 173.841059602649 Q 291.0299003322259 175.82781456953643 294.51827242524917 177.31788079470198 Q 298.0066445182724 178.80794701986756 301.9933554817276 180.29801324503313 Q 305.98006644518273 181.78807947019868 310.4651162790698 182.7814569536424 Q 314.9501661129568 183.7748344370861 321.42857142857144 183.7748344370861 Q 327.90697674418607 183.7748344370861 331.8936877076412 182.7814569536424 Q 335.8803986710963 181.78807947019868 339.86710963455147 180.29801324503313 Q 343.8538205980066 178.80794701986756 348.83720930232556 176.3245033112583 Q 353.8205980066445 173.841059602649 356.312292358804 172.35099337748346 Q 358.80398671096344 170.86092715231788 360.2990033222591 169.86754966887418 Q 361.7940199335548 168.87417218543047 362.7906976744186 168.37748344370863 Q 363.7873754152824 167.88079470198676 363.7873754152824 167.3841059602649 Q 363.7873754152824 166.88741721854305 364.2857142857143 166.88741721854305 Q 364.7840531561462 166.88741721854305 364.7840531561462 167.3841059602649 Q 364.7840531561462 167.88079470198676 364.7840531561462 168.37748344370863 Q 364.7840531561462 168.87417218543047 364.7840531561462 169.3708609271523 Q 364.7840531561462 169.86754966887418 364.7840531561462 170.36423841059604 Q 364.7840531561462 170.86092715231788 364.2857142857143 171.8543046357616 Q 363.7873754152824 172.8476821192053 363.2890365448505 173.34437086092714 Q 362.7906976744186 173.841059602649 361.2956810631229 174.33774834437088 Q 359.80066445182723 174.83443708609272 358.30564784053155 176.3245033112583 Q 356.81063122923587 177.81456953642385 352.3255813953488 180.79470198675497 Q 347.8405315614618 183.7748344370861 344.3521594684385 186.75496688741723 Q 340.86378737541526 189.73509933774835 336.8770764119601 193.21192052980132 Q 332.89036544850495 196.68874172185429 328.40531561461796 202.64900662251654 Q 323.9202657807309 208.6092715231788 322.42524916943523 212.58278145695363 Q 320.93023255813955 216.55629139072846 319.93355481727576 219.5364238410596 Q 318.936877076412 222.5165562913907 318.936877076412 225 Q 318.936877076412 227.48344370860926 319.93355481727576 229.47019867549668 Q 320.93023255813955 231.4569536423841 322.42524916943523 232.94701986754967 Q 323.9202657807309 234.43708609271522 327.4086378737542 234.43708609271522 Q 330.8970099667774 234.43708609271522 334.38538205980063 233.4437086092715 Q 337.8737541528239 232.4503311258278 341.86046511627904 230.96026490066225 Q 345.8471760797342 229.47019867549668 352.3255813953488 225.99337748344368 Q 358.80398671096344 222.5165562913907 363.2890365448505 219.5364238410596 Q 367.77408637873754 216.55629139072846 372.2591362126246 213.0794701986755 Q 376.74418604651163 209.6026490066225 381.2292358803987 205.62913907284766 Q 385.7142857142857 201.65562913907283 389.7009966777409 197.682119205298 Q 393.687707641196 193.70860927152316 397.1760797342193 189.23841059602648 Q 400.66445182724254 184.7682119205298 405.6478405315614 177.31788079470198 Q 410.63122923588037 169.86754966887418 413.12292358803984 164.90066225165563 Q 415.6146179401993 159.9337748344371 417.109634551495 154.4701986754967 Q 418.6046511627907 149.0066225165563 420.59800664451825 142.05298013245033 Q 422.5913621262458 135.09933774834437 422.5913621262458 131.12582781456953 Q 422.5913621262458 127.1523178807947 421.59468438538204 124.66887417218543 Q 420.59800664451825 122.18543046357615 419.10299003322257 120.19867549668874 Q 417.6079734219269 118.21192052980132 415.6146179401993 117.21854304635761 Q 413.62126245847173 116.2251655629139 411.62790697674416 116.2251655629139 Q 409.6345514950166 116.2251655629139 406.1461794019933 117.21854304635761 Q 402.65780730897006 118.21192052980132 400.1661129568106 120.19867549668874 Q 397.6744186046512 122.18543046357615 395.6810631229236 124.66887417218543 Q 393.687707641196 127.1523178807947 390.69767441860466 132.11920529801324 Q 387.7076411960133 137.08609271523179 386.2126245847176 141.05960264900662 Q 384.71760797342193 145.03311258278146 384.21926910299004 148.50993377483445 Q 383.72093023255815 151.98675496688742 382.72425249169436 156.45695364238412 Q 381.72757475083057 160.9271523178808 381.2292358803987 165.39735099337747 Q 380.7308970099668 169.86754966887418 380.2325581395349 174.33774834437088 Q 379.734219269103 178.80794701986756 379.2358803986711 185.26490066225165 Q 378.7375415282392 191.72185430463574 378.2392026578073 196.19205298013242 Q 377.7408637873754 200.66225165562912 377.7408637873754 203.64238410596025 Q 377.7408637873754 206.62251655629137 378.2392026578073 210.09933774834434 Q 378.7375415282392 213.57615894039733 379.2358803986711 215.0662251655629 Q 379.734219269103 216.55629139072846 380.7308970099668 217.05298013245033 Q 381.72757475083057 217.54966887417217 382.72425249169436 218.54304635761588 Q 383.72093023255815 219.5364238410596 384.71760797342193 220.03311258278143 Q 385.7142857142857 220.5298013245033 387.2093023255814 220.5298013245033 Q 388.7043189368771 220.5298013245033 390.69767441860466 221.02649006622516 Q 392.69102990033224 221.523178807947 394.1860465116279 221.02649006622516 Q 395.6810631229236 220.5298013245033 397.6744186046512 220.03311258278143 Q 399.66777408637876 219.5364238410596 402.65780730897006 218.046357615894 Q 405.6478405315614 216.55629139072846 407.641196013289 215.0662251655629 Q 409.6345514950166 213.57615894039733 412.12624584717605 211.58940397350992 Q 414.6179401993355 209.6026490066225 417.6079734219269 207.11920529801324 Q 420.59800664451825 204.63576158940396 423.0897009966777 201.65562913907283 Q 425.5813953488372 198.6754966887417 428.07308970099666 196.19205298013242 Q 430.56478405315613 193.70860927152316 433.5548172757475 190.2317880794702 Q 436.54485049833886 186.75496688741723 438.53820598006644 185.26490066225165 Q 440.531561461794 183.7748344370861 442.5249169435216 182.7814569536424 Q 444.51827242524917 181.78807947019868 446.01328903654485 182.28476821192055 Q 447.50830564784053 182.7814569536424 448.5049833887043 183.27814569536423 Q 449.5016611295681 183.7748344370861 450 184.7682119205298 Q 450.4983388704319 185.76158940397352 450.9966777408638 186.25827814569539 Q 451.4950166112957 186.75496688741723 451.4950166112957 187.25165562913907 Q 451.4950166112957 187.74834437086093 451.9933554817276 188.2450331125828 Q 452.49169435215947 188.74172185430464 451.9933554817276 188.74172185430464 Q 451.4950166112957 188.74172185430464 450.9966777408638 188.2450331125828 Q 450.4983388704319 187.74834437086093 450 186.75496688741723 Q 449.5016611295681 185.76158940397352 447.00996677740864 184.27152317880797 Q 444.51827242524917 182.7814569536424 442.0265780730897 181.78807947019868 Q 439.5348837209302 180.79470198675497 437.54152823920265 180.79470198675497 Q 435.5481727574751 180.79470198675497 431.5614617940199 181.2913907284768 Q 427.57475083056477 181.78807947019868 424.0863787375415 183.7748344370861 Q 420.59800664451825 185.76158940397352 418.1063122923588 188.74172185430461 Q 415.6146179401993 191.72185430463574 412.12624584717605 196.68874172185429 Q 408.6378737541528 201.65562913907283 407.641196013289 205.13245033112582 Q 406.6445182724252 208.6092715231788 406.1461794019933 212.08609271523176 Q 405.6478405315614 215.56291390728475 407.1428571428571 220.03311258278143 Q 408.6378737541528 224.50331125827813 410.1328903654485 226.49006622516555 Q 411.62790697674416 228.47682119205297 414.1196013289036 229.47019867549668 Q 416.6112956810631 230.46357615894038 419.10299003322257 230.96026490066225 Q 421.59468438538204 231.4569536423841 425.0830564784053 230.96026490066225 Q 428.57142857142856 230.46357615894038 432.0598006644518 228.47682119205297 Q 435.5481727574751 226.49006622516555 441.0299003322259 222.01986754966885 Q 446.51162790697674 217.54966887417217 450.4983388704319 213.0794701986755 Q 454.48504983388705 208.6092715231788 457.9734219269103 203.1456953642384 Q 461.46179401993356 197.682119205298 465.9468438538206 188.24503311258277 Q 470.43189368770766 178.80794701986756 472.9235880398671 171.35761589403972 Q 475.41528239202654 163.90728476821192 476.9102990033222 156.45695364238412 Q 478.4053156146179 149.0066225165563 479.4019933554817 142.5496688741722 Q 480.3986710963455 136.09271523178808 479.9003322259136 131.12582781456953 Q 479.4019933554817 126.15894039735099 479.4019933554817 122.18543046357615 Q 479.4019933554817 118.21192052980132 478.4053156146179 113.74172185430463 Q 477.4086378737541 109.27152317880794 475.91362126245843 107.28476821192052 Q 474.41860465116275 105.2980132450331 473.421926910299 104.80132450331125 Q 472.42524916943523 104.3046357615894 469.93355481727576 105.2980132450331 Q 467.4418604651163 106.29139072847681 465.9468438538206 108.27814569536423 Q 464.4518272425249 110.26490066225165 461.96013289036546 113.74172185430463 Q 459.468438538206 117.21854304635761 457.9734219269103 121.6887417218543 Q 456.4784053156146 126.15894039735099 454.98338870431894 131.12582781456953 Q 453.48837209302326 136.09271523178808 452.49169435215947 142.05298013245033 Q 451.4950166112957 148.01324503311258 450.9966777408638 156.95364238410596 Q 450.4983388704319 165.89403973509934 450 171.8543046357616 Q 449.5016611295681 177.81456953642385 449.5016611295681 183.27814569536423 Q 449.5016611295681 188.74172185430464 450 196.68874172185429 Q 450.4983388704319 204.63576158940396 451.4950166112957 209.10596026490066 Q 452.49169435215947 213.57615894039733 453.98671096345515 217.05298013245033 Q 455.48172757475083 220.5298013245033 457.9734219269103 223.01324503311258 Q 460.4651162790698 225.49668874172184 464.4518272425249 225.49668874172184 Q 468.4385382059801 225.49668874172184 473.9202657807309 224.00662251655626 Q 479.4019933554817 222.5165562913907 490.36544850498336 217.54966887417217 Q 501.32890365448503 212.58278145695363 509.3023255813953 209.10596026490066 Q 517.2757475083056 205.62913907284766 526.2458471760797 201.65562913907283 L 535.2169468438537 197.681119205298" stroke-linecap="round" />
    </g>
  </svg>