<?xml version="1.0" encoding="UTF-8" standalone="no"?><!-- Generator: Gravit.io --><svg xmlns="http://www.w3.org/2000/svg" xmlns:xlink="http://www.w3.org/1999/xlink" style="isolation:isolate" viewBox="0 0 512 512" width="512pt" height="512pt"><defs><clipPath id="_clipPath_8mmfcuo1qW4qSknjJnJpg34s1bbe5PTf"><rect width="512" height="512"/></clipPath></defs><g clip-path="url(#_clipPath_8mmfcuo1qW4qSknjJnJpg34s1bbe5PTf)"><path d=" M 227.333 7.174 C 222.447 7.464 217.865 9.643 214.557 13.251 L 40.482 206.802 C 36.528 211.359 22.233 231.75 22.233 262.795 C 22.622 262.328 23.07 262.016 23.46 261.568 C 22.992 264.996 22.233 268.346 22.233 271.91 C 22.233 293.684 27.881 309.42 35.632 320.599 C 26.914 333.1 22.238 347.972 22.233 363.213 C 22.233 389.31 31.055 407.949 41.105 419.206 C 47.341 426.09 55.032 431.498 63.619 435.04 L 300.368 511.112 C 307.866 513.461 316.041 511.054 321.071 505.016 L 485.388 304.785 C 490.468 298.561 491.195 289.855 487.219 282.875 C 487.219 282.875 468.717 252.297 487.823 201.31 C 488.882 199.017 489.503 196.547 489.654 194.026 L 489.654 189.76 C 489.249 186.449 487.987 183.3 485.992 180.626 C 485.992 180.626 486.46 182.769 485.992 180.022 C 485.544 177.296 485.018 171.492 488.427 161.15 C 490.725 154.606 489.342 147.323 484.863 142.064 C 480.315 136.824 473.344 134.367 466.516 135.598 C 459.573 137.064 453.977 142.19 451.909 148.978 C 446.826 164.559 445.989 177.276 447.664 186.722 C 447.819 187.696 448.053 187.618 448.267 188.533 L 299.764 372.347 L 75.791 303.558 C 74.395 303.209 72.965 303.013 71.526 302.974 C 71.526 302.974 71.916 303.87 69.092 301.123 C 66.287 298.397 61.185 292.009 61.185 271.91 C 61.185 257.536 64.768 253.057 69.092 250.019 C 73.255 247.283 78.114 245.797 83.095 245.734 L 84.322 245.734 L 288.819 307.823 C 295.58 309.667 302.787 307.262 307.087 301.727 L 485.369 91.174 C 489.286 86.413 490.444 79.958 488.427 74.132 C 486.506 68.286 481.641 63.887 475.631 62.564 L 231.598 7.194 C 230.001 6.882 228.93 7.116 227.333 7.194 L 227.333 7.174 Z  M 222.464 73.509 C 224.295 73.431 225.58 73.743 227.333 74.113 L 352.719 104.554 C 359.555 106.228 361.834 111.097 358.192 115.499 L 344.792 131.937 C 341.092 136.358 332.776 138.403 325.94 136.806 L 200.554 106.365 C 193.64 104.709 191.42 99.743 195.081 95.419 L 208.481 78.982 C 211.207 75.71 216.914 73.665 222.464 73.509 Z  M 440.964 258.53 C 442.639 271.306 446.281 281.2 448.871 287.744 L 299.764 469.726 L 76.395 398.503 L 75.791 398.503 C 75.558 398.444 74.117 397.919 70.319 393.634 C 66.287 389.076 61.185 381.033 61.185 363.213 C 61.185 353.786 64.982 346.619 68.488 341.906 L 300.368 413.733 C 307.989 415.939 316.187 413.287 321.071 407.033 L 440.964 258.53 Z " fill="rgb(30,126,235)"/></g></svg>