<?xml version="1.0" encoding="UTF-8" standalone="no"?><!-- Generator: Gravit.io --><svg xmlns="http://www.w3.org/2000/svg" xmlns:xlink="http://www.w3.org/1999/xlink" style="isolation:isolate" viewBox="0 0 512 512" width="512pt" height="512pt"><defs><clipPath id="_clipPath_5g1XsuQVjMMbGIkZ9DRSNbSWYX7mgOvj"><rect width="512" height="512"/></clipPath></defs><g clip-path="url(#_clipPath_5g1XsuQVjMMbGIkZ9DRSNbSWYX7mgOvj)"><path d=" M 420.879 91.121 L 401.362 110.638 C 449.021 143.773 477.39 197.901 477.39 256 C 477.39 314.099 449.021 368.227 401.362 401.362 L 420.879 420.993 C 473.418 382.525 504.624 321.475 504.624 256.113 C 504.511 190.638 473.418 129.589 420.879 91.121 L 420.879 91.121 Z  M 323.518 188.482 L 300.255 211.745 C 324.652 211.745 344.511 231.603 344.511 256 C 344.511 280.397 324.652 300.255 300.255 300.255 L 323.518 323.518 C 352.363 313.555 371.724 286.404 371.745 255.887 C 371.745 224.794 351.546 198.128 323.518 188.482 L 323.518 188.482 Z  M 371.858 140.142 L 351.887 160.113 C 387.286 179.039 409.333 215.973 409.191 256.113 C 409.191 296.511 387.291 332.936 351.887 352.113 L 371.858 372.085 C 412.028 347.348 436.426 304 436.426 256.227 C 436.426 208.227 411.915 164.879 371.858 140.142 L 371.858 140.142 Z  M 7.376 153.872 L 89.078 153.872 L 89.078 358.241 L 7.376 358.241 L 7.376 153.872 Z  M 102.695 362.213 L 252.482 512 L 252.482 0 L 102.695 149.901 L 102.695 362.213 L 102.695 362.213 Z " fill="rgb(30,126,235)"/></g></svg>