<?xml version="1.0" encoding="UTF-8" standalone="no"?>
<svg xmlns="http://www.w3.org/2000/svg" xmlns:xlink="http://www.w3.org/1999/xlink" style="isolation:isolate" viewBox="0 0 256 256">
  <rect width="256" height="256" style="fill:rgb(30,126,235)" fill-opacity="0"></rect>
  <path d=" M 157.529 44.37 C 155.169 44.335 152.889 45.224 151.176 46.847 L 138.47 59.553 L 167.058 88.142 L 179.764 72.259 C 179.764 72.259 183.093 66.008 179.764 62.73 L 163.882 46.847 C 162.168 45.224 159.888 44.335 157.529 44.37 Z  M 128.94 69.083 L 78.116 123.083 C 93.313 118.064 98.573 122.334 122.587 132.613 L 157.529 97.671 L 128.94 69.083 Z  M 73.758 75.436 C 60.849 75.385 51.319 78.32 46.351 84.965 L 0 153.552 C 3.38 159.067 11.664 163.933 24.116 154.848 L 100.352 78.612 C 90.441 76.579 81.445 75.487 73.758 75.436 Z  M 173.411 97.671 L 141.646 129.436 L 147.999 142.142 L 141.646 148.495 L 86.058 127.048 C 77.481 124.722 68.345 129.335 64.915 137.924 C 61.484 146.462 66.948 155.89 73.453 160.21 L 141.646 200.513 C 149.651 204.376 158.38 207.006 167.058 205.672 C 180.361 203.639 217.882 193.36 217.882 193.36 L 217.882 116.73 L 173.411 97.671 Z  M 230.588 104.024 L 230.588 205.672 L 256 205.672 L 256 104.024 L 230.588 104.024 Z  M 59.057 138.966 L 14.586 183.437 L 14.586 211.631 L 43.175 208.849 L 84.469 173.907 C 68.396 168.545 50.824 157.326 59.057 138.966 Z " fill-rule="evenodd" fill="#1e7eeb"></path>
</svg>