<?xml version="1.0" encoding="UTF-8" standalone="no"?><!-- Generator: Gravit.io --><svg xmlns="http://www.w3.org/2000/svg" xmlns:xlink="http://www.w3.org/1999/xlink" style="isolation:isolate" viewBox="0 0 512 512" width="512pt" height="512pt"><defs><clipPath id="_clipPath_U6Zegii1pK4qk8FIfm0BfJNa65WAoaTq"><rect width="512" height="512"/></clipPath></defs><g clip-path="url(#_clipPath_U6Zegii1pK4qk8FIfm0BfJNa65WAoaTq)"><path d=" M 89.6 0 C 61.389 0 38.4 22.989 38.4 51.2 L 38.4 384 L 89.6 384 L 89.6 51.2 L 345.6 51.2 L 345.6 0 L 89.6 0 Z  M 192 102.4 C 163.789 102.4 140.8 125.389 140.8 153.6 L 140.8 460.8 C 140.8 489.011 163.789 512 192 512 L 422.4 512 C 450.611 512 473.6 489.011 473.6 460.8 L 473.6 153.6 C 473.6 125.389 450.611 102.4 422.4 102.4 L 192 102.4 Z  M 192 153.6 L 422.4 153.6 L 422.4 460.8 L 192 460.8 L 192 153.6 Z " fill="rgb(30,126,235)"/></g></svg>