<?xml version="1.0" encoding="UTF-8" standalone="no"?><!-- Generator: Gravit.io --><svg xmlns="http://www.w3.org/2000/svg" xmlns:xlink="http://www.w3.org/1999/xlink" style="isolation:isolate" viewBox="0 0 512 512" width="512pt" height="512pt"><defs><clipPath id="_clipPath_xRcI4RZ1ZFoaydNJfm69IA7nru3X3OGv"><rect width="512" height="512"/></clipPath></defs><g clip-path="url(#_clipPath_xRcI4RZ1ZFoaydNJfm69IA7nru3X3OGv)"><path d=" M 501.572 162.483 L 349.727 10.484 C 337.684 -3.26 313.54 -3.54 300.135 9.936 L 10.965 299.387 C 4.188 305.351 0.217 313.885 0.016 322.915 C -0.276 332.688 3.495 342.144 10.43 349.029 L 162.822 501.622 C 169.297 508.219 178.135 511.955 187.374 512 C 196.604 511.951 205.428 508.195 211.867 501.576 L 501.037 212.124 C 507.814 206.16 511.785 197.627 511.986 188.597 C 512.257 178.828 508.49 169.38 501.572 162.483 Z  M 195.414 485.118 C 190.736 489.8 183.964 489.8 179.275 485.118 L 26.894 332.548 C 24.52 330.219 23.215 327.01 23.287 323.684 C 23.383 320.852 24.693 318.2 26.883 316.404 L 172.829 170.31 L 341.361 339.012 L 195.414 485.118 Z " fill="rgb(30,126,235)"/></g></svg>