<?xml version="1.0" encoding="UTF-8" standalone="no"?><!-- Generator: Gravit.io --><svg xmlns="http://www.w3.org/2000/svg" xmlns:xlink="http://www.w3.org/1999/xlink" style="isolation:isolate" viewBox="0 0 512 512" width="512pt" height="512pt"><defs><clipPath id="_clipPath_95LgDlH0AdwTlTvsL1hqIYno4pvcqhNP"><rect width="512" height="512"/></clipPath></defs><g clip-path="url(#_clipPath_95LgDlH0AdwTlTvsL1hqIYno4pvcqhNP)"><path d=" M 256 140.037 C 320.939 140.037 371.963 191.061 371.963 256 C 371.963 320.939 320.939 371.963 256 371.963 C 191.061 371.963 140.037 320.939 140.037 256 C 140.037 191.061 191.061 140.037 256 140.037 L 256 140.037 Z  M 256 93.652 C 116.844 93.652 9.857 235.243 5.218 242.224 C -1.739 251.477 -1.739 260.546 5.218 269.776 C 9.857 276.734 116.844 418.348 256 418.348 C 395.156 418.348 502.143 276.757 506.782 269.776 C 513.739 260.523 513.739 251.454 506.782 242.224 C 502.143 235.266 395.156 93.652 256 93.652 L 256 93.652 Z  M 199.267 244.04 C 198.445 247.897 198.018 251.899 198.018 256 C 198.018 288.001 223.999 313.982 256 313.982 C 288.001 313.982 313.982 288.001 313.982 256 C 313.982 223.999 288.001 198.018 256 198.018 C 251.724 198.018 247.555 198.482 243.544 199.369 C 245.223 203.391 246.147 207.805 246.147 212.433 C 246.147 231.249 230.87 246.526 212.054 246.526 C 207.533 246.526 203.216 245.644 199.267 244.04 Z " fill-rule="evenodd" fill="rgb(30,126,235)"/></g></svg>