<?xml version="1.0" encoding="UTF-8" standalone="no"?><!-- Generator: Gravit.io --><svg xmlns="http://www.w3.org/2000/svg" xmlns:xlink="http://www.w3.org/1999/xlink" style="isolation:isolate" viewBox="0 0 452.764 512" width="452.764pt" height="512pt"><defs><clipPath id="_clipPath_d7H3n6Bs57gHxi2eSepT6SC5kZjLqFAT"><rect width="452.764" height="512"/></clipPath></defs><g clip-path="url(#_clipPath_d7H3n6Bs57gHxi2eSepT6SC5kZjLqFAT)"><path d=" M 359.897 180.694 L 272.071 92.868 L 63.006 301.932 L 44.868 407.897 L 150.832 389.759 L 359.897 180.694 L 359.897 180.694 L 359.897 180.694 Z  M 406.197 146.804 L 305.96 46.568 C 296.213 36.821 280.386 36.821 270.639 46.568 L 270.639 46.568 C 260.891 56.315 260.891 72.142 270.639 81.889 L 370.875 182.126 C 380.622 191.873 396.449 191.873 406.197 182.126 L 406.197 182.126 C 415.944 172.379 415.944 156.552 406.197 146.804 L 406.197 146.804 L 406.197 146.804 Z  M 439.131 13.633 L 439.131 13.633 C 420.954 -4.544 391.439 -4.544 373.262 13.633 L 328.871 58.023 L 394.741 123.893 L 439.131 79.503 C 457.309 61.325 457.309 31.81 439.131 13.633 L 439.131 13.633 Z  M 0.011 476.172 C 0.004 476.47 0 476.767 0 477.062 C 0 485.943 2.274 493.593 6.511 499.436 C 11.722 507.209 20.08 512 31.503 512 C 31.824 512 32.143 511.997 32.458 511.986 C 32.772 511.997 33.091 512 33.412 512 C 44.835 512 53.193 507.209 58.405 499.436 C 62.642 493.593 64.915 485.943 64.915 477.062 C 64.915 476.767 64.911 476.47 64.904 476.172 C 64.912 475.835 64.915 475.494 64.915 475.153 C 64.915 468.302 61.893 460.289 57.644 452.618 C 49.266 436.55 36.615 422.648 32.458 422.648 C 28.3 422.648 15.649 436.55 7.271 452.618 C 3.022 460.289 0 468.302 0 475.153 C 0 475.494 0.003 475.835 0.011 476.172 Z " fill-rule="evenodd" fill="rgb(30,126,235)"/></g></svg>