<?xml version="1.0" encoding="UTF-8" standalone="no"?><!-- Generator: Gravit.io --><svg xmlns="http://www.w3.org/2000/svg" xmlns:xlink="http://www.w3.org/1999/xlink" style="isolation:isolate" viewBox="0 0 512 512" width="512pt" height="512pt"><defs><clipPath id="_clipPath_PrKlI5I3y3zgZLpIwmleSIUCQ1j5Tfg8"><rect width="512" height="512"/></clipPath></defs><g clip-path="url(#_clipPath_PrKlI5I3y3zgZLpIwmleSIUCQ1j5Tfg8)"><path d=" M 256 7 C 165.722 7 90.748 76.204 81.794 164.21 C 70.898 173.242 61.769 185.964 61.769 201.231 L 61.769 434.308 C 61.769 450.235 71.481 463.442 83.018 472.552 C 94.536 481.642 108.89 488.032 126.098 493.781 C 160.555 505.241 206.005 512 256 512 C 305.995 512 351.445 505.241 385.902 493.781 C 403.11 488.032 417.464 481.642 428.982 472.552 C 440.519 463.442 450.231 450.235 450.231 434.308 L 450.231 201.231 C 450.231 185.984 441.121 173.242 430.206 164.21 C 421.252 76.204 346.298 7 256 7 Z  M 256 45.846 C 317.377 45.846 368.906 86.052 385.902 141.757 C 351.426 130.298 305.976 123.538 256 123.538 C 206.024 123.538 160.555 130.298 126.098 141.757 C 143.524 84.648 196.292 45.687 256 45.846 Z  M 256 162.385 C 302.518 162.385 344.919 168.522 373.762 178.176 C 388.174 182.954 399.167 189.091 405.325 193.947 C 411.462 198.803 411.385 201.075 411.385 201.231 C 411.385 201.386 411.462 203.659 405.305 208.514 C 400.186 212.291 394.701 215.545 388.932 218.226 C 376.229 197.579 321.708 181.808 256 181.808 C 190.292 181.808 135.752 197.599 123.068 218.226 C 117.299 215.545 111.814 212.291 106.695 208.514 C 100.518 203.659 100.615 201.386 100.615 201.231 C 100.615 201.075 100.538 198.803 106.695 193.947 C 112.833 189.091 123.826 182.954 138.257 178.156 C 167.062 168.522 209.462 162.385 256 162.385 Z  M 100.615 250.391 C 108.288 254.275 116.698 257.597 126.118 260.704 C 145.91 267.308 169.431 272.164 195.303 275.272 C 209.268 275.272 207.442 288.635 207.442 288.635 C 207.442 295.161 197.731 303.047 197.731 317.769 C 197.731 328.452 206.471 337.192 217.154 337.192 C 227.837 337.192 236.577 328.452 236.577 317.769 C 236.577 303.357 226.865 296.52 226.865 288.635 C 226.865 279.078 242.035 278.923 242.035 278.923 L 242.035 278.321 C 246.735 278.476 251.222 278.923 256 278.923 C 265.401 278.923 274.277 278.768 283.309 278.321 C 296.75 278.321 294.846 298.346 294.846 298.346 C 294.846 352.595 275.423 366.016 275.423 395.462 C 275.423 416.916 292.815 434.308 314.269 434.308 C 335.723 434.308 353.115 416.916 353.115 395.462 C 353.115 366.56 333.692 355.256 333.692 298.346 C 333.692 279.234 353.115 269.212 353.115 269.212 C 364.19 266.973 375.135 264.133 385.902 260.704 C 395.302 257.597 403.713 254.256 411.385 250.41 L 411.385 434.308 C 411.385 434.463 411.462 436.736 405.305 441.591 C 399.168 446.447 388.174 452.585 373.743 457.382 C 344.919 467.016 302.518 473.154 256 473.154 C 209.482 473.154 167.081 467.016 138.238 457.363 C 123.826 452.585 112.833 446.447 106.675 441.591 C 100.557 436.736 100.615 434.463 100.615 434.308 L 100.615 250.391 Z " fill="rgb(30,126,235)"/></g></svg>