<?xml version="1.0" encoding="UTF-8" standalone="no"?><!-- Generator: Gravit.io --><svg xmlns="http://www.w3.org/2000/svg" xmlns:xlink="http://www.w3.org/1999/xlink" style="isolation:isolate" viewBox="0 0 512 512" width="512pt" height="512pt"><defs><clipPath id="_clipPath_Tns21FvyUekVy4FYbFaro5J66wb9EwsA"><rect width="512" height="512"/></clipPath></defs><g clip-path="url(#_clipPath_Tns21FvyUekVy4FYbFaro5J66wb9EwsA)"><g><path d=" M 0.5 512 L 71.611 512 C 71.611 268.501 269.001 71.111 512.5 71.111 L 512.5 0 C 229.72 0 0.5 229.22 0.5 512 Z " fill="rgb(255,108,91)"/><path d=" M 57.389 512 L 127.391 512 L 128.557 510.336 C 129.439 299.392 300.39 128.612 511.391 128.043 C 511.718 127.673 512.173 127.275 512.5 126.891 L 512.5 56.889 C 261.165 56.889 57.389 260.665 57.389 512 Z " fill="rgb(255,217,18)"/><path d=" M 114.278 512 L 185.389 512 C 185.389 331.335 331.835 184.889 512.5 184.889 L 512.5 113.778 C 292.553 113.778 114.278 292.053 114.278 512 Z " fill="rgb(255,255,35)"/><path d=" M 171.167 512 L 242.278 512 C 242.278 509.056 242.448 506.055 242.719 502.94 C 247.384 362.496 359.056 249.444 498.889 242.446 C 503.44 242.062 507.949 241.778 512.5 241.778 L 512.5 170.667 C 323.999 170.667 171.167 323.499 171.167 512 Z " fill="rgb(119,248,125)"/><path d=" M 228.056 512 L 299.167 512 C 299.167 394.169 394.669 298.667 512.5 298.667 L 512.5 227.556 C 355.387 227.556 228.056 354.887 228.056 512 Z " fill="rgb(102,126,255)"/><path d=" M 284.944 512 L 356.056 512 C 356.056 425.614 426.114 355.556 512.5 355.556 L 512.5 284.444 C 386.832 284.444 284.944 386.332 284.944 512 Z " fill="rgb(187,54,210)"/><path d=" M 284.944 512 L 356.056 512 C 356.056 425.614 426.114 355.556 512.5 355.556 L 512.5 284.444 C 386.832 284.444 284.944 386.332 284.944 512 Z " fill="rgb(156,39,176)"/></g></g></svg>