<?xml version="1.0" encoding="UTF-8" standalone="no"?><!-- Generator: Gravit.io --><svg xmlns="http://www.w3.org/2000/svg" xmlns:xlink="http://www.w3.org/1999/xlink" style="isolation:isolate" viewBox="0 0 512 512" width="512pt" height="512pt"><defs><clipPath id="_clipPath_4PQtWZyLHe6ZBkE4lRWgW4kGwblpmIKS"><rect width="512" height="512"/></clipPath></defs><g clip-path="url(#_clipPath_4PQtWZyLHe6ZBkE4lRWgW4kGwblpmIKS)"><path d=" M 460.8 473.6 L 51.2 473.6 C 22.912 473.6 0 450.688 0 422.4 L 0 89.6 C 0 61.312 22.912 38.4 51.2 38.4 L 460.8 38.4 C 489.088 38.4 512 61.312 512 89.6 L 512 422.4 C 512 450.688 489.088 473.6 460.8 473.6 Z  M 243.2 358.4 L 64 358.4 L 204.8 153.6 L 204.8 153.6 L 298.272 289.56 L 345.6 230.4 L 448 358.4 L 243.2 358.4 L 243.2 358.4 L 243.2 358.4 Z  M 358.4 153.6 C 358.407 174.815 375.611 192.007 396.826 192 C 418.04 191.993 435.233 174.789 435.226 153.574 C 435.219 132.36 418.015 115.167 396.8 115.174 C 375.585 115.181 358.393 132.385 358.4 153.6 L 358.4 153.6 L 358.4 153.6 L 358.4 153.6 Z " fill-rule="evenodd" fill="rgb(30,126,235)"/></g></svg>