<?xml version="1.0" encoding="UTF-8" standalone="no"?><!-- Generator: Gravit.io --><svg xmlns="http://www.w3.org/2000/svg" xmlns:xlink="http://www.w3.org/1999/xlink" style="isolation:isolate" viewBox="0 0 512 512" width="512pt" height="512pt"><defs><clipPath id="_clipPath_407JMF7YAj4aPQ90rEtfz4FECBK7DMLv"><rect width="512" height="512"/></clipPath></defs><g clip-path="url(#_clipPath_407JMF7YAj4aPQ90rEtfz4FECBK7DMLv)"><path d=" M 256 0 C 231.083 0.137 208.931 15.892 200.625 39.385 L 98.462 39.385 C 66.009 39.385 39.385 66.009 39.385 98.462 L 39.385 452.923 C 39.385 485.376 66.009 512 98.462 512 L 413.538 512 C 445.991 512 472.615 485.376 472.615 452.923 L 472.615 98.462 C 472.615 66.009 445.991 39.385 413.538 39.385 L 311.375 39.385 C 303.069 15.892 280.917 0.137 256 0 Z  M 256 39.385 C 267.067 39.385 275.692 48.01 275.692 59.077 L 275.692 78.769 L 315.077 78.769 L 315.077 118.154 L 196.923 118.154 L 196.923 78.769 L 236.308 78.769 L 236.308 59.077 C 236.308 48.01 244.933 39.385 256 39.385 Z  M 98.462 78.769 L 157.538 78.769 L 157.538 157.538 L 354.462 157.538 L 354.462 78.769 L 413.538 78.769 C 424.606 78.769 433.231 87.394 433.231 98.462 L 433.231 452.923 C 433.231 463.99 424.606 472.615 413.538 472.615 L 98.462 472.615 C 93.219 472.679 88.173 470.625 84.466 466.918 C 80.759 463.211 78.705 458.165 78.769 452.923 L 78.769 98.462 C 78.769 87.394 87.394 78.769 98.462 78.769 Z " fill="rgb(30,126,235)"/><path d=" M 354.461 198.617 L 216.616 336.463 L 171.401 291.367 L 157.539 277.386 L 129.694 305.231 L 143.675 319.094 L 216.616 392.153 L 382.306 226.462 L 354.461 198.617 Z " fill="rgb(30,126,235)"/></g></svg>