<?xml version="1.0" encoding="UTF-8" standalone="no"?><!-- Generator: Gravit.io --><svg xmlns="http://www.w3.org/2000/svg" xmlns:xlink="http://www.w3.org/1999/xlink" style="isolation:isolate" viewBox="0 0 256 256" width="256pt" height="256pt"><defs><clipPath id="_clipPath_6gfYWL1dwa3aefG8GMwvx6uxll8GFxqm"><rect width="256" height="256"/></clipPath></defs><g clip-path="url(#_clipPath_6gfYWL1dwa3aefG8GMwvx6uxll8GFxqm)"><path d=" M 166.4 0 C 216.294 0 256 39.706 256 89.6 C 256 139.494 216.294 179.2 166.4 179.2 C 154.944 179.2 144 176.998 134.003 173.197 L 115.2 192 L 89.6 192 L 89.6 217.6 L 64 217.6 L 64 243.2 L 55.194 252.006 C 52.646 254.554 49.856 256 46.003 256 L 12.8 256 C 5.094 256 0 250.906 0 243.2 L 0 209.997 C 0 206.157 1.446 203.341 4.006 200.806 L 82.803 121.997 C 78.852 111.652 76.818 100.674 76.8 89.6 C 76.8 39.706 116.506 0 166.4 0 Z  M 185.6 38.4 C 167.706 38.4 153.6 52.506 153.6 70.4 C 153.6 88.294 167.706 102.4 185.6 102.4 C 194.11 102.476 202.293 99.129 208.311 93.111 C 214.329 87.093 217.676 78.91 217.6 70.4 C 217.6 52.506 203.494 38.4 185.6 38.4 Z " fill="rgb(30,126,235)"/></g></svg>