<?xml version="1.0" encoding="UTF-8" standalone="no"?><!-- Generator: Gravit.io --><svg xmlns="http://www.w3.org/2000/svg" xmlns:xlink="http://www.w3.org/1999/xlink" style="isolation:isolate" viewBox="0 0 512 512" width="512pt" height="512pt"><defs><clipPath id="_clipPath_qSSSzBBj10Lm36VN6ZZKKHeGajsw4q37"><rect width="512" height="512"/></clipPath></defs><g clip-path="url(#_clipPath_qSSSzBBj10Lm36VN6ZZKKHeGajsw4q37)"><path d=" M 221.047 256 L 404.218 68.989 C 412.386 60.631 412.31 47.258 404.047 38.994 L 371.3 6.246 C 367.284 2.232 361.834 -0.016 356.156 0 C 350.479 0.016 345.041 2.295 341.049 6.332 L 107.957 240.917 C 103.942 244.908 101.691 250.339 101.706 256 C 101.691 261.661 103.942 267.092 107.957 271.083 L 341.049 505.668 C 345.041 509.705 350.479 511.984 356.156 512 C 361.834 512.016 367.284 509.768 371.3 505.754 L 404.047 473.006 C 412.31 464.742 412.386 451.369 404.218 443.011 L 221.047 256 Z " fill="rgb(30,126,235)"/></g></svg>