<?xml version="1.0" encoding="UTF-8" standalone="no"?><!-- Generator: Gravit.io --><svg xmlns="http://www.w3.org/2000/svg" xmlns:xlink="http://www.w3.org/1999/xlink" style="isolation:isolate" viewBox="0 0 512 512" width="512pt" height="512pt"><defs><clipPath id="_clipPath_Pqzhi8rgYAMmbGcFyhzNVzjxp46djx3h"><rect width="512" height="512"/></clipPath></defs><g clip-path="url(#_clipPath_Pqzhi8rgYAMmbGcFyhzNVzjxp46djx3h)"><g><path d=" M 404.034 395.383 C 404.034 413.81 389.035 428.809 370.608 428.809 L 357.323 428.809 C 338.896 428.809 323.897 413.81 323.897 395.383 L 323.897 116.617 C 323.897 98.19 338.896 83.191 357.323 83.191 L 370.608 83.191 C 389.035 83.191 404.034 98.19 404.034 116.617 L 404.034 395.383 L 404.034 395.383 Z " fill="rgb(30,126,235)"/><path d=" M 312.809 276.034 L 134.749 408.882 C 119.965 419.81 107.966 413.81 107.966 395.383 L 107.966 116.617 C 107.966 98.19 119.965 92.19 134.749 103.118 L 312.809 235.966 C 327.593 246.893 327.593 264.892 312.809 276.034 L 312.809 276.034 L 312.809 276.034 Z " fill="rgb(30,126,235)"/></g></g></svg>