<?xml version="1.0" encoding="UTF-8" standalone="no"?><!-- Generator: Gravit.io --><svg xmlns="http://www.w3.org/2000/svg" xmlns:xlink="http://www.w3.org/1999/xlink" style="isolation:isolate" viewBox="0 0 256 256" width="256pt" height="256pt"><defs><clipPath id="_clipPath_HNl8zb8ailoZQKSng4p4tvybvt5YixdB"><rect width="256" height="256"/></clipPath></defs><g clip-path="url(#_clipPath_HNl8zb8ailoZQKSng4p4tvybvt5YixdB)"><path d=" M 250.669 148.255 C 252.185 148.255 253.629 148.9 254.64 150.029 C 255.652 151.159 256.134 152.665 255.968 154.172 L 245.839 245.867 C 245.665 247.392 244.844 248.769 243.585 249.647 C 242.327 250.526 240.751 250.821 239.26 250.457 L 198.21 240.328 C 196.55 239.919 195.187 238.738 194.545 237.152 C 193.903 235.567 194.061 233.77 194.969 232.321 L 246.148 150.755 C 247.125 149.2 248.832 148.256 250.669 148.255 Z  M 76.875 168.513 C 77.44 168.512 78.001 168.602 78.538 168.779 L 107.779 178.359 L 136.492 168.79 C 138.119 168.252 139.905 168.526 141.294 169.527 C 142.684 170.529 143.51 172.136 143.513 173.849 L 143.513 193.255 L 153.376 223.365 C 154.005 225.279 153.501 227.384 152.074 228.806 C 150.646 230.228 148.538 230.724 146.627 230.087 L 120.056 221.227 L 101.536 248.293 C 100.217 250.226 97.792 251.072 95.557 250.381 C 93.322 249.689 91.799 247.621 91.802 245.281 L 91.802 205.847 L 72.946 177.56 C 71.452 176.023 71.023 173.741 71.859 171.767 C 72.694 169.793 74.63 168.511 76.773 168.513 L 76.875 168.513 Z  M 148.311 15.51 C 149.725 15.511 151.081 16.072 152.08 17.072 L 180.506 45.492 L 228.406 26.029 C 229.198 23.7 231.48 22.215 233.93 22.435 C 236.38 22.655 238.361 24.522 238.726 26.955 C 239.09 29.388 237.742 31.754 235.464 32.682 L 216 90.082 L 243.466 108.074 C 245.27 109.266 246.178 111.427 245.766 113.549 C 245.353 115.671 243.703 117.336 241.584 117.766 L 193.258 127.33 L 174.071 175.806 C 173.27 177.831 171.318 179.165 169.14 179.175 L 169.119 179.175 C 166.95 179.174 164.998 177.858 164.182 175.848 L 144.724 127.997 L 97.133 127.997 C 95.404 127.998 93.782 127.16 92.783 125.75 C 91.784 124.339 91.531 122.531 92.106 120.901 L 102.005 92.673 L 82.259 54.198 C 81.321 52.379 81.508 50.183 82.739 48.548 C 83.971 46.912 86.03 46.127 88.038 46.527 L 134.227 55.669 L 143.135 19.567 C 143.716 17.182 145.856 15.505 148.311 15.51 Z  M 40.09 70.954 C 41.455 70.954 42.793 71.481 43.8 72.457 L 60.86 88.989 C 62.255 90.341 62.805 92.344 62.294 94.219 L 55.897 117.67 C 55.392 119.52 53.932 120.955 52.074 121.429 L 29.151 127.298 C 27.326 127.765 25.391 127.234 24.059 125.901 L 7.528 109.37 C 6.195 108.037 5.662 106.107 6.131 104.278 L 12 81.355 C 12.471 79.507 13.895 78.053 15.732 77.543 L 38.656 71.146 C 39.123 71.019 39.606 70.954 40.09 70.954 Z  M 35.825 168.513 C 37.691 168.514 39.42 169.49 40.383 171.088 L 71.304 222.266 C 72.121 223.606 72.303 225.239 71.802 226.726 C 71.302 228.213 70.168 229.403 68.707 229.975 L 17.529 250.233 C 15.642 250.98 13.495 250.591 11.991 249.23 C 10.486 247.869 9.884 245.772 10.438 243.82 L 30.697 172.383 C 31.348 170.091 33.442 168.51 35.825 168.513 Z  M 5.438 5.381 C 5.785 5.381 6.132 5.414 6.472 5.482 L 57.651 15.612 C 59.713 16.02 61.343 17.603 61.812 19.653 C 62.281 21.703 61.501 23.837 59.82 25.101 L 18.776 56.021 C 17.346 57.1 15.469 57.388 13.781 56.788 C 12.093 56.188 10.819 54.781 10.39 53.041 L 0.507 12.989 C 0.172 12.277 -0.001 11.499 0 10.712 C -0.007 9.288 0.559 7.92 1.57 6.918 C 2.582 5.915 3.955 5.361 5.379 5.381 L 5.438 5.381 Z " fill="rgb(30,126,235)"/></g></svg>