<?xml version="1.0" encoding="UTF-8" standalone="no"?>
<!DOCTYPE svg PUBLIC "-//W3C//DTD SVG 1.1//EN" "http://www.w3.org/Graphics/SVG/1.1/DTD/svg11.dtd">
<svg width="100%" height="100%" viewBox="0 0 512 512" version="1.1" xmlns="http://www.w3.org/2000/svg" xmlns:xlink="http://www.w3.org/1999/xlink" xml:space="preserve" xmlns:serif="http://www.serif.com/" style="fill-rule:evenodd;clip-rule:evenodd;stroke-linejoin:round;stroke-miterlimit:2;">
    <g>
        <path d="M63.488,192.512L63.488,192.512ZM430.763,192.512L430.763,192.498L430.763,264.643C430.763,266.977 431.677,269.216 433.316,270.882C434.954,272.534 437.18,273.49 439.514,273.517C446.082,273.599 452.349,276.234 456.991,280.876C461.565,285.409 464.131,291.594 464.145,298.025C464.131,304.51 461.524,310.736 456.895,315.283C453.523,318.614 449.277,320.922 444.634,321.946C440.006,322.97 435.186,322.669 430.722,321.072C430.531,346.603 424.714,371.794 413.696,394.827C404.357,414.324 391.482,431.923 375.74,446.737C359.97,461.592 341.579,473.402 321.509,481.539C300.687,489.95 278.446,494.264 256,494.251C233.554,494.264 211.313,489.95 190.491,481.539C170.421,473.402 152.03,461.592 136.26,446.737C120.518,431.923 107.643,414.324 98.304,394.827C87.286,371.794 81.469,346.603 81.278,321.072C76.814,322.669 71.994,322.97 67.366,321.946C62.723,320.922 58.477,318.614 55.105,315.283C50.476,310.736 47.869,304.51 47.855,298.025C47.869,291.594 50.435,285.409 55.009,280.876C59.651,276.234 65.918,273.599 72.486,273.517C74.82,273.49 77.046,272.534 78.684,270.882C80.323,269.216 81.237,266.977 81.237,264.643L81.237,192.498C81.224,169.151 85.893,146.022 94.986,124.518C103.779,103.752 116.504,84.896 132.451,68.963C148.384,53.016 167.253,40.291 188.006,31.485C209.524,22.405 232.639,17.736 256,17.749C279.361,17.736 302.476,22.405 323.994,31.485C344.747,40.291 363.616,53.016 379.549,68.963C395.496,84.896 408.221,103.752 417.014,124.518C426.107,146.022 430.776,169.151 430.763,192.498L430.763,192.512ZM63.488,192.512C63.474,166.775 68.622,141.298 78.63,117.596C88.323,94.741 102.332,73.96 119.904,56.416C137.448,38.844 158.229,24.835 181.098,15.142C204.8,5.134 230.264,-0.014 256,0C281.736,-0.014 307.2,5.134 330.902,15.142C353.771,24.835 374.552,38.844 392.096,56.416C409.668,73.96 423.677,94.741 433.37,117.596C443.378,141.298 448.526,166.775 448.512,192.512L448.512,256.792C456.458,258.553 463.749,262.54 469.524,268.288C477.43,276.166 481.881,286.87 481.894,298.025C481.881,309.262 477.361,320.048 469.347,327.926C463.339,333.838 455.735,337.865 447.461,339.49C445.194,361.349 439.187,382.662 429.698,402.5C419.417,423.963 405.245,443.337 387.905,459.653C370.538,476.023 350.276,489.021 328.158,497.992C305.234,507.262 280.726,512.014 256,512C231.274,512.014 206.766,507.262 183.842,497.992C161.724,489.021 141.462,476.023 124.095,459.653C106.755,443.337 92.583,423.963 82.302,402.5C72.813,382.662 66.806,361.349 64.539,339.49C56.265,337.865 48.661,333.838 42.653,327.926C34.639,320.048 30.119,309.262 30.106,298.025C30.119,286.87 34.57,276.166 42.476,268.288C48.251,262.54 55.542,258.553 63.488,256.792L63.488,192.512ZM143.909,255.1C143.909,244.57 152.458,236.021 162.988,236.021C173.518,236.021 182.067,244.57 182.067,255.1C182.067,265.63 173.518,274.179 162.988,274.179C152.458,274.179 143.909,265.63 143.909,255.1ZM368.091,255.1C368.091,244.57 359.542,236.021 349.012,236.021C338.482,236.021 329.933,244.57 329.933,255.1C329.933,265.63 338.482,274.179 349.012,274.179C359.542,274.179 368.091,265.63 368.091,255.1Z" style="fill:rgb(30,126,235);"/>
        <path d="M183.465,409.561C207.988,432.282 232.585,442.998 256.632,443.004C280.831,443.01 305.087,432.225 328.772,409.337C334.924,403.392 335.092,393.572 329.147,387.42C323.202,381.268 313.382,381.1 307.23,387.045C290.447,403.263 273.787,412.008 256.64,412.004C239.341,412 222.175,403.166 204.533,386.821C198.258,381.007 188.443,381.381 182.629,387.657C176.815,393.932 177.189,403.747 183.465,409.561Z" style="fill:rgb(30,126,235);"/>
    </g>
</svg>
