<?xml version="1.0" encoding="UTF-8" standalone="no"?><!-- Generator: Gravit.io --><svg xmlns="http://www.w3.org/2000/svg" xmlns:xlink="http://www.w3.org/1999/xlink" style="isolation:isolate" viewBox="0 0 512 512" width="512pt" height="512pt"><defs><clipPath id="_clipPath_TONgx2wvRB4rCuKRoj584k7yGz4xTR9b"><rect width="512" height="512"/></clipPath></defs><g clip-path="url(#_clipPath_TONgx2wvRB4rCuKRoj584k7yGz4xTR9b)"><path d=" M 0 256 C 0 397.145 108.139 512 241.031 512 C 324.012 512 400.297 467.394 444.73 392.835 C 458.358 369.907 452.016 339.596 430.528 324.956 C 408.941 310.482 380.402 317.218 366.618 340.041 C 339.499 385.911 292.027 413.687 241.031 413.522 C 159.064 413.522 92.517 342.842 92.517 255.785 C 92.517 168.727 159.064 98.047 241.031 98.047 C 284.246 98.047 324.012 117.226 352.01 151.057 L 344.098 158.169 C 331.113 169.589 325.026 184.243 327.258 198.465 C 329.693 212.687 340.04 224.323 356.068 230.357 L 457.309 268.714 C 473.134 274.748 488.148 272.808 498.698 263.542 C 509.248 254.276 513.915 238.761 511.277 221.307 L 494.64 108.606 C 492.003 90.936 483.279 77.792 470.497 72.62 C 457.715 67.448 443.107 71.111 430.122 82.532 L 423.224 88.566 C 377.371 32.108 311.838 0 241.031 0 C 108.139 -0.215 0 114.64 0 256 L 0 256 Z " fill="rgb(255,255,255)"/></g></svg>