<?xml version="1.0" encoding="UTF-8" standalone="no"?><!-- Generator: Gravit.io --><svg xmlns="http://www.w3.org/2000/svg" xmlns:xlink="http://www.w3.org/1999/xlink" style="isolation:isolate" viewBox="0 0 430.859 512" width="430.859pt" height="512pt"><defs><clipPath id="_clipPath_TwQQXmYhqg1fRzGcp0ZN5yJWckeHJPbY"><rect width="430.859" height="512"/></clipPath></defs><g clip-path="url(#_clipPath_TwQQXmYhqg1fRzGcp0ZN5yJWckeHJPbY)"><path d=" M 82.223 203.664 L 44.087 165.257 C 19.744 196.632 4.598 232.875 0 270.47 L 54.635 270.47 C 58.422 246.939 67.888 223.949 82.223 203.664 Z  M 54.635 324.564 L 0 324.564 C 4.598 362.16 19.474 398.403 43.816 429.777 L 81.952 391.37 C 67.888 371.085 58.422 348.366 54.635 324.564 Z  M 81.952 468.454 C 113.327 492.797 149.84 507.402 187.436 512 L 187.436 457.095 C 163.905 453.038 141.185 443.842 120.9 429.236 L 81.952 468.454 Z  M 241.53 83.034 L 241.53 0 L 118.466 123.064 L 241.53 243.423 L 241.53 137.669 C 318.343 150.652 376.765 217.188 376.765 297.517 C 376.765 377.847 318.343 444.382 241.53 457.365 L 241.53 512 C 348.366 498.747 430.859 407.869 430.859 297.517 C 430.859 187.165 348.366 96.287 241.53 83.034 Z " fill="rgb(30,126,235)"/></g></svg>