<?xml version="1.0" encoding="UTF-8" standalone="no"?><!-- Generator: Gravit.io --><svg xmlns="http://www.w3.org/2000/svg" xmlns:xlink="http://www.w3.org/1999/xlink" style="isolation:isolate" viewBox="0 0 430.859 512" width="430.859pt" height="512pt"><defs><clipPath id="_clipPath_92DuNz1o1amH2n3AEm5tnfNNImeXARoi"><rect width="430.859" height="512"/></clipPath></defs><g clip-path="url(#_clipPath_92DuNz1o1amH2n3AEm5tnfNNImeXARoi)"><path d=" M 348.636 203.664 L 386.772 165.257 C 411.115 196.632 426.261 232.875 430.859 270.47 L 376.224 270.47 C 372.437 246.939 362.971 223.949 348.636 203.664 Z  M 376.224 324.564 L 430.859 324.564 C 426.261 362.16 411.385 398.403 387.043 429.777 L 348.906 391.37 C 362.971 371.085 372.437 348.366 376.224 324.564 Z  M 348.906 468.454 C 317.532 492.797 281.018 507.402 243.423 512 L 243.423 457.095 C 266.954 453.038 289.674 443.842 309.959 429.236 L 348.906 468.454 Z  M 189.329 83.034 L 189.329 0 L 312.393 123.064 L 189.329 243.423 L 189.329 137.669 C 112.516 150.652 54.094 217.188 54.094 297.517 C 54.094 377.847 112.516 444.382 189.329 457.365 L 189.329 512 C 82.493 498.747 0 407.869 0 297.517 C 0 187.165 82.493 96.287 189.329 83.034 Z " fill="rgb(30,126,235)"/></g></svg>