<?xml version="1.0" encoding="UTF-8" standalone="no"?>
<!DOCTYPE svg PUBLIC "-//W3C//DTD SVG 1.1//EN" "http://www.w3.org/Graphics/SVG/1.1/DTD/svg11.dtd">
<svg width="100%" height="100%" viewBox="0 0 512 512" version="1.1" xmlns="http://www.w3.org/2000/svg" xmlns:xlink="http://www.w3.org/1999/xlink" xml:space="preserve" xmlns:serif="http://www.serif.com/" style="fill-rule:evenodd;clip-rule:evenodd;stroke-linejoin:round;stroke-miterlimit:2;">
    <path d="M137.846,0C94.464,0 59.077,35.387 59.077,78.769L59.077,433.231C59.077,476.613 94.464,512 137.846,512L374.154,512C417.536,512 452.923,476.613 452.923,433.231L452.923,157.538C452.923,136.606 433.762,116.775 399.38,83.082C394.614,78.375 389.455,73.157 384.61,68.313C379.766,63.468 374.548,58.919 369.841,54.154C336.167,19.771 316.318,0 295.385,0L137.846,0ZM391.792,385.343L131.275,385.343L226.798,246.4L290.212,338.639L322.321,298.504L391.792,385.343ZM331.005,246.4C331.01,260.793 342.681,272.457 357.074,272.452C371.467,272.447 383.131,260.775 383.126,246.383C383.121,231.99 371.45,220.326 357.057,220.331C342.664,220.336 331,232.007 331.005,246.4Z" style="fill:rgb(30,126,235);"/>
</svg>
