<?xml version="1.0" encoding="UTF-8" standalone="no"?>
<svg xmlns="http://www.w3.org/2000/svg" xmlns:xlink="http://www.w3.org/1999/xlink" style="isolation:isolate" viewBox="0 0 256 256">
  <rect width="256" height="256" style="fill:rgb(30,126,235)" fill-opacity="0"></rect>
  <path d=" M 128 10.617 C 131.509 10.617 135.007 10.566 138.515 10.475 C 142.83 10.362 147.134 10.199 151.448 9.995 C 154.559 9.852 157.67 9.679 160.78 9.485 C 164.299 9.271 167.828 9.036 171.357 8.782 C 181.577 8.037 191.786 7.16 201.985 6.14 C 220.017 4.335 238.009 2.285 255.98 0 C 254.062 15.289 252.308 30.598 250.717 45.917 C 249.809 54.637 248.983 63.368 248.249 72.098 C 247.28 83.511 246.515 94.934 245.933 106.367 C 245.566 113.864 245.373 121.381 245.383 128.898 C 245.393 132.375 245.444 135.853 245.536 139.331 C 245.648 143.605 245.811 147.888 246.025 152.162 C 246.168 155.252 246.341 158.332 246.535 161.413 C 246.749 164.921 246.984 168.419 247.239 171.918 C 247.984 182.056 248.871 192.194 249.881 202.311 C 251.686 220.231 253.726 238.131 256.01 256 C 240.752 254.062 225.484 252.298 210.195 250.696 C 201.475 249.778 192.755 248.952 184.014 248.218 C 172.856 247.269 161.688 246.515 150.5 245.954 C 143.003 245.576 135.507 245.383 128 245.383 C 124.492 245.383 120.993 245.434 117.485 245.525 C 113.17 245.638 108.866 245.801 104.552 246.005 C 101.441 246.148 98.331 246.321 95.22 246.515 C 91.701 246.729 88.172 246.964 84.643 247.218 C 74.424 247.963 64.214 248.84 54.015 249.86 C 35.973 251.665 17.961 253.715 -0.02 256 C 1.938 240.773 3.723 225.525 5.334 210.257 C 6.252 201.516 7.089 192.775 7.823 184.034 C 8.751 173.142 9.485 162.239 10.036 151.326 C 10.413 143.85 10.607 136.374 10.617 128.898 C 10.617 125.369 10.577 121.829 10.485 118.301 C 10.373 113.956 10.22 109.611 10.016 105.266 C 9.873 102.135 9.7 98.993 9.516 95.862 C 9.302 92.313 9.067 88.753 8.812 85.204 C 8.068 74.903 7.18 64.612 6.16 54.331 C 4.345 36.197 2.295 18.083 0 0 C 15.248 1.938 30.516 3.702 45.805 5.304 C 54.525 6.222 63.245 7.048 71.986 7.782 C 83.144 8.731 94.312 9.485 105.501 10.046 C 112.997 10.424 120.493 10.617 128 10.617 Z  M 128 31.016 C 131.682 31.016 135.364 30.965 139.046 30.863 C 143.503 30.751 147.96 30.587 152.417 30.373 C 155.62 30.22 158.822 30.047 162.014 29.853 C 165.625 29.629 169.225 29.394 172.836 29.129 C 183.239 28.374 193.642 27.477 204.025 26.436 C 213.571 25.478 223.118 24.458 232.644 23.366 C 231.879 30.179 231.134 36.993 230.431 43.806 C 229.503 52.658 228.666 61.511 227.922 70.385 C 226.932 82.022 226.147 93.68 225.566 105.337 C 225.168 113.191 224.974 121.054 224.984 128.918 C 224.995 132.579 225.046 136.231 225.148 139.882 C 225.26 144.309 225.433 148.735 225.647 153.151 C 225.8 156.323 225.974 159.505 226.167 162.677 C 226.392 166.257 226.637 169.827 226.902 173.407 C 227.657 183.728 228.554 194.05 229.584 204.351 C 230.533 213.785 231.553 223.21 232.634 232.634 C 225.861 231.858 219.099 231.114 212.317 230.41 C 203.464 229.482 194.611 228.646 185.738 227.891 C 174.345 226.922 162.943 226.157 151.53 225.576 C 143.697 225.188 135.843 224.984 128 224.984 C 124.318 224.984 120.636 225.035 116.954 225.137 C 112.497 225.249 108.04 225.413 103.583 225.627 C 100.381 225.78 97.178 225.953 93.986 226.147 C 90.375 226.371 86.775 226.606 83.164 226.871 C 72.761 227.626 62.358 228.523 51.975 229.564 C 42.439 230.522 32.903 231.542 23.387 232.634 C 24.162 225.892 24.907 219.14 25.62 212.388 C 26.559 203.515 27.395 194.642 28.15 185.748 C 29.088 174.631 29.843 163.493 30.404 152.356 C 30.802 144.543 31.006 136.731 31.016 128.918 C 31.016 125.205 30.975 121.493 30.883 117.791 C 30.761 113.293 30.608 108.805 30.394 104.307 C 30.241 101.084 30.067 97.861 29.874 94.638 C 29.659 91.007 29.415 87.366 29.149 83.735 C 28.395 73.251 27.497 62.776 26.457 52.312 C 25.488 42.653 24.458 33.005 23.366 23.366 C 30.129 24.142 36.901 24.886 43.683 25.59 C 52.536 26.518 61.389 27.354 70.262 28.109 C 81.655 29.078 93.058 29.843 104.471 30.424 C 112.304 30.812 120.157 31.016 128 31.016 Z " fill-rule="evenodd" style="transform: rotate(45deg) scale(0.7); transform-origin: center;" fill="#1e7eeb"></path>
  <path d=" M 74.876 99.42 C 75.241 99.419 75.6 99.505 75.926 99.67 C 76.743 100.065 77.261 100.894 77.257 101.802 L 77.257 116.092 L 93.483 116.093 C 94.798 116.093 95.865 117.159 95.865 118.474 L 95.865 137.528 C 95.865 138.838 94.793 139.91 93.483 139.91 L 77.257 139.91 L 77.257 154.201 C 77.25 155.105 76.734 155.928 75.923 156.328 C 75.111 156.728 74.144 156.635 73.423 156.089 L 32.933 129.89 C 32.343 129.44 31.998 128.74 32 127.998 C 32.003 127.257 32.352 126.559 32.945 126.113 L 73.435 99.913 C 73.848 99.594 74.354 99.42 74.876 99.42 L 74.876 99.42 L 74.876 99.42 Z  M 181.118 156.586 C 180.753 156.587 180.394 156.502 180.068 156.336 C 179.251 155.941 178.733 155.112 178.737 154.205 L 178.737 139.914 L 162.511 139.914 C 161.196 139.914 160.129 138.847 160.129 137.532 L 160.129 118.478 C 160.129 117.168 161.201 116.097 162.511 116.097 L 178.737 116.096 L 178.737 101.806 C 178.744 100.902 179.26 100.078 180.071 99.678 C 180.883 99.279 181.85 99.371 182.571 99.917 L 223.061 126.117 C 223.651 126.566 223.996 127.266 223.994 128.008 C 223.991 128.75 223.642 129.448 223.049 129.894 L 182.559 156.093 C 182.147 156.413 181.64 156.586 181.118 156.586 Z " fill-rule="evenodd" fill="#1e7eeb"></path>
</svg>