<?xml version="1.0" encoding="UTF-8" standalone="no"?><!-- Generator: Gravit.io --><svg xmlns="http://www.w3.org/2000/svg" xmlns:xlink="http://www.w3.org/1999/xlink" style="isolation:isolate" viewBox="0 0 512 512" width="512pt" height="512pt"><defs><clipPath id="_clipPath_KSBPpwaSFRIAqLZEq3Fon4uyItb1mrVi"><rect width="512" height="512"/></clipPath></defs><g clip-path="url(#_clipPath_KSBPpwaSFRIAqLZEq3Fon4uyItb1mrVi)"><path d=" M 508.023 167 L 508.194 167 C 510.338 166.912 512.023 165.137 512 162.992 C 511.984 162.014 509.701 66.336 416.568 63.695 L 416.568 35.797 C 416.568 34.259 415.681 32.863 414.302 32.211 C 412.92 31.547 411.28 31.74 410.091 32.708 L 346.47 84.4 C 345.542 85.157 345.003 86.289 345 87.486 C 344.997 88.683 345.53 89.818 346.454 90.579 L 410.075 142.271 C 411.272 143.238 412.918 143.424 414.302 142.768 C 415.687 142.112 416.57 140.715 416.568 139.182 L 416.568 111.379 C 499.435 112.886 503.908 161.222 504.063 163.302 C 504.201 165.386 505.935 167.005 508.023 167 Z " fill="rgb(30,126,235)"/><path d=" M 0 0 L 345 0 L 345 345 L 0 345 L 0 0 Z  M 30 30 L 315 30 L 315 315 L 30 315 L 30 30 Z " fill-rule="evenodd" fill="rgb(30,126,235)"/><rect x="167" y="167" width="345" height="345" transform="matrix(1,0,0,1,0,0)" fill="rgb(30,126,235)"/></g></svg>