<?xml version="1.0" encoding="UTF-8" standalone="no"?><!-- Generator: Gravit.io --><svg xmlns="http://www.w3.org/2000/svg" xmlns:xlink="http://www.w3.org/1999/xlink" style="isolation:isolate" viewBox="0 0 512 512" width="512pt" height="512pt"><defs><clipPath id="_clipPath_8incUocs3uDDsr9DJnjddouWOHrexiHq"><rect width="512" height="512"/></clipPath></defs><g clip-path="url(#_clipPath_8incUocs3uDDsr9DJnjddouWOHrexiHq)"><path d=" M 376.82 3.977 L 376.82 3.806 C 376.908 1.662 378.683 -0.023 380.828 0 C 381.807 0.016 477.485 2.299 480.125 95.432 L 508.023 95.432 C 509.562 95.432 510.957 96.319 511.609 97.698 C 512.273 99.08 512.08 100.72 511.112 101.909 L 459.42 165.53 C 458.664 166.458 457.531 166.997 456.334 167 C 455.138 167.003 454.003 166.47 453.241 165.546 L 401.549 101.925 C 400.583 100.728 400.396 99.082 401.052 97.698 C 401.709 96.313 403.105 95.43 404.639 95.432 L 432.441 95.432 C 430.934 12.565 382.598 8.092 380.518 7.937 C 378.434 7.799 376.816 6.065 376.82 3.977 Z " fill="rgb(30,126,235)"/><path d=" M 166.112 167 L 511.112 167 L 511.112 512 L 166.112 512 L 166.112 167 Z  M 196.112 197 L 481.112 197 L 481.112 482 L 196.112 482 L 196.112 197 Z " fill-rule="evenodd" fill="rgb(30,126,235)"/><path d=" M 0 0 L 345 0 L 345 183 L 180 183 L 180 345 L 0 345 L 0 0 Z " fill="rgb(30,126,235)"/></g></svg>