<?xml version="1.0" encoding="UTF-8" standalone="no"?>
<svg xmlns="http://www.w3.org/2000/svg" xmlns:xlink="http://www.w3.org/1999/xlink" viewBox="0 0 256 256">
  <rect width="256" height="256" style="fill:rgb(30,126,235)" fill-opacity="0"></rect>
  <path d=" M 69.311 69.311 C 71.065 67.557 72.788 65.783 74.497 63.983 C 76.598 61.769 78.668 59.536 80.723 57.277 C 82.207 55.65 83.676 54.008 85.134 52.356 C 86.786 50.49 88.433 48.608 90.07 46.716 C 94.808 41.234 99.474 35.691 104.063 30.082 C 112.176 20.163 120.147 10.143 127.989 0.016 C 134.675 8.618 141.452 17.15 148.316 25.604 C 152.222 30.418 156.174 35.196 160.172 39.929 C 165.394 46.119 170.723 52.213 176.148 58.22 C 179.713 62.152 183.374 66.007 187.138 69.76 C 188.882 71.494 190.646 73.207 192.431 74.9 C 194.623 76.981 196.847 79.041 199.091 81.071 C 200.707 82.544 202.334 83.998 203.971 85.441 C 205.832 87.088 207.698 88.72 209.575 90.341 C 215.016 95.038 220.528 99.663 226.092 104.217 C 235.954 112.274 245.924 120.204 256 127.996 C 247.402 134.655 238.886 141.407 230.442 148.25 C 225.623 152.151 220.85 156.098 216.112 160.101 C 210.059 165.206 204.098 170.412 198.224 175.726 C 194.287 179.285 190.442 182.937 186.689 186.69 C 184.935 188.444 183.211 190.219 181.503 192.019 C 179.402 194.232 177.331 196.465 175.276 198.724 C 173.792 200.351 172.324 201.993 170.865 203.645 C 169.213 205.512 167.566 207.393 165.929 209.285 C 161.192 214.767 156.526 220.31 151.936 225.92 C 143.818 235.843 135.837 245.874 127.989 256.006 C 121.355 247.414 114.624 238.898 107.796 230.458 C 103.885 225.629 99.932 220.841 95.929 216.103 C 90.947 210.193 85.863 204.375 80.682 198.643 C 77.133 194.716 73.492 190.881 69.759 187.139 C 67.995 185.374 66.205 183.625 64.395 181.907 C 62.166 179.79 59.917 177.694 57.643 175.624 C 56.006 174.13 54.349 172.646 52.692 171.172 C 50.81 169.505 48.913 167.842 47.011 166.195 C 41.488 161.417 35.899 156.715 30.249 152.085 C 20.275 143.926 10.193 135.895 0.004 128.001 C 8.597 121.346 17.113 114.594 25.558 107.751 C 30.377 103.85 35.15 99.903 39.887 95.9 C 45.94 90.795 51.901 85.589 57.776 80.275 C 61.712 76.716 65.557 73.065 69.311 69.311 L 69.311 69.311 Z  M 87.089 87.091 C 88.642 85.538 90.174 83.963 91.684 82.367 C 93.517 80.44 95.328 78.491 97.118 76.52 C 98.404 75.105 99.682 73.681 100.947 72.252 C 102.375 70.635 103.795 69.017 105.206 67.382 C 109.276 62.675 113.286 57.908 117.227 53.09 C 120.85 48.658 124.446 44.201 128.004 39.722 C 130.556 42.919 133.116 46.107 135.693 49.278 C 139.036 53.404 142.417 57.491 145.846 61.548 C 150.338 66.874 154.924 72.123 159.597 77.286 C 162.742 80.767 165.977 84.165 169.298 87.478 C 170.847 89.019 172.409 90.537 173.992 92.034 C 175.907 93.854 177.847 95.648 179.8 97.421 C 181.203 98.695 182.618 99.964 184.038 101.22 C 185.643 102.636 187.252 104.038 188.874 105.436 C 193.546 109.472 198.279 113.447 203.059 117.358 C 207.439 120.938 211.844 124.483 216.276 128.002 C 213.092 130.532 209.926 133.07 206.768 135.635 C 202.642 138.978 198.554 142.359 194.493 145.784 C 189.279 150.181 184.146 154.668 179.086 159.237 C 175.619 162.378 172.22 165.605 168.911 168.913 C 167.358 170.466 165.826 172.041 164.316 173.637 C 162.483 175.565 160.672 177.514 158.882 179.484 C 157.596 180.9 156.318 182.324 155.053 183.752 C 153.625 185.37 152.205 186.988 150.794 188.622 C 146.724 193.329 142.714 198.096 138.773 202.915 C 135.155 207.342 131.562 211.795 128.009 216.269 C 125.492 213.099 122.958 209.936 120.411 206.787 C 117.063 202.648 113.673 198.552 110.24 194.482 C 105.946 189.397 101.566 184.38 97.105 179.446 C 93.977 175.982 90.767 172.6 87.476 169.301 C 85.91 167.734 84.327 166.186 82.726 164.663 C 80.777 162.817 78.82 160.988 76.832 159.181 C 75.408 157.886 73.975 156.6 72.534 155.322 C 70.912 153.881 69.273 152.448 67.629 151.028 C 62.888 146.924 58.091 142.884 53.238 138.909 C 48.755 135.243 44.25 131.608 39.724 128.002 C 42.904 125.477 46.075 122.934 49.232 120.37 C 53.358 117.027 57.446 113.645 61.507 110.221 C 66.722 105.824 71.854 101.336 76.914 96.767 C 80.382 93.626 83.78 90.4 87.089 87.091 L 87.089 87.091 Z " fill-rule="evenodd" fill="#1e7eeb"></path>
  <circle cx="128.00221192573636" cy="128.01081788860458" r="17.844030394203592" fill="#1e7eeb"></circle>
</svg>