<?xml version="1.0" encoding="UTF-8" standalone="no"?><!-- Generator: Gravit.io --><svg xmlns="http://www.w3.org/2000/svg" xmlns:xlink="http://www.w3.org/1999/xlink" style="isolation:isolate" viewBox="0 0 512 512" width="512pt" height="512pt"><defs><clipPath id="_clipPath_GVVk300fPyQdXRUyUDi7s65xdrHCybi9"><rect width="512" height="512"/></clipPath></defs><g clip-path="url(#_clipPath_GVVk300fPyQdXRUyUDi7s65xdrHCybi9)"><path d=" M 192.743 0 C 182.817 0.012 174.773 8.056 174.761 17.982 L 174.761 79.236 C 116.852 85.799 76.903 99.115 76.903 114.519 L 76.903 143.814 C 76.903 149.801 83.295 155.298 94.204 160.454 C 122.753 173.855 184.519 183.102 256 183.102 C 327.588 183.102 389.161 173.855 417.796 160.454 C 428.62 155.298 435.097 149.801 435.097 143.814 L 435.097 114.519 C 435.097 98.625 391.91 84.797 330.57 78.555 L 330.57 17.961 C 330.547 8.043 322.506 0.012 312.588 0 L 192.743 0 Z  M 210.725 32.619 L 295.288 32.619 C 297.12 32.619 297.951 41.184 297.951 51.922 L 297.951 75.891 C 283.98 75.108 269.992 74.675 256 74.592 C 240.873 74.592 226.044 75.167 212.046 75.913 L 207.401 76.573 L 207.401 51.944 C 207.401 41.205 208.978 32.641 210.725 32.641 L 210.725 32.619 Z  M 102.193 203.726 C 100.502 205.337 99.343 207.426 98.87 209.713 L 98.87 211.055 C 98.87 211.396 98.784 212.121 98.87 212.398 L 110.865 462.741 C 111.909 482.342 134.642 512 256 512 C 377.358 512 400.07 482.385 401.157 462.72 L 413.13 212.376 L 413.13 209.713 C 412.688 207.421 411.523 205.33 409.807 203.747 C 394.147 219.62 331.146 221.708 256 221.708 C 180.854 221.708 117.938 219.62 102.193 203.726 Z " fill="rgb(30,126,235)"/></g></svg>